<?xml version="1.0" encoding="UTF-8" standalone="no"?>
<!DOCTYPE svg PUBLIC "-//W3C//DTD SVG 1.1//EN"
 "http://www.w3.org/Graphics/SVG/1.1/DTD/svg11.dtd">
<!-- Generated by graphviz version 2.38.0 (20140413.2041)
 -->
<!-- Title: G Pages: 1 -->
<svg width="408pt" height="1971pt"
 viewBox="0.00 0.00 408.32 1971.00" xmlns="http://www.w3.org/2000/svg" xmlns:xlink="http://www.w3.org/1999/xlink">
<g id="graph0" class="graph" transform="scale(1 1) rotate(0) translate(4 1967)">
<title>G</title>
<polygon fill="white" stroke="#000000" points="-4,4 -4,-1967 404.32,-1967 404.32,4 -4,4"/>
<!-- 6574463589582703992 -->
<g id="node1" class="node"><title>6574463589582703992</title>
<polygon fill="lightgreen" stroke="black" points="88.522,-0.5 88.522,-132.5 311.798,-132.5 311.798,-0.5 88.522,-0.5"/>
<text text-anchor="middle" x="145.501" y="-117.3" font-family="Times,serif" font-size="14.00">operation:</text>
<polyline fill="none" stroke="black" points="88.522,-110.5 202.481,-110.5 "/>
<text text-anchor="middle" x="145.501" y="-95.3" font-family="Times,serif" font-size="14.00">output type:</text>
<polyline fill="none" stroke="black" points="88.522,-88.5 202.481,-88.5 "/>
<text text-anchor="middle" x="145.501" y="-73.3" font-family="Times,serif" font-size="14.00">elements:</text>
<polyline fill="none" stroke="black" points="88.522,-66.5 202.481,-66.5 "/>
<text text-anchor="middle" x="145.501" y="-51.3" font-family="Times,serif" font-size="14.00">time per element:</text>
<polyline fill="none" stroke="black" points="88.522,-44.5 202.481,-44.5 "/>
<text text-anchor="middle" x="145.501" y="-29.3" font-family="Times,serif" font-size="14.00">element size:</text>
<polyline fill="none" stroke="black" points="88.522,-22.5 202.481,-22.5 "/>
<text text-anchor="middle" x="145.501" y="-7.3" font-family="Times,serif" font-size="14.00">total size:</text>
<polyline fill="none" stroke="black" points="202.481,-0.5 202.481,-132.5 "/>
<text text-anchor="middle" x="257.14" y="-117.3" font-family="Times,serif" font-size="14.00">write_tiles</text>
<polyline fill="none" stroke="black" points="202.481,-110.5 311.798,-110.5 "/>
<text text-anchor="middle" x="257.14" y="-95.3" font-family="Times,serif" font-size="14.00">(url, string)</text>
<polyline fill="none" stroke="black" points="202.481,-88.5 311.798,-88.5 "/>
<text text-anchor="middle" x="257.14" y="-73.3" font-family="Times,serif" font-size="14.00">1</text>
<polyline fill="none" stroke="black" points="202.481,-66.5 311.798,-66.5 "/>
<text text-anchor="middle" x="257.14" y="-51.3" font-family="Times,serif" font-size="14.00">39.8ms</text>
<polyline fill="none" stroke="black" points="202.481,-44.5 311.798,-44.5 "/>
<text text-anchor="middle" x="257.14" y="-29.3" font-family="Times,serif" font-size="14.00">Mean: 123 bytes</text>
<polyline fill="none" stroke="black" points="202.481,-22.5 311.798,-22.5 "/>
<text text-anchor="middle" x="257.14" y="-7.3" font-family="Times,serif" font-size="14.00">123 bytes</text>
</g>
<!-- 7011854894370766412 -->
<g id="node2" class="node"><title>7011854894370766412</title>
<polygon fill="orange" stroke="black" points="11.1562,-183.5 11.1562,-315.5 389.164,-315.5 389.164,-183.5 11.1562,-183.5"/>
<text text-anchor="middle" x="68.1357" y="-300.3" font-family="Times,serif" font-size="14.00">operation:</text>
<polyline fill="none" stroke="black" points="11.1562,-293.5 125.115,-293.5 "/>
<text text-anchor="middle" x="68.1357" y="-278.3" font-family="Times,serif" font-size="14.00">output type:</text>
<polyline fill="none" stroke="black" points="11.1562,-271.5 125.115,-271.5 "/>
<text text-anchor="middle" x="68.1357" y="-256.3" font-family="Times,serif" font-size="14.00">elements:</text>
<polyline fill="none" stroke="black" points="11.1562,-249.5 125.115,-249.5 "/>
<text text-anchor="middle" x="68.1357" y="-234.3" font-family="Times,serif" font-size="14.00">time per element:</text>
<polyline fill="none" stroke="black" points="11.1562,-227.5 125.115,-227.5 "/>
<text text-anchor="middle" x="68.1357" y="-212.3" font-family="Times,serif" font-size="14.00">element size:</text>
<polyline fill="none" stroke="black" points="11.1562,-205.5 125.115,-205.5 "/>
<text text-anchor="middle" x="68.1357" y="-190.3" font-family="Times,serif" font-size="14.00">total size:</text>
<polyline fill="none" stroke="black" points="125.115,-183.5 125.115,-315.5 "/>
<text text-anchor="middle" x="257.14" y="-300.3" font-family="Times,serif" font-size="14.00">Select Field : img_id</text>
<polyline fill="none" stroke="black" points="125.115,-293.5 389.164,-293.5 "/>
<text text-anchor="middle" x="257.14" y="-278.3" font-family="Times,serif" font-size="14.00">(url, List[(source_tile_position, List[byte])])</text>
<polyline fill="none" stroke="black" points="125.115,-271.5 389.164,-271.5 "/>
<text text-anchor="middle" x="257.14" y="-256.3" font-family="Times,serif" font-size="14.00">1</text>
<polyline fill="none" stroke="black" points="125.115,-249.5 389.164,-249.5 "/>
<text text-anchor="middle" x="257.14" y="-234.3" font-family="Times,serif" font-size="14.00">273.0ns</text>
<polyline fill="none" stroke="black" points="125.115,-227.5 389.164,-227.5 "/>
<text text-anchor="middle" x="257.14" y="-212.3" font-family="Times,serif" font-size="14.00">Mean: 2.6MB</text>
<polyline fill="none" stroke="black" points="125.115,-205.5 389.164,-205.5 "/>
<text text-anchor="middle" x="257.14" y="-190.3" font-family="Times,serif" font-size="14.00">2.6MB</text>
</g>
<!-- 7011854894370766412&#45;&gt;6574463589582703992 -->
<g id="edge16" class="edge"><title>7011854894370766412&#45;&gt;6574463589582703992</title>
<path fill="none" stroke="black" stroke-dasharray="5,2" d="M200.16,-183.411C200.16,-170.246 200.16,-156.301 200.16,-142.819"/>
<polygon fill="black" stroke="black" points="203.66,-142.62 200.16,-132.62 196.66,-142.62 203.66,-142.62"/>
<text text-anchor="middle" x="212.212" y="-153.8" font-family="Times,serif" font-size="14.00">map</text>
</g>
<!-- &#45;955518312511961969 -->
<g id="node3" class="node"><title>&#45;955518312511961969</title>
<polygon fill="lightgreen" stroke="black" points="15.4014,-366.5 15.4014,-498.5 384.919,-498.5 384.919,-366.5 15.4014,-366.5"/>
<text text-anchor="middle" x="72.3809" y="-483.3" font-family="Times,serif" font-size="14.00">operation:</text>
<polyline fill="none" stroke="black" points="15.4014,-476.5 129.36,-476.5 "/>
<text text-anchor="middle" x="72.3809" y="-461.3" font-family="Times,serif" font-size="14.00">output type:</text>
<polyline fill="none" stroke="black" points="15.4014,-454.5 129.36,-454.5 "/>
<text text-anchor="middle" x="72.3809" y="-439.3" font-family="Times,serif" font-size="14.00">elements:</text>
<polyline fill="none" stroke="black" points="15.4014,-432.5 129.36,-432.5 "/>
<text text-anchor="middle" x="72.3809" y="-417.3" font-family="Times,serif" font-size="14.00">time per element:</text>
<polyline fill="none" stroke="black" points="15.4014,-410.5 129.36,-410.5 "/>
<text text-anchor="middle" x="72.3809" y="-395.3" font-family="Times,serif" font-size="14.00">element size:</text>
<polyline fill="none" stroke="black" points="15.4014,-388.5 129.36,-388.5 "/>
<text text-anchor="middle" x="72.3809" y="-373.3" font-family="Times,serif" font-size="14.00">total size:</text>
<polyline fill="none" stroke="black" points="129.36,-366.5 129.36,-498.5 "/>
<text text-anchor="middle" x="257.14" y="-483.3" font-family="Times,serif" font-size="14.00">compress_tile</text>
<polyline fill="none" stroke="black" points="129.36,-476.5 384.919,-476.5 "/>
<text text-anchor="middle" x="257.14" y="-461.3" font-family="Times,serif" font-size="14.00">(source_tile_position, List[byte])</text>
<polyline fill="none" stroke="black" points="129.36,-454.5 384.919,-454.5 "/>
<text text-anchor="middle" x="257.14" y="-439.3" font-family="Times,serif" font-size="14.00">100</text>
<polyline fill="none" stroke="black" points="129.36,-432.5 384.919,-432.5 "/>
<text text-anchor="middle" x="257.14" y="-417.3" font-family="Times,serif" font-size="14.00">2.2s</text>
<polyline fill="none" stroke="black" points="129.36,-410.5 384.919,-410.5 "/>
<text text-anchor="middle" x="257.14" y="-395.3" font-family="Times,serif" font-size="14.00">Min: 17.4kB, Mean: 26.4kB, Max: 27.2kB</text>
<polyline fill="none" stroke="black" points="129.36,-388.5 384.919,-388.5 "/>
<text text-anchor="middle" x="257.14" y="-373.3" font-family="Times,serif" font-size="14.00">2.6MB</text>
</g>
<!-- &#45;955518312511961969&#45;&gt;7011854894370766412 -->
<g id="edge15" class="edge"><title>&#45;955518312511961969&#45;&gt;7011854894370766412</title>
<path fill="none" stroke="black" stroke-dasharray="5,2" d="M200.16,-366.411C200.16,-353.246 200.16,-339.301 200.16,-325.819"/>
<polygon fill="black" stroke="black" points="203.66,-325.62 200.16,-315.62 196.66,-325.62 203.66,-325.62"/>
<text text-anchor="middle" x="224.66" y="-336.8" font-family="Times,serif" font-size="14.00">groupBy</text>
</g>
<!-- 3609038575567494980 -->
<g id="node4" class="node"><title>3609038575567494980</title>
<polygon fill="lightgreen" stroke="black" points="0.659668,-549.5 0.659668,-681.5 399.661,-681.5 399.661,-549.5 0.659668,-549.5"/>
<text text-anchor="middle" x="57.6392" y="-666.3" font-family="Times,serif" font-size="14.00">operation:</text>
<polyline fill="none" stroke="black" points="0.659668,-659.5 114.619,-659.5 "/>
<text text-anchor="middle" x="57.6392" y="-644.3" font-family="Times,serif" font-size="14.00">output type:</text>
<polyline fill="none" stroke="black" points="0.659668,-637.5 114.619,-637.5 "/>
<text text-anchor="middle" x="57.6392" y="-622.3" font-family="Times,serif" font-size="14.00">elements:</text>
<polyline fill="none" stroke="black" points="0.659668,-615.5 114.619,-615.5 "/>
<text text-anchor="middle" x="57.6392" y="-600.3" font-family="Times,serif" font-size="14.00">time per element:</text>
<polyline fill="none" stroke="black" points="0.659668,-593.5 114.619,-593.5 "/>
<text text-anchor="middle" x="57.6392" y="-578.3" font-family="Times,serif" font-size="14.00">element size:</text>
<polyline fill="none" stroke="black" points="0.659668,-571.5 114.619,-571.5 "/>
<text text-anchor="middle" x="57.6392" y="-556.3" font-family="Times,serif" font-size="14.00">total size:</text>
<polyline fill="none" stroke="black" points="114.619,-549.5 114.619,-681.5 "/>
<text text-anchor="middle" x="257.14" y="-666.3" font-family="Times,serif" font-size="14.00">ti_full_reconstruction</text>
<polyline fill="none" stroke="black" points="114.619,-659.5 399.661,-659.5 "/>
<text text-anchor="middle" x="257.14" y="-644.3" font-family="Times,serif" font-size="14.00">(source_tile_position, ndarray[int64](120, 120))</text>
<polyline fill="none" stroke="black" points="114.619,-637.5 399.661,-637.5 "/>
<text text-anchor="middle" x="257.14" y="-622.3" font-family="Times,serif" font-size="14.00">100</text>
<polyline fill="none" stroke="black" points="114.619,-615.5 399.661,-615.5 "/>
<text text-anchor="middle" x="257.14" y="-600.3" font-family="Times,serif" font-size="14.00">122.9ms</text>
<polyline fill="none" stroke="black" points="114.619,-593.5 399.661,-593.5 "/>
<text text-anchor="middle" x="257.14" y="-578.3" font-family="Times,serif" font-size="14.00">Mean: 115.5kB</text>
<polyline fill="none" stroke="black" points="114.619,-571.5 399.661,-571.5 "/>
<text text-anchor="middle" x="257.14" y="-556.3" font-family="Times,serif" font-size="14.00">11.6MB</text>
</g>
<!-- 3609038575567494980&#45;&gt;&#45;955518312511961969 -->
<g id="edge14" class="edge"><title>3609038575567494980&#45;&gt;&#45;955518312511961969</title>
<path fill="none" stroke="black" stroke-dasharray="5,2" d="M200.16,-549.411C200.16,-536.246 200.16,-522.301 200.16,-508.819"/>
<polygon fill="black" stroke="black" points="203.66,-508.62 200.16,-498.62 196.66,-508.62 203.66,-508.62"/>
<text text-anchor="middle" x="230.874" y="-519.8" font-family="Times,serif" font-size="14.00">mapValues</text>
</g>
<!-- &#45;5750685597550896886 -->
<g id="node5" class="node"><title>&#45;5750685597550896886</title>
<polygon fill="orange" stroke="black" points="8.40137,-732.5 8.40137,-864.5 391.919,-864.5 391.919,-732.5 8.40137,-732.5"/>
<text text-anchor="middle" x="65.3809" y="-849.3" font-family="Times,serif" font-size="14.00">operation:</text>
<polyline fill="none" stroke="black" points="8.40137,-842.5 122.36,-842.5 "/>
<text text-anchor="middle" x="65.3809" y="-827.3" font-family="Times,serif" font-size="14.00">output type:</text>
<polyline fill="none" stroke="black" points="8.40137,-820.5 122.36,-820.5 "/>
<text text-anchor="middle" x="65.3809" y="-805.3" font-family="Times,serif" font-size="14.00">elements:</text>
<polyline fill="none" stroke="black" points="8.40137,-798.5 122.36,-798.5 "/>
<text text-anchor="middle" x="65.3809" y="-783.3" font-family="Times,serif" font-size="14.00">time per element:</text>
<polyline fill="none" stroke="black" points="8.40137,-776.5 122.36,-776.5 "/>
<text text-anchor="middle" x="65.3809" y="-761.3" font-family="Times,serif" font-size="14.00">element size:</text>
<polyline fill="none" stroke="black" points="8.40137,-754.5 122.36,-754.5 "/>
<text text-anchor="middle" x="65.3809" y="-739.3" font-family="Times,serif" font-size="14.00">total size:</text>
<polyline fill="none" stroke="black" points="122.36,-732.5 122.36,-864.5 "/>
<text text-anchor="middle" x="257.14" y="-849.3" font-family="Times,serif" font-size="14.00">Select Field: target_tile_id</text>
<polyline fill="none" stroke="black" points="122.36,-842.5 391.919,-842.5 "/>
<text text-anchor="middle" x="257.14" y="-827.3" font-family="Times,serif" font-size="14.00">(source_tile_position, List[tile_data])</text>
<polyline fill="none" stroke="black" points="122.36,-820.5 391.919,-820.5 "/>
<text text-anchor="middle" x="257.14" y="-805.3" font-family="Times,serif" font-size="14.00">100</text>
<polyline fill="none" stroke="black" points="122.36,-798.5 391.919,-798.5 "/>
<text text-anchor="middle" x="257.14" y="-783.3" font-family="Times,serif" font-size="14.00">8.3ms</text>
<polyline fill="none" stroke="black" points="122.36,-776.5 391.919,-776.5 "/>
<text text-anchor="middle" x="257.14" y="-761.3" font-family="Times,serif" font-size="14.00">Min: 14.9kB, Mean: 106.1kB, Max: 130.9kB</text>
<polyline fill="none" stroke="black" points="122.36,-754.5 391.919,-754.5 "/>
<text text-anchor="middle" x="257.14" y="-739.3" font-family="Times,serif" font-size="14.00">10.6MB</text>
</g>
<!-- &#45;5750685597550896886&#45;&gt;3609038575567494980 -->
<g id="edge13" class="edge"><title>&#45;5750685597550896886&#45;&gt;3609038575567494980</title>
<path fill="none" stroke="black" stroke-dasharray="5,2" d="M200.16,-732.411C200.16,-719.246 200.16,-705.301 200.16,-691.819"/>
<polygon fill="black" stroke="black" points="203.66,-691.62 200.16,-681.62 196.66,-691.62 203.66,-691.62"/>
<text text-anchor="middle" x="212.212" y="-702.8" font-family="Times,serif" font-size="14.00">map</text>
</g>
<!-- 3043453144814791876 -->
<g id="node6" class="node"><title>3043453144814791876</title>
<polygon fill="yellow" stroke="black" points="95.1289,-915.5 95.1289,-1047.5 305.191,-1047.5 305.191,-915.5 95.1289,-915.5"/>
<text text-anchor="middle" x="152.108" y="-1032.3" font-family="Times,serif" font-size="14.00">operation:</text>
<polyline fill="none" stroke="black" points="95.1289,-1025.5 209.088,-1025.5 "/>
<text text-anchor="middle" x="152.108" y="-1010.3" font-family="Times,serif" font-size="14.00">output type:</text>
<polyline fill="none" stroke="black" points="95.1289,-1003.5 209.088,-1003.5 "/>
<text text-anchor="middle" x="152.108" y="-988.3" font-family="Times,serif" font-size="14.00">elements:</text>
<polyline fill="none" stroke="black" points="95.1289,-981.5 209.088,-981.5 "/>
<text text-anchor="middle" x="152.108" y="-966.3" font-family="Times,serif" font-size="14.00">time per element:</text>
<polyline fill="none" stroke="black" points="95.1289,-959.5 209.088,-959.5 "/>
<text text-anchor="middle" x="152.108" y="-944.3" font-family="Times,serif" font-size="14.00">element size:</text>
<polyline fill="none" stroke="black" points="95.1289,-937.5 209.088,-937.5 "/>
<text text-anchor="middle" x="152.108" y="-922.3" font-family="Times,serif" font-size="14.00">total size:</text>
<polyline fill="none" stroke="black" points="209.088,-915.5 209.088,-1047.5 "/>
<text text-anchor="middle" x="257.14" y="-1032.3" font-family="Times,serif" font-size="14.00">grp_tile_read</text>
<polyline fill="none" stroke="black" points="209.088,-1025.5 305.191,-1025.5 "/>
<text text-anchor="middle" x="257.14" y="-1010.3" font-family="Times,serif" font-size="14.00">tile_data</text>
<polyline fill="none" stroke="black" points="209.088,-1003.5 305.191,-1003.5 "/>
<text text-anchor="middle" x="257.14" y="-988.3" font-family="Times,serif" font-size="14.00">729</text>
<polyline fill="none" stroke="black" points="209.088,-981.5 305.191,-981.5 "/>
<text text-anchor="middle" x="257.14" y="-966.3" font-family="Times,serif" font-size="14.00">26.2ms</text>
<polyline fill="none" stroke="black" points="209.088,-959.5 305.191,-959.5 "/>
<text text-anchor="middle" x="257.14" y="-944.3" font-family="Times,serif" font-size="14.00">Mean: 14.9kB</text>
<polyline fill="none" stroke="black" points="209.088,-937.5 305.191,-937.5 "/>
<text text-anchor="middle" x="257.14" y="-922.3" font-family="Times,serif" font-size="14.00">10.9MB</text>
</g>
<!-- 3043453144814791876&#45;&gt;&#45;5750685597550896886 -->
<g id="edge12" class="edge"><title>3043453144814791876&#45;&gt;&#45;5750685597550896886</title>
<path fill="none" stroke="black" stroke-dasharray="5,2" d="M200.16,-915.411C200.16,-902.246 200.16,-888.301 200.16,-874.819"/>
<polygon fill="black" stroke="black" points="203.66,-874.62 200.16,-864.62 196.66,-874.62 203.66,-874.62"/>
<text text-anchor="middle" x="224.66" y="-885.8" font-family="Times,serif" font-size="14.00">groupBy</text>
</g>
<!-- &#45;1389612171113228842 -->
<g id="node7" class="node"><title>&#45;1389612171113228842</title>
<polygon fill="orange" stroke="black" points="15.7944,-1098.5 15.7944,-1230.5 384.526,-1230.5 384.526,-1098.5 15.7944,-1098.5"/>
<text text-anchor="middle" x="72.7739" y="-1215.3" font-family="Times,serif" font-size="14.00">operation:</text>
<polyline fill="none" stroke="black" points="15.7944,-1208.5 129.753,-1208.5 "/>
<text text-anchor="middle" x="72.7739" y="-1193.3" font-family="Times,serif" font-size="14.00">output type:</text>
<polyline fill="none" stroke="black" points="15.7944,-1186.5 129.753,-1186.5 "/>
<text text-anchor="middle" x="72.7739" y="-1171.3" font-family="Times,serif" font-size="14.00">elements:</text>
<polyline fill="none" stroke="black" points="15.7944,-1164.5 129.753,-1164.5 "/>
<text text-anchor="middle" x="72.7739" y="-1149.3" font-family="Times,serif" font-size="14.00">time per element:</text>
<polyline fill="none" stroke="black" points="15.7944,-1142.5 129.753,-1142.5 "/>
<text text-anchor="middle" x="72.7739" y="-1127.3" font-family="Times,serif" font-size="14.00">element size:</text>
<polyline fill="none" stroke="black" points="15.7944,-1120.5 129.753,-1120.5 "/>
<text text-anchor="middle" x="72.7739" y="-1105.3" font-family="Times,serif" font-size="14.00">total size:</text>
<polyline fill="none" stroke="black" points="129.753,-1098.5 129.753,-1230.5 "/>
<text text-anchor="middle" x="257.14" y="-1215.3" font-family="Times,serif" font-size="14.00">Select Field: source_tile_id</text>
<polyline fill="none" stroke="black" points="129.753,-1208.5 384.526,-1208.5 "/>
<text text-anchor="middle" x="257.14" y="-1193.3" font-family="Times,serif" font-size="14.00">(target_tile_position, List[tile_data])</text>
<polyline fill="none" stroke="black" points="129.753,-1186.5 384.526,-1186.5 "/>
<text text-anchor="middle" x="257.14" y="-1171.3" font-family="Times,serif" font-size="14.00">100</text>
<polyline fill="none" stroke="black" points="129.753,-1164.5 384.526,-1164.5 "/>
<text text-anchor="middle" x="257.14" y="-1149.3" font-family="Times,serif" font-size="14.00">5.3ms</text>
<polyline fill="none" stroke="black" points="129.753,-1142.5 384.526,-1142.5 "/>
<text text-anchor="middle" x="257.14" y="-1127.3" font-family="Times,serif" font-size="14.00">Min: 370 bytes, Mean: 1.1kB, Max: 1.3kB</text>
<polyline fill="none" stroke="black" points="129.753,-1120.5 384.526,-1120.5 "/>
<text text-anchor="middle" x="257.14" y="-1105.3" font-family="Times,serif" font-size="14.00">114.1kB</text>
</g>
<!-- &#45;1389612171113228842&#45;&gt;3043453144814791876 -->
<g id="edge9" class="edge"><title>&#45;1389612171113228842&#45;&gt;3043453144814791876</title>
<path fill="none" stroke="black" stroke-dasharray="5,2" d="M142.068,-1098.45C138.711,-1092.48 135.812,-1086.3 133.608,-1080 130.957,-1072.42 130.677,-1064.87 132.104,-1057.53"/>
<polygon fill="black" stroke="black" points="135.543,-1058.25 135.046,-1047.66 128.835,-1056.25 135.543,-1058.25"/>
<text text-anchor="middle" x="155.936" y="-1068.8" font-family="Times,serif" font-size="14.00">flatMap</text>
</g>
<!-- &#45;1389612171113228842&#45;&gt;3043453144814791876 -->
<g id="edge10" class="edge"><title>&#45;1389612171113228842&#45;&gt;3043453144814791876</title>
<path fill="none" stroke="black" stroke-dasharray="5,2" d="M193.652,-1098.41C193.395,-1085.25 193.343,-1071.3 193.495,-1057.82"/>
<polygon fill="black" stroke="black" points="196.998,-1057.67 193.652,-1047.62 189.999,-1057.56 196.998,-1057.67"/>
</g>
<!-- &#45;1389612171113228842&#45;&gt;3043453144814791876 -->
<g id="edge11" class="edge"><title>&#45;1389612171113228842&#45;&gt;3043453144814791876</title>
<path fill="none" stroke="black" stroke-dasharray="5,2" d="M206.668,-1098.41C206.925,-1085.25 206.978,-1071.3 206.825,-1057.82"/>
<polygon fill="black" stroke="black" points="210.322,-1057.56 206.668,-1047.62 203.322,-1057.67 210.322,-1057.56"/>
</g>
<!-- &#45;6686244719665985967 -->
<g id="node8" class="node"><title>&#45;6686244719665985967</title>
<polygon fill="lightgreen" stroke="black" points="83.436,-1281.5 83.436,-1413.5 316.884,-1413.5 316.884,-1281.5 83.436,-1281.5"/>
<text text-anchor="middle" x="140.416" y="-1398.3" font-family="Times,serif" font-size="14.00">operation:</text>
<polyline fill="none" stroke="black" points="83.436,-1391.5 197.395,-1391.5 "/>
<text text-anchor="middle" x="140.416" y="-1376.3" font-family="Times,serif" font-size="14.00">output type:</text>
<polyline fill="none" stroke="black" points="83.436,-1369.5 197.395,-1369.5 "/>
<text text-anchor="middle" x="140.416" y="-1354.3" font-family="Times,serif" font-size="14.00">elements:</text>
<polyline fill="none" stroke="black" points="83.436,-1347.5 197.395,-1347.5 "/>
<text text-anchor="middle" x="140.416" y="-1332.3" font-family="Times,serif" font-size="14.00">time per element:</text>
<polyline fill="none" stroke="black" points="83.436,-1325.5 197.395,-1325.5 "/>
<text text-anchor="middle" x="140.416" y="-1310.3" font-family="Times,serif" font-size="14.00">element size:</text>
<polyline fill="none" stroke="black" points="83.436,-1303.5 197.395,-1303.5 "/>
<text text-anchor="middle" x="140.416" y="-1288.3" font-family="Times,serif" font-size="14.00">total size:</text>
<polyline fill="none" stroke="black" points="197.395,-1281.5 197.395,-1413.5 "/>
<text text-anchor="middle" x="257.14" y="-1398.3" font-family="Times,serif" font-size="14.00">Shuffle Tile Fields</text>
<polyline fill="none" stroke="black" points="197.395,-1391.5 316.884,-1391.5 "/>
<text text-anchor="middle" x="257.14" y="-1376.3" font-family="Times,serif" font-size="14.00">tile_data</text>
<polyline fill="none" stroke="black" points="197.395,-1369.5 316.884,-1369.5 "/>
<text text-anchor="middle" x="257.14" y="-1354.3" font-family="Times,serif" font-size="14.00">729</text>
<polyline fill="none" stroke="black" points="197.395,-1347.5 316.884,-1347.5 "/>
<text text-anchor="middle" x="257.14" y="-1332.3" font-family="Times,serif" font-size="14.00">2.0ms</text>
<polyline fill="none" stroke="black" points="197.395,-1325.5 316.884,-1325.5 "/>
<text text-anchor="middle" x="257.14" y="-1310.3" font-family="Times,serif" font-size="14.00">Mean: 361 bytes</text>
<polyline fill="none" stroke="black" points="197.395,-1303.5 316.884,-1303.5 "/>
<text text-anchor="middle" x="257.14" y="-1288.3" font-family="Times,serif" font-size="14.00">263.2kB</text>
</g>
<!-- &#45;6686244719665985967&#45;&gt;&#45;1389612171113228842 -->
<g id="edge8" class="edge"><title>&#45;6686244719665985967&#45;&gt;&#45;1389612171113228842</title>
<path fill="none" stroke="black" stroke-dasharray="5,2" d="M200.16,-1281.41C200.16,-1268.25 200.16,-1254.3 200.16,-1240.82"/>
<polygon fill="black" stroke="black" points="203.66,-1240.62 200.16,-1230.62 196.66,-1240.62 203.66,-1240.62"/>
<text text-anchor="middle" x="224.66" y="-1251.8" font-family="Times,serif" font-size="14.00">groupBy</text>
</g>
<!-- 8960018319913651976 -->
<g id="node9" class="node"><title>8960018319913651976</title>
<polygon fill="yellow" stroke="black" points="0,-1464.5 0,-1596.5 400.32,-1596.5 400.32,-1464.5 0,-1464.5"/>
<text text-anchor="middle" x="56.9795" y="-1581.3" font-family="Times,serif" font-size="14.00">operation:</text>
<polyline fill="none" stroke="black" points="0,-1574.5 113.959,-1574.5 "/>
<text text-anchor="middle" x="56.9795" y="-1559.3" font-family="Times,serif" font-size="14.00">output type:</text>
<polyline fill="none" stroke="black" points="0,-1552.5 113.959,-1552.5 "/>
<text text-anchor="middle" x="56.9795" y="-1537.3" font-family="Times,serif" font-size="14.00">elements:</text>
<polyline fill="none" stroke="black" points="0,-1530.5 113.959,-1530.5 "/>
<text text-anchor="middle" x="56.9795" y="-1515.3" font-family="Times,serif" font-size="14.00">time per element:</text>
<polyline fill="none" stroke="black" points="0,-1508.5 113.959,-1508.5 "/>
<text text-anchor="middle" x="56.9795" y="-1493.3" font-family="Times,serif" font-size="14.00">element size:</text>
<polyline fill="none" stroke="black" points="0,-1486.5 113.959,-1486.5 "/>
<text text-anchor="middle" x="56.9795" y="-1471.3" font-family="Times,serif" font-size="14.00">total size:</text>
<polyline fill="none" stroke="black" points="113.959,-1464.5 113.959,-1596.5 "/>
<text text-anchor="middle" x="257.14" y="-1581.3" font-family="Times,serif" font-size="14.00">calc_input_tiles</text>
<polyline fill="none" stroke="black" points="113.959,-1574.5 400.32,-1574.5 "/>
<text text-anchor="middle" x="257.14" y="-1559.3" font-family="Times,serif" font-size="14.00">(url, (source_tile_position, target_tile_position))</text>
<polyline fill="none" stroke="black" points="113.959,-1552.5 400.32,-1552.5 "/>
<text text-anchor="middle" x="257.14" y="-1537.3" font-family="Times,serif" font-size="14.00">729</text>
<polyline fill="none" stroke="black" points="113.959,-1530.5 400.32,-1530.5 "/>
<text text-anchor="middle" x="257.14" y="-1515.3" font-family="Times,serif" font-size="14.00">6.6ms</text>
<polyline fill="none" stroke="black" points="113.959,-1508.5 400.32,-1508.5 "/>
<text text-anchor="middle" x="257.14" y="-1493.3" font-family="Times,serif" font-size="14.00">Mean: 336 bytes</text>
<polyline fill="none" stroke="black" points="113.959,-1486.5 400.32,-1486.5 "/>
<text text-anchor="middle" x="257.14" y="-1471.3" font-family="Times,serif" font-size="14.00">244.9kB</text>
</g>
<!-- 8960018319913651976&#45;&gt;&#45;6686244719665985967 -->
<g id="edge7" class="edge"><title>8960018319913651976&#45;&gt;&#45;6686244719665985967</title>
<path fill="none" stroke="black" stroke-dasharray="5,2" d="M200.16,-1464.41C200.16,-1451.25 200.16,-1437.3 200.16,-1423.82"/>
<polygon fill="black" stroke="black" points="203.66,-1423.62 200.16,-1413.62 196.66,-1423.62 203.66,-1423.62"/>
<text text-anchor="middle" x="212.212" y="-1434.8" font-family="Times,serif" font-size="14.00">map</text>
</g>
<!-- 3283179921401384007 -->
<g id="node10" class="node"><title>3283179921401384007</title>
<polygon fill="yellow" stroke="black" points="62.4736,-1647.5 62.4736,-1779.5 337.847,-1779.5 337.847,-1647.5 62.4736,-1647.5"/>
<text text-anchor="middle" x="119.453" y="-1764.3" font-family="Times,serif" font-size="14.00">operation:</text>
<polyline fill="none" stroke="black" points="62.4736,-1757.5 176.433,-1757.5 "/>
<text text-anchor="middle" x="119.453" y="-1742.3" font-family="Times,serif" font-size="14.00">output type:</text>
<polyline fill="none" stroke="black" points="62.4736,-1735.5 176.433,-1735.5 "/>
<text text-anchor="middle" x="119.453" y="-1720.3" font-family="Times,serif" font-size="14.00">elements:</text>
<polyline fill="none" stroke="black" points="62.4736,-1713.5 176.433,-1713.5 "/>
<text text-anchor="middle" x="119.453" y="-1698.3" font-family="Times,serif" font-size="14.00">time per element:</text>
<polyline fill="none" stroke="black" points="62.4736,-1691.5 176.433,-1691.5 "/>
<text text-anchor="middle" x="119.453" y="-1676.3" font-family="Times,serif" font-size="14.00">element size:</text>
<polyline fill="none" stroke="black" points="62.4736,-1669.5 176.433,-1669.5 "/>
<text text-anchor="middle" x="119.453" y="-1654.3" font-family="Times,serif" font-size="14.00">total size:</text>
<polyline fill="none" stroke="black" points="176.433,-1647.5 176.433,-1779.5 "/>
<text text-anchor="middle" x="257.14" y="-1764.3" font-family="Times,serif" font-size="14.00">get_output_tiles</text>
<polyline fill="none" stroke="black" points="176.433,-1757.5 337.847,-1757.5 "/>
<text text-anchor="middle" x="257.14" y="-1742.3" font-family="Times,serif" font-size="14.00">(url, source_tile_position)</text>
<polyline fill="none" stroke="black" points="176.433,-1735.5 337.847,-1735.5 "/>
<text text-anchor="middle" x="257.14" y="-1720.3" font-family="Times,serif" font-size="14.00">100</text>
<polyline fill="none" stroke="black" points="176.433,-1713.5 337.847,-1713.5 "/>
<text text-anchor="middle" x="257.14" y="-1698.3" font-family="Times,serif" font-size="14.00">240.1ns</text>
<polyline fill="none" stroke="black" points="176.433,-1691.5 337.847,-1691.5 "/>
<text text-anchor="middle" x="257.14" y="-1676.3" font-family="Times,serif" font-size="14.00">Mean: 233 bytes</text>
<polyline fill="none" stroke="black" points="176.433,-1669.5 337.847,-1669.5 "/>
<text text-anchor="middle" x="257.14" y="-1654.3" font-family="Times,serif" font-size="14.00">23.3kB</text>
</g>
<!-- 3283179921401384007&#45;&gt;8960018319913651976 -->
<g id="edge4" class="edge"><title>3283179921401384007&#45;&gt;8960018319913651976</title>
<path fill="none" stroke="black" stroke-dasharray="5,2" d="M107.668,-1647.37C103.256,-1641.59 99.3838,-1635.47 96.2842,-1629 92.4999,-1621.1 91.7493,-1613.52 93.2658,-1606.33"/>
<polygon fill="black" stroke="black" points="96.6159,-1607.35 96.6668,-1596.76 90.02,-1605.01 96.6159,-1607.35"/>
<text text-anchor="middle" x="137.598" y="-1617.8" font-family="Times,serif" font-size="14.00">flatMapValues</text>
</g>
<!-- 3283179921401384007&#45;&gt;8960018319913651976 -->
<g id="edge5" class="edge"><title>3283179921401384007&#45;&gt;8960018319913651976</title>
<path fill="none" stroke="black" stroke-dasharray="5,2" d="M193.652,-1647.41C193.395,-1634.25 193.343,-1620.3 193.495,-1606.82"/>
<polygon fill="black" stroke="black" points="196.998,-1606.67 193.652,-1596.62 189.999,-1606.56 196.998,-1606.67"/>
</g>
<!-- 3283179921401384007&#45;&gt;8960018319913651976 -->
<g id="edge6" class="edge"><title>3283179921401384007&#45;&gt;8960018319913651976</title>
<path fill="none" stroke="black" stroke-dasharray="5,2" d="M206.668,-1647.41C206.925,-1634.25 206.978,-1620.3 206.825,-1606.82"/>
<polygon fill="black" stroke="black" points="210.322,-1606.56 206.668,-1596.62 203.322,-1606.67 210.322,-1606.56"/>
</g>
<!-- &#45;1577528891301281453 -->
<g id="node11" class="node"><title>&#45;1577528891301281453</title>
<polygon fill="turquoise" stroke="black" points="78.8081,-1830.5 78.8081,-1962.5 321.512,-1962.5 321.512,-1830.5 78.8081,-1830.5"/>
<text text-anchor="middle" x="135.788" y="-1947.3" font-family="Times,serif" font-size="14.00">operation:</text>
<polyline fill="none" stroke="black" points="78.8081,-1940.5 192.767,-1940.5 "/>
<text text-anchor="middle" x="135.788" y="-1925.3" font-family="Times,serif" font-size="14.00">output type:</text>
<polyline fill="none" stroke="black" points="78.8081,-1918.5 192.767,-1918.5 "/>
<text text-anchor="middle" x="135.788" y="-1903.3" font-family="Times,serif" font-size="14.00">elements:</text>
<polyline fill="none" stroke="black" points="78.8081,-1896.5 192.767,-1896.5 "/>
<text text-anchor="middle" x="135.788" y="-1881.3" font-family="Times,serif" font-size="14.00">time per element:</text>
<polyline fill="none" stroke="black" points="78.8081,-1874.5 192.767,-1874.5 "/>
<text text-anchor="middle" x="135.788" y="-1859.3" font-family="Times,serif" font-size="14.00">element size:</text>
<polyline fill="none" stroke="black" points="78.8081,-1852.5 192.767,-1852.5 "/>
<text text-anchor="middle" x="135.788" y="-1837.3" font-family="Times,serif" font-size="14.00">total size:</text>
<polyline fill="none" stroke="black" points="192.767,-1830.5 192.767,-1962.5 "/>
<text text-anchor="middle" x="257.14" y="-1947.3" font-family="Times,serif" font-size="14.00">parallelize : Custom</text>
<polyline fill="none" stroke="black" points="192.767,-1940.5 321.512,-1940.5 "/>
<text text-anchor="middle" x="257.14" y="-1925.3" font-family="Times,serif" font-size="14.00">url</text>
<polyline fill="none" stroke="black" points="192.767,-1918.5 321.512,-1918.5 "/>
<text text-anchor="middle" x="257.14" y="-1903.3" font-family="Times,serif" font-size="14.00">1</text>
<polyline fill="none" stroke="black" points="192.767,-1896.5 321.512,-1896.5 "/>
<text text-anchor="middle" x="257.14" y="-1881.3" font-family="Times,serif" font-size="14.00">2.1ns</text>
<polyline fill="none" stroke="black" points="192.767,-1874.5 321.512,-1874.5 "/>
<text text-anchor="middle" x="257.14" y="-1859.3" font-family="Times,serif" font-size="14.00">Mean: 37 bytes</text>
<polyline fill="none" stroke="black" points="192.767,-1852.5 321.512,-1852.5 "/>
<text text-anchor="middle" x="257.14" y="-1837.3" font-family="Times,serif" font-size="14.00">37 bytes</text>
</g>
<!-- &#45;1577528891301281453&#45;&gt;3283179921401384007 -->
<g id="edge1" class="edge"><title>&#45;1577528891301281453&#45;&gt;3283179921401384007</title>
<path fill="none" stroke="black" stroke-dasharray="5,2" d="M135.046,-1830.34C130.912,-1819.98 129.752,-1809.03 133.608,-1798 134.71,-1794.85 135.986,-1791.73 137.406,-1788.65"/>
<polygon fill="black" stroke="black" points="140.623,-1790.05 142.068,-1779.55 134.393,-1786.86 140.623,-1790.05"/>
<text text-anchor="middle" x="155.936" y="-1800.8" font-family="Times,serif" font-size="14.00">flatMap</text>
</g>
<!-- &#45;1577528891301281453&#45;&gt;3283179921401384007 -->
<g id="edge2" class="edge"><title>&#45;1577528891301281453&#45;&gt;3283179921401384007</title>
<path fill="none" stroke="black" stroke-dasharray="5,2" d="M193.652,-1830.41C193.395,-1817.25 193.343,-1803.3 193.495,-1789.82"/>
<polygon fill="black" stroke="black" points="196.998,-1789.67 193.652,-1779.62 189.999,-1789.56 196.998,-1789.67"/>
</g>
<!-- &#45;1577528891301281453&#45;&gt;3283179921401384007 -->
<g id="edge3" class="edge"><title>&#45;1577528891301281453&#45;&gt;3283179921401384007</title>
<path fill="none" stroke="black" stroke-dasharray="5,2" d="M206.668,-1830.41C206.925,-1817.25 206.978,-1803.3 206.825,-1789.82"/>
<polygon fill="black" stroke="black" points="210.322,-1789.56 206.668,-1779.62 203.322,-1789.67 210.322,-1789.56"/>
</g>
</g>
</svg>
