<?xml version="1.0" encoding="UTF-8" standalone="no"?>
<!DOCTYPE svg PUBLIC "-//W3C//DTD SVG 1.1//EN"
 "http://www.w3.org/Graphics/SVG/1.1/DTD/svg11.dtd">
<!-- Generated by graphviz version 2.38.0 (20140413.2041)
 -->
<!-- Title: G Pages: 1 -->
<svg width="434pt" height="1971pt"
 viewBox="0.00 0.00 434.22 1971.00" xmlns="http://www.w3.org/2000/svg" xmlns:xlink="http://www.w3.org/1999/xlink">
<g id="graph0" class="graph" transform="scale(1 1) rotate(0) translate(4 1967)">
<title>G</title>
<polygon fill="white" stroke="#000000" points="-4,4 -4,-1967 430.222,-1967 430.222,4 -4,4"/>
<!-- &#45;8191387760601713551 -->
<g id="node1" class="node"><title>&#45;8191387760601713551</title>
<polygon fill="none" stroke="black" points="0,-0.5 0,-132.5 426.222,-132.5 426.222,-0.5 0,-0.5"/>
<text text-anchor="middle" x="56.9795" y="-117.3" font-family="Times,serif" font-size="14.00">operation:</text>
<polyline fill="none" stroke="black" points="0,-110.5 113.959,-110.5 "/>
<text text-anchor="middle" x="56.9795" y="-95.3" font-family="Times,serif" font-size="14.00">output type:</text>
<polyline fill="none" stroke="black" points="0,-88.5 113.959,-88.5 "/>
<text text-anchor="middle" x="56.9795" y="-73.3" font-family="Times,serif" font-size="14.00">elements:</text>
<polyline fill="none" stroke="black" points="0,-66.5 113.959,-66.5 "/>
<text text-anchor="middle" x="56.9795" y="-51.3" font-family="Times,serif" font-size="14.00">time per element:</text>
<polyline fill="none" stroke="black" points="0,-44.5 113.959,-44.5 "/>
<text text-anchor="middle" x="56.9795" y="-29.3" font-family="Times,serif" font-size="14.00">element size:</text>
<polyline fill="none" stroke="black" points="0,-22.5 113.959,-22.5 "/>
<text text-anchor="middle" x="56.9795" y="-7.3" font-family="Times,serif" font-size="14.00">total size:</text>
<polyline fill="none" stroke="black" points="113.959,-0.5 113.959,-132.5 "/>
<text text-anchor="middle" x="270.09" y="-117.3" font-family="Times,serif" font-size="14.00">SaveFileShard</text>
<polyline fill="none" stroke="black" points="113.959,-110.5 426.222,-110.5 "/>
<text text-anchor="middle" x="270.09" y="-95.3" font-family="Times,serif" font-size="14.00">((url, List[(source_tile_position, List[byte])]), string)</text>
<polyline fill="none" stroke="black" points="113.959,-88.5 426.222,-88.5 "/>
<text text-anchor="middle" x="270.09" y="-73.3" font-family="Times,serif" font-size="14.00">1</text>
<polyline fill="none" stroke="black" points="113.959,-66.5 426.222,-66.5 "/>
<text text-anchor="middle" x="270.09" y="-51.3" font-family="Times,serif" font-size="14.00">3.8ns</text>
<polyline fill="none" stroke="black" points="113.959,-44.5 426.222,-44.5 "/>
<text text-anchor="middle" x="270.09" y="-29.3" font-family="Times,serif" font-size="14.00">Mean: 2.6MB</text>
<polyline fill="none" stroke="black" points="113.959,-22.5 426.222,-22.5 "/>
<text text-anchor="middle" x="270.09" y="-7.3" font-family="Times,serif" font-size="14.00">2.6MB</text>
</g>
<!-- 5891534637186502961 -->
<g id="node2" class="node"><title>5891534637186502961</title>
<polygon fill="orange" stroke="black" points="24.1069,-183.5 24.1069,-315.5 402.115,-315.5 402.115,-183.5 24.1069,-183.5"/>
<text text-anchor="middle" x="81.0864" y="-300.3" font-family="Times,serif" font-size="14.00">operation:</text>
<polyline fill="none" stroke="black" points="24.1069,-293.5 138.066,-293.5 "/>
<text text-anchor="middle" x="81.0864" y="-278.3" font-family="Times,serif" font-size="14.00">output type:</text>
<polyline fill="none" stroke="black" points="24.1069,-271.5 138.066,-271.5 "/>
<text text-anchor="middle" x="81.0864" y="-256.3" font-family="Times,serif" font-size="14.00">elements:</text>
<polyline fill="none" stroke="black" points="24.1069,-249.5 138.066,-249.5 "/>
<text text-anchor="middle" x="81.0864" y="-234.3" font-family="Times,serif" font-size="14.00">time per element:</text>
<polyline fill="none" stroke="black" points="24.1069,-227.5 138.066,-227.5 "/>
<text text-anchor="middle" x="81.0864" y="-212.3" font-family="Times,serif" font-size="14.00">element size:</text>
<polyline fill="none" stroke="black" points="24.1069,-205.5 138.066,-205.5 "/>
<text text-anchor="middle" x="81.0864" y="-190.3" font-family="Times,serif" font-size="14.00">total size:</text>
<polyline fill="none" stroke="black" points="138.066,-183.5 138.066,-315.5 "/>
<text text-anchor="middle" x="270.09" y="-300.3" font-family="Times,serif" font-size="14.00">Select Field : img_id</text>
<polyline fill="none" stroke="black" points="138.066,-293.5 402.115,-293.5 "/>
<text text-anchor="middle" x="270.09" y="-278.3" font-family="Times,serif" font-size="14.00">(url, List[(source_tile_position, List[byte])])</text>
<polyline fill="none" stroke="black" points="138.066,-271.5 402.115,-271.5 "/>
<text text-anchor="middle" x="270.09" y="-256.3" font-family="Times,serif" font-size="14.00">1</text>
<polyline fill="none" stroke="black" points="138.066,-249.5 402.115,-249.5 "/>
<text text-anchor="middle" x="270.09" y="-234.3" font-family="Times,serif" font-size="14.00">206.0ns</text>
<polyline fill="none" stroke="black" points="138.066,-227.5 402.115,-227.5 "/>
<text text-anchor="middle" x="270.09" y="-212.3" font-family="Times,serif" font-size="14.00">Mean: 2.6MB</text>
<polyline fill="none" stroke="black" points="138.066,-205.5 402.115,-205.5 "/>
<text text-anchor="middle" x="270.09" y="-190.3" font-family="Times,serif" font-size="14.00">2.6MB</text>
</g>
<!-- 5891534637186502961&#45;&gt;&#45;8191387760601713551 -->
<g id="edge16" class="edge"><title>5891534637186502961&#45;&gt;&#45;8191387760601713551</title>
<path fill="none" stroke="black" stroke-dasharray="5,2" d="M213.111,-183.411C213.111,-170.246 213.111,-156.301 213.111,-142.819"/>
<polygon fill="black" stroke="black" points="216.611,-142.62 213.111,-132.62 209.611,-142.62 216.611,-142.62"/>
<text text-anchor="middle" x="261.714" y="-153.8" font-family="Times,serif" font-size="14.00">saveAsPickleFile</text>
</g>
<!-- 6610794229523737784 -->
<g id="node3" class="node"><title>6610794229523737784</title>
<polygon fill="lightgreen" stroke="black" points="28.3521,-366.5 28.3521,-498.5 397.87,-498.5 397.87,-366.5 28.3521,-366.5"/>
<text text-anchor="middle" x="85.3315" y="-483.3" font-family="Times,serif" font-size="14.00">operation:</text>
<polyline fill="none" stroke="black" points="28.3521,-476.5 142.311,-476.5 "/>
<text text-anchor="middle" x="85.3315" y="-461.3" font-family="Times,serif" font-size="14.00">output type:</text>
<polyline fill="none" stroke="black" points="28.3521,-454.5 142.311,-454.5 "/>
<text text-anchor="middle" x="85.3315" y="-439.3" font-family="Times,serif" font-size="14.00">elements:</text>
<polyline fill="none" stroke="black" points="28.3521,-432.5 142.311,-432.5 "/>
<text text-anchor="middle" x="85.3315" y="-417.3" font-family="Times,serif" font-size="14.00">time per element:</text>
<polyline fill="none" stroke="black" points="28.3521,-410.5 142.311,-410.5 "/>
<text text-anchor="middle" x="85.3315" y="-395.3" font-family="Times,serif" font-size="14.00">element size:</text>
<polyline fill="none" stroke="black" points="28.3521,-388.5 142.311,-388.5 "/>
<text text-anchor="middle" x="85.3315" y="-373.3" font-family="Times,serif" font-size="14.00">total size:</text>
<polyline fill="none" stroke="black" points="142.311,-366.5 142.311,-498.5 "/>
<text text-anchor="middle" x="270.09" y="-483.3" font-family="Times,serif" font-size="14.00">compress_tile</text>
<polyline fill="none" stroke="black" points="142.311,-476.5 397.87,-476.5 "/>
<text text-anchor="middle" x="270.09" y="-461.3" font-family="Times,serif" font-size="14.00">(source_tile_position, List[byte])</text>
<polyline fill="none" stroke="black" points="142.311,-454.5 397.87,-454.5 "/>
<text text-anchor="middle" x="270.09" y="-439.3" font-family="Times,serif" font-size="14.00">100</text>
<polyline fill="none" stroke="black" points="142.311,-432.5 397.87,-432.5 "/>
<text text-anchor="middle" x="270.09" y="-417.3" font-family="Times,serif" font-size="14.00">2.1s</text>
<polyline fill="none" stroke="black" points="142.311,-410.5 397.87,-410.5 "/>
<text text-anchor="middle" x="270.09" y="-395.3" font-family="Times,serif" font-size="14.00">Min: 17.4kB, Mean: 26.4kB, Max: 27.2kB</text>
<polyline fill="none" stroke="black" points="142.311,-388.5 397.87,-388.5 "/>
<text text-anchor="middle" x="270.09" y="-373.3" font-family="Times,serif" font-size="14.00">2.6MB</text>
</g>
<!-- 6610794229523737784&#45;&gt;5891534637186502961 -->
<g id="edge15" class="edge"><title>6610794229523737784&#45;&gt;5891534637186502961</title>
<path fill="none" stroke="black" stroke-dasharray="5,2" d="M213.111,-366.411C213.111,-353.246 213.111,-339.301 213.111,-325.819"/>
<polygon fill="black" stroke="black" points="216.611,-325.62 213.111,-315.62 209.611,-325.62 216.611,-325.62"/>
<text text-anchor="middle" x="237.611" y="-336.8" font-family="Times,serif" font-size="14.00">groupBy</text>
</g>
<!-- 4490864518981227545 -->
<g id="node4" class="node"><title>4490864518981227545</title>
<polygon fill="lightgreen" stroke="black" points="13.6104,-549.5 13.6104,-681.5 412.611,-681.5 412.611,-549.5 13.6104,-549.5"/>
<text text-anchor="middle" x="70.5898" y="-666.3" font-family="Times,serif" font-size="14.00">operation:</text>
<polyline fill="none" stroke="black" points="13.6104,-659.5 127.569,-659.5 "/>
<text text-anchor="middle" x="70.5898" y="-644.3" font-family="Times,serif" font-size="14.00">output type:</text>
<polyline fill="none" stroke="black" points="13.6104,-637.5 127.569,-637.5 "/>
<text text-anchor="middle" x="70.5898" y="-622.3" font-family="Times,serif" font-size="14.00">elements:</text>
<polyline fill="none" stroke="black" points="13.6104,-615.5 127.569,-615.5 "/>
<text text-anchor="middle" x="70.5898" y="-600.3" font-family="Times,serif" font-size="14.00">time per element:</text>
<polyline fill="none" stroke="black" points="13.6104,-593.5 127.569,-593.5 "/>
<text text-anchor="middle" x="70.5898" y="-578.3" font-family="Times,serif" font-size="14.00">element size:</text>
<polyline fill="none" stroke="black" points="13.6104,-571.5 127.569,-571.5 "/>
<text text-anchor="middle" x="70.5898" y="-556.3" font-family="Times,serif" font-size="14.00">total size:</text>
<polyline fill="none" stroke="black" points="127.569,-549.5 127.569,-681.5 "/>
<text text-anchor="middle" x="270.09" y="-666.3" font-family="Times,serif" font-size="14.00">ti_full_reconstruction</text>
<polyline fill="none" stroke="black" points="127.569,-659.5 412.611,-659.5 "/>
<text text-anchor="middle" x="270.09" y="-644.3" font-family="Times,serif" font-size="14.00">(source_tile_position, ndarray[int64](120, 120))</text>
<polyline fill="none" stroke="black" points="127.569,-637.5 412.611,-637.5 "/>
<text text-anchor="middle" x="270.09" y="-622.3" font-family="Times,serif" font-size="14.00">100</text>
<polyline fill="none" stroke="black" points="127.569,-615.5 412.611,-615.5 "/>
<text text-anchor="middle" x="270.09" y="-600.3" font-family="Times,serif" font-size="14.00">115.1ms</text>
<polyline fill="none" stroke="black" points="127.569,-593.5 412.611,-593.5 "/>
<text text-anchor="middle" x="270.09" y="-578.3" font-family="Times,serif" font-size="14.00">Mean: 115.5kB</text>
<polyline fill="none" stroke="black" points="127.569,-571.5 412.611,-571.5 "/>
<text text-anchor="middle" x="270.09" y="-556.3" font-family="Times,serif" font-size="14.00">11.6MB</text>
</g>
<!-- 4490864518981227545&#45;&gt;6610794229523737784 -->
<g id="edge14" class="edge"><title>4490864518981227545&#45;&gt;6610794229523737784</title>
<path fill="none" stroke="black" stroke-dasharray="5,2" d="M213.111,-549.411C213.111,-536.246 213.111,-522.301 213.111,-508.819"/>
<polygon fill="black" stroke="black" points="216.611,-508.62 213.111,-498.62 209.611,-508.62 216.611,-508.62"/>
<text text-anchor="middle" x="243.825" y="-519.8" font-family="Times,serif" font-size="14.00">mapValues</text>
</g>
<!-- &#45;762599010789309887 -->
<g id="node5" class="node"><title>&#45;762599010789309887</title>
<polygon fill="orange" stroke="black" points="21.3521,-732.5 21.3521,-864.5 404.87,-864.5 404.87,-732.5 21.3521,-732.5"/>
<text text-anchor="middle" x="78.3315" y="-849.3" font-family="Times,serif" font-size="14.00">operation:</text>
<polyline fill="none" stroke="black" points="21.3521,-842.5 135.311,-842.5 "/>
<text text-anchor="middle" x="78.3315" y="-827.3" font-family="Times,serif" font-size="14.00">output type:</text>
<polyline fill="none" stroke="black" points="21.3521,-820.5 135.311,-820.5 "/>
<text text-anchor="middle" x="78.3315" y="-805.3" font-family="Times,serif" font-size="14.00">elements:</text>
<polyline fill="none" stroke="black" points="21.3521,-798.5 135.311,-798.5 "/>
<text text-anchor="middle" x="78.3315" y="-783.3" font-family="Times,serif" font-size="14.00">time per element:</text>
<polyline fill="none" stroke="black" points="21.3521,-776.5 135.311,-776.5 "/>
<text text-anchor="middle" x="78.3315" y="-761.3" font-family="Times,serif" font-size="14.00">element size:</text>
<polyline fill="none" stroke="black" points="21.3521,-754.5 135.311,-754.5 "/>
<text text-anchor="middle" x="78.3315" y="-739.3" font-family="Times,serif" font-size="14.00">total size:</text>
<polyline fill="none" stroke="black" points="135.311,-732.5 135.311,-864.5 "/>
<text text-anchor="middle" x="270.09" y="-849.3" font-family="Times,serif" font-size="14.00">Select Field: target_tile_id</text>
<polyline fill="none" stroke="black" points="135.311,-842.5 404.87,-842.5 "/>
<text text-anchor="middle" x="270.09" y="-827.3" font-family="Times,serif" font-size="14.00">(source_tile_position, List[tile_data])</text>
<polyline fill="none" stroke="black" points="135.311,-820.5 404.87,-820.5 "/>
<text text-anchor="middle" x="270.09" y="-805.3" font-family="Times,serif" font-size="14.00">100</text>
<polyline fill="none" stroke="black" points="135.311,-798.5 404.87,-798.5 "/>
<text text-anchor="middle" x="270.09" y="-783.3" font-family="Times,serif" font-size="14.00">3.6ms</text>
<polyline fill="none" stroke="black" points="135.311,-776.5 404.87,-776.5 "/>
<text text-anchor="middle" x="270.09" y="-761.3" font-family="Times,serif" font-size="14.00">Min: 14.9kB, Mean: 106.1kB, Max: 130.9kB</text>
<polyline fill="none" stroke="black" points="135.311,-754.5 404.87,-754.5 "/>
<text text-anchor="middle" x="270.09" y="-739.3" font-family="Times,serif" font-size="14.00">10.6MB</text>
</g>
<!-- &#45;762599010789309887&#45;&gt;4490864518981227545 -->
<g id="edge13" class="edge"><title>&#45;762599010789309887&#45;&gt;4490864518981227545</title>
<path fill="none" stroke="black" stroke-dasharray="5,2" d="M213.111,-732.411C213.111,-719.246 213.111,-705.301 213.111,-691.819"/>
<polygon fill="black" stroke="black" points="216.611,-691.62 213.111,-681.62 209.611,-691.62 216.611,-691.62"/>
<text text-anchor="middle" x="225.163" y="-702.8" font-family="Times,serif" font-size="14.00">map</text>
</g>
<!-- &#45;7173157723631991045 -->
<g id="node6" class="node"><title>&#45;7173157723631991045</title>
<polygon fill="yellow" stroke="black" points="108.08,-915.5 108.08,-1047.5 318.142,-1047.5 318.142,-915.5 108.08,-915.5"/>
<text text-anchor="middle" x="165.059" y="-1032.3" font-family="Times,serif" font-size="14.00">operation:</text>
<polyline fill="none" stroke="black" points="108.08,-1025.5 222.039,-1025.5 "/>
<text text-anchor="middle" x="165.059" y="-1010.3" font-family="Times,serif" font-size="14.00">output type:</text>
<polyline fill="none" stroke="black" points="108.08,-1003.5 222.039,-1003.5 "/>
<text text-anchor="middle" x="165.059" y="-988.3" font-family="Times,serif" font-size="14.00">elements:</text>
<polyline fill="none" stroke="black" points="108.08,-981.5 222.039,-981.5 "/>
<text text-anchor="middle" x="165.059" y="-966.3" font-family="Times,serif" font-size="14.00">time per element:</text>
<polyline fill="none" stroke="black" points="108.08,-959.5 222.039,-959.5 "/>
<text text-anchor="middle" x="165.059" y="-944.3" font-family="Times,serif" font-size="14.00">element size:</text>
<polyline fill="none" stroke="black" points="108.08,-937.5 222.039,-937.5 "/>
<text text-anchor="middle" x="165.059" y="-922.3" font-family="Times,serif" font-size="14.00">total size:</text>
<polyline fill="none" stroke="black" points="222.039,-915.5 222.039,-1047.5 "/>
<text text-anchor="middle" x="270.09" y="-1032.3" font-family="Times,serif" font-size="14.00">grp_tile_read</text>
<polyline fill="none" stroke="black" points="222.039,-1025.5 318.142,-1025.5 "/>
<text text-anchor="middle" x="270.09" y="-1010.3" font-family="Times,serif" font-size="14.00">tile_data</text>
<polyline fill="none" stroke="black" points="222.039,-1003.5 318.142,-1003.5 "/>
<text text-anchor="middle" x="270.09" y="-988.3" font-family="Times,serif" font-size="14.00">729</text>
<polyline fill="none" stroke="black" points="222.039,-981.5 318.142,-981.5 "/>
<text text-anchor="middle" x="270.09" y="-966.3" font-family="Times,serif" font-size="14.00">33.9ms</text>
<polyline fill="none" stroke="black" points="222.039,-959.5 318.142,-959.5 "/>
<text text-anchor="middle" x="270.09" y="-944.3" font-family="Times,serif" font-size="14.00">Mean: 14.9kB</text>
<polyline fill="none" stroke="black" points="222.039,-937.5 318.142,-937.5 "/>
<text text-anchor="middle" x="270.09" y="-922.3" font-family="Times,serif" font-size="14.00">10.9MB</text>
</g>
<!-- &#45;7173157723631991045&#45;&gt;&#45;762599010789309887 -->
<g id="edge12" class="edge"><title>&#45;7173157723631991045&#45;&gt;&#45;762599010789309887</title>
<path fill="none" stroke="black" stroke-dasharray="5,2" d="M213.111,-915.411C213.111,-902.246 213.111,-888.301 213.111,-874.819"/>
<polygon fill="black" stroke="black" points="216.611,-874.62 213.111,-864.62 209.611,-874.62 216.611,-874.62"/>
<text text-anchor="middle" x="237.611" y="-885.8" font-family="Times,serif" font-size="14.00">groupBy</text>
</g>
<!-- 2520524374228156935 -->
<g id="node7" class="node"><title>2520524374228156935</title>
<polygon fill="orange" stroke="black" points="28.7451,-1098.5 28.7451,-1230.5 397.477,-1230.5 397.477,-1098.5 28.7451,-1098.5"/>
<text text-anchor="middle" x="85.7246" y="-1215.3" font-family="Times,serif" font-size="14.00">operation:</text>
<polyline fill="none" stroke="black" points="28.7451,-1208.5 142.704,-1208.5 "/>
<text text-anchor="middle" x="85.7246" y="-1193.3" font-family="Times,serif" font-size="14.00">output type:</text>
<polyline fill="none" stroke="black" points="28.7451,-1186.5 142.704,-1186.5 "/>
<text text-anchor="middle" x="85.7246" y="-1171.3" font-family="Times,serif" font-size="14.00">elements:</text>
<polyline fill="none" stroke="black" points="28.7451,-1164.5 142.704,-1164.5 "/>
<text text-anchor="middle" x="85.7246" y="-1149.3" font-family="Times,serif" font-size="14.00">time per element:</text>
<polyline fill="none" stroke="black" points="28.7451,-1142.5 142.704,-1142.5 "/>
<text text-anchor="middle" x="85.7246" y="-1127.3" font-family="Times,serif" font-size="14.00">element size:</text>
<polyline fill="none" stroke="black" points="28.7451,-1120.5 142.704,-1120.5 "/>
<text text-anchor="middle" x="85.7246" y="-1105.3" font-family="Times,serif" font-size="14.00">total size:</text>
<polyline fill="none" stroke="black" points="142.704,-1098.5 142.704,-1230.5 "/>
<text text-anchor="middle" x="270.09" y="-1215.3" font-family="Times,serif" font-size="14.00">Select Field: source_tile_id</text>
<polyline fill="none" stroke="black" points="142.704,-1208.5 397.477,-1208.5 "/>
<text text-anchor="middle" x="270.09" y="-1193.3" font-family="Times,serif" font-size="14.00">(target_tile_position, List[tile_data])</text>
<polyline fill="none" stroke="black" points="142.704,-1186.5 397.477,-1186.5 "/>
<text text-anchor="middle" x="270.09" y="-1171.3" font-family="Times,serif" font-size="14.00">100</text>
<polyline fill="none" stroke="black" points="142.704,-1164.5 397.477,-1164.5 "/>
<text text-anchor="middle" x="270.09" y="-1149.3" font-family="Times,serif" font-size="14.00">8.2ms</text>
<polyline fill="none" stroke="black" points="142.704,-1142.5 397.477,-1142.5 "/>
<text text-anchor="middle" x="270.09" y="-1127.3" font-family="Times,serif" font-size="14.00">Min: 370 bytes, Mean: 1.1kB, Max: 1.3kB</text>
<polyline fill="none" stroke="black" points="142.704,-1120.5 397.477,-1120.5 "/>
<text text-anchor="middle" x="270.09" y="-1105.3" font-family="Times,serif" font-size="14.00">114.1kB</text>
</g>
<!-- 2520524374228156935&#45;&gt;&#45;7173157723631991045 -->
<g id="edge9" class="edge"><title>2520524374228156935&#45;&gt;&#45;7173157723631991045</title>
<path fill="none" stroke="black" stroke-dasharray="5,2" d="M155.019,-1098.45C151.662,-1092.48 148.762,-1086.3 146.559,-1080 143.908,-1072.42 143.627,-1064.87 145.054,-1057.53"/>
<polygon fill="black" stroke="black" points="148.494,-1058.25 147.996,-1047.66 141.786,-1056.25 148.494,-1058.25"/>
<text text-anchor="middle" x="168.887" y="-1068.8" font-family="Times,serif" font-size="14.00">flatMap</text>
</g>
<!-- 2520524374228156935&#45;&gt;&#45;7173157723631991045 -->
<g id="edge10" class="edge"><title>2520524374228156935&#45;&gt;&#45;7173157723631991045</title>
<path fill="none" stroke="black" stroke-dasharray="5,2" d="M206.603,-1098.41C206.346,-1085.25 206.293,-1071.3 206.446,-1057.82"/>
<polygon fill="black" stroke="black" points="209.949,-1057.67 206.603,-1047.62 202.949,-1057.56 209.949,-1057.67"/>
</g>
<!-- 2520524374228156935&#45;&gt;&#45;7173157723631991045 -->
<g id="edge11" class="edge"><title>2520524374228156935&#45;&gt;&#45;7173157723631991045</title>
<path fill="none" stroke="black" stroke-dasharray="5,2" d="M219.619,-1098.41C219.876,-1085.25 219.928,-1071.3 219.776,-1057.82"/>
<polygon fill="black" stroke="black" points="223.272,-1057.56 219.619,-1047.62 216.273,-1057.67 223.272,-1057.56"/>
</g>
<!-- &#45;1018299691107219907 -->
<g id="node8" class="node"><title>&#45;1018299691107219907</title>
<polygon fill="lightgreen" stroke="black" points="96.3867,-1281.5 96.3867,-1413.5 329.835,-1413.5 329.835,-1281.5 96.3867,-1281.5"/>
<text text-anchor="middle" x="153.366" y="-1398.3" font-family="Times,serif" font-size="14.00">operation:</text>
<polyline fill="none" stroke="black" points="96.3867,-1391.5 210.346,-1391.5 "/>
<text text-anchor="middle" x="153.366" y="-1376.3" font-family="Times,serif" font-size="14.00">output type:</text>
<polyline fill="none" stroke="black" points="96.3867,-1369.5 210.346,-1369.5 "/>
<text text-anchor="middle" x="153.366" y="-1354.3" font-family="Times,serif" font-size="14.00">elements:</text>
<polyline fill="none" stroke="black" points="96.3867,-1347.5 210.346,-1347.5 "/>
<text text-anchor="middle" x="153.366" y="-1332.3" font-family="Times,serif" font-size="14.00">time per element:</text>
<polyline fill="none" stroke="black" points="96.3867,-1325.5 210.346,-1325.5 "/>
<text text-anchor="middle" x="153.366" y="-1310.3" font-family="Times,serif" font-size="14.00">element size:</text>
<polyline fill="none" stroke="black" points="96.3867,-1303.5 210.346,-1303.5 "/>
<text text-anchor="middle" x="153.366" y="-1288.3" font-family="Times,serif" font-size="14.00">total size:</text>
<polyline fill="none" stroke="black" points="210.346,-1281.5 210.346,-1413.5 "/>
<text text-anchor="middle" x="270.09" y="-1398.3" font-family="Times,serif" font-size="14.00">Shuffle Tile Fields</text>
<polyline fill="none" stroke="black" points="210.346,-1391.5 329.835,-1391.5 "/>
<text text-anchor="middle" x="270.09" y="-1376.3" font-family="Times,serif" font-size="14.00">tile_data</text>
<polyline fill="none" stroke="black" points="210.346,-1369.5 329.835,-1369.5 "/>
<text text-anchor="middle" x="270.09" y="-1354.3" font-family="Times,serif" font-size="14.00">729</text>
<polyline fill="none" stroke="black" points="210.346,-1347.5 329.835,-1347.5 "/>
<text text-anchor="middle" x="270.09" y="-1332.3" font-family="Times,serif" font-size="14.00">4.0ms</text>
<polyline fill="none" stroke="black" points="210.346,-1325.5 329.835,-1325.5 "/>
<text text-anchor="middle" x="270.09" y="-1310.3" font-family="Times,serif" font-size="14.00">Mean: 361 bytes</text>
<polyline fill="none" stroke="black" points="210.346,-1303.5 329.835,-1303.5 "/>
<text text-anchor="middle" x="270.09" y="-1288.3" font-family="Times,serif" font-size="14.00">263.2kB</text>
</g>
<!-- &#45;1018299691107219907&#45;&gt;2520524374228156935 -->
<g id="edge8" class="edge"><title>&#45;1018299691107219907&#45;&gt;2520524374228156935</title>
<path fill="none" stroke="black" stroke-dasharray="5,2" d="M213.111,-1281.41C213.111,-1268.25 213.111,-1254.3 213.111,-1240.82"/>
<polygon fill="black" stroke="black" points="216.611,-1240.62 213.111,-1230.62 209.611,-1240.62 216.611,-1240.62"/>
<text text-anchor="middle" x="237.611" y="-1251.8" font-family="Times,serif" font-size="14.00">groupBy</text>
</g>
<!-- &#45;3725112368570477116 -->
<g id="node9" class="node"><title>&#45;3725112368570477116</title>
<polygon fill="yellow" stroke="black" points="12.9507,-1464.5 12.9507,-1596.5 413.271,-1596.5 413.271,-1464.5 12.9507,-1464.5"/>
<text text-anchor="middle" x="69.9302" y="-1581.3" font-family="Times,serif" font-size="14.00">operation:</text>
<polyline fill="none" stroke="black" points="12.9507,-1574.5 126.91,-1574.5 "/>
<text text-anchor="middle" x="69.9302" y="-1559.3" font-family="Times,serif" font-size="14.00">output type:</text>
<polyline fill="none" stroke="black" points="12.9507,-1552.5 126.91,-1552.5 "/>
<text text-anchor="middle" x="69.9302" y="-1537.3" font-family="Times,serif" font-size="14.00">elements:</text>
<polyline fill="none" stroke="black" points="12.9507,-1530.5 126.91,-1530.5 "/>
<text text-anchor="middle" x="69.9302" y="-1515.3" font-family="Times,serif" font-size="14.00">time per element:</text>
<polyline fill="none" stroke="black" points="12.9507,-1508.5 126.91,-1508.5 "/>
<text text-anchor="middle" x="69.9302" y="-1493.3" font-family="Times,serif" font-size="14.00">element size:</text>
<polyline fill="none" stroke="black" points="12.9507,-1486.5 126.91,-1486.5 "/>
<text text-anchor="middle" x="69.9302" y="-1471.3" font-family="Times,serif" font-size="14.00">total size:</text>
<polyline fill="none" stroke="black" points="126.91,-1464.5 126.91,-1596.5 "/>
<text text-anchor="middle" x="270.09" y="-1581.3" font-family="Times,serif" font-size="14.00">calc_input_tiles</text>
<polyline fill="none" stroke="black" points="126.91,-1574.5 413.271,-1574.5 "/>
<text text-anchor="middle" x="270.09" y="-1559.3" font-family="Times,serif" font-size="14.00">(url, (source_tile_position, target_tile_position))</text>
<polyline fill="none" stroke="black" points="126.91,-1552.5 413.271,-1552.5 "/>
<text text-anchor="middle" x="270.09" y="-1537.3" font-family="Times,serif" font-size="14.00">729</text>
<polyline fill="none" stroke="black" points="126.91,-1530.5 413.271,-1530.5 "/>
<text text-anchor="middle" x="270.09" y="-1515.3" font-family="Times,serif" font-size="14.00">51.3ms</text>
<polyline fill="none" stroke="black" points="126.91,-1508.5 413.271,-1508.5 "/>
<text text-anchor="middle" x="270.09" y="-1493.3" font-family="Times,serif" font-size="14.00">Mean: 336 bytes</text>
<polyline fill="none" stroke="black" points="126.91,-1486.5 413.271,-1486.5 "/>
<text text-anchor="middle" x="270.09" y="-1471.3" font-family="Times,serif" font-size="14.00">244.9kB</text>
</g>
<!-- &#45;3725112368570477116&#45;&gt;&#45;1018299691107219907 -->
<g id="edge7" class="edge"><title>&#45;3725112368570477116&#45;&gt;&#45;1018299691107219907</title>
<path fill="none" stroke="black" stroke-dasharray="5,2" d="M213.111,-1464.41C213.111,-1451.25 213.111,-1437.3 213.111,-1423.82"/>
<polygon fill="black" stroke="black" points="216.611,-1423.62 213.111,-1413.62 209.611,-1423.62 216.611,-1423.62"/>
<text text-anchor="middle" x="225.163" y="-1434.8" font-family="Times,serif" font-size="14.00">map</text>
</g>
<!-- &#45;80019716301123596 -->
<g id="node10" class="node"><title>&#45;80019716301123596</title>
<polygon fill="yellow" stroke="black" points="75.4243,-1647.5 75.4243,-1779.5 350.797,-1779.5 350.797,-1647.5 75.4243,-1647.5"/>
<text text-anchor="middle" x="132.404" y="-1764.3" font-family="Times,serif" font-size="14.00">operation:</text>
<polyline fill="none" stroke="black" points="75.4243,-1757.5 189.383,-1757.5 "/>
<text text-anchor="middle" x="132.404" y="-1742.3" font-family="Times,serif" font-size="14.00">output type:</text>
<polyline fill="none" stroke="black" points="75.4243,-1735.5 189.383,-1735.5 "/>
<text text-anchor="middle" x="132.404" y="-1720.3" font-family="Times,serif" font-size="14.00">elements:</text>
<polyline fill="none" stroke="black" points="75.4243,-1713.5 189.383,-1713.5 "/>
<text text-anchor="middle" x="132.404" y="-1698.3" font-family="Times,serif" font-size="14.00">time per element:</text>
<polyline fill="none" stroke="black" points="75.4243,-1691.5 189.383,-1691.5 "/>
<text text-anchor="middle" x="132.404" y="-1676.3" font-family="Times,serif" font-size="14.00">element size:</text>
<polyline fill="none" stroke="black" points="75.4243,-1669.5 189.383,-1669.5 "/>
<text text-anchor="middle" x="132.404" y="-1654.3" font-family="Times,serif" font-size="14.00">total size:</text>
<polyline fill="none" stroke="black" points="189.383,-1647.5 189.383,-1779.5 "/>
<text text-anchor="middle" x="270.09" y="-1764.3" font-family="Times,serif" font-size="14.00">get_output_tiles</text>
<polyline fill="none" stroke="black" points="189.383,-1757.5 350.797,-1757.5 "/>
<text text-anchor="middle" x="270.09" y="-1742.3" font-family="Times,serif" font-size="14.00">(url, source_tile_position)</text>
<polyline fill="none" stroke="black" points="189.383,-1735.5 350.797,-1735.5 "/>
<text text-anchor="middle" x="270.09" y="-1720.3" font-family="Times,serif" font-size="14.00">100</text>
<polyline fill="none" stroke="black" points="189.383,-1713.5 350.797,-1713.5 "/>
<text text-anchor="middle" x="270.09" y="-1698.3" font-family="Times,serif" font-size="14.00">211.0ns</text>
<polyline fill="none" stroke="black" points="189.383,-1691.5 350.797,-1691.5 "/>
<text text-anchor="middle" x="270.09" y="-1676.3" font-family="Times,serif" font-size="14.00">Mean: 233 bytes</text>
<polyline fill="none" stroke="black" points="189.383,-1669.5 350.797,-1669.5 "/>
<text text-anchor="middle" x="270.09" y="-1654.3" font-family="Times,serif" font-size="14.00">23.3kB</text>
</g>
<!-- &#45;80019716301123596&#45;&gt;&#45;3725112368570477116 -->
<g id="edge4" class="edge"><title>&#45;80019716301123596&#45;&gt;&#45;3725112368570477116</title>
<path fill="none" stroke="black" stroke-dasharray="5,2" d="M120.619,-1647.37C116.207,-1641.59 112.334,-1635.47 109.235,-1629 105.451,-1621.1 104.7,-1613.52 106.216,-1606.33"/>
<polygon fill="black" stroke="black" points="109.567,-1607.35 109.617,-1596.76 102.971,-1605.01 109.567,-1607.35"/>
<text text-anchor="middle" x="150.549" y="-1617.8" font-family="Times,serif" font-size="14.00">flatMapValues</text>
</g>
<!-- &#45;80019716301123596&#45;&gt;&#45;3725112368570477116 -->
<g id="edge5" class="edge"><title>&#45;80019716301123596&#45;&gt;&#45;3725112368570477116</title>
<path fill="none" stroke="black" stroke-dasharray="5,2" d="M206.603,-1647.41C206.346,-1634.25 206.293,-1620.3 206.446,-1606.82"/>
<polygon fill="black" stroke="black" points="209.949,-1606.67 206.603,-1596.62 202.949,-1606.56 209.949,-1606.67"/>
</g>
<!-- &#45;80019716301123596&#45;&gt;&#45;3725112368570477116 -->
<g id="edge6" class="edge"><title>&#45;80019716301123596&#45;&gt;&#45;3725112368570477116</title>
<path fill="none" stroke="black" stroke-dasharray="5,2" d="M219.619,-1647.41C219.876,-1634.25 219.928,-1620.3 219.776,-1606.82"/>
<polygon fill="black" stroke="black" points="223.272,-1606.56 219.619,-1596.62 216.273,-1606.67 223.272,-1606.56"/>
</g>
<!-- &#45;1577528891301281453 -->
<g id="node11" class="node"><title>&#45;1577528891301281453</title>
<polygon fill="turquoise" stroke="black" points="91.7588,-1830.5 91.7588,-1962.5 334.463,-1962.5 334.463,-1830.5 91.7588,-1830.5"/>
<text text-anchor="middle" x="148.738" y="-1947.3" font-family="Times,serif" font-size="14.00">operation:</text>
<polyline fill="none" stroke="black" points="91.7588,-1940.5 205.718,-1940.5 "/>
<text text-anchor="middle" x="148.738" y="-1925.3" font-family="Times,serif" font-size="14.00">output type:</text>
<polyline fill="none" stroke="black" points="91.7588,-1918.5 205.718,-1918.5 "/>
<text text-anchor="middle" x="148.738" y="-1903.3" font-family="Times,serif" font-size="14.00">elements:</text>
<polyline fill="none" stroke="black" points="91.7588,-1896.5 205.718,-1896.5 "/>
<text text-anchor="middle" x="148.738" y="-1881.3" font-family="Times,serif" font-size="14.00">time per element:</text>
<polyline fill="none" stroke="black" points="91.7588,-1874.5 205.718,-1874.5 "/>
<text text-anchor="middle" x="148.738" y="-1859.3" font-family="Times,serif" font-size="14.00">element size:</text>
<polyline fill="none" stroke="black" points="91.7588,-1852.5 205.718,-1852.5 "/>
<text text-anchor="middle" x="148.738" y="-1837.3" font-family="Times,serif" font-size="14.00">total size:</text>
<polyline fill="none" stroke="black" points="205.718,-1830.5 205.718,-1962.5 "/>
<text text-anchor="middle" x="270.09" y="-1947.3" font-family="Times,serif" font-size="14.00">parallelize : Custom</text>
<polyline fill="none" stroke="black" points="205.718,-1940.5 334.463,-1940.5 "/>
<text text-anchor="middle" x="270.09" y="-1925.3" font-family="Times,serif" font-size="14.00">url</text>
<polyline fill="none" stroke="black" points="205.718,-1918.5 334.463,-1918.5 "/>
<text text-anchor="middle" x="270.09" y="-1903.3" font-family="Times,serif" font-size="14.00">1</text>
<polyline fill="none" stroke="black" points="205.718,-1896.5 334.463,-1896.5 "/>
<text text-anchor="middle" x="270.09" y="-1881.3" font-family="Times,serif" font-size="14.00">1.9ns</text>
<polyline fill="none" stroke="black" points="205.718,-1874.5 334.463,-1874.5 "/>
<text text-anchor="middle" x="270.09" y="-1859.3" font-family="Times,serif" font-size="14.00">Mean: 37 bytes</text>
<polyline fill="none" stroke="black" points="205.718,-1852.5 334.463,-1852.5 "/>
<text text-anchor="middle" x="270.09" y="-1837.3" font-family="Times,serif" font-size="14.00">37 bytes</text>
</g>
<!-- &#45;1577528891301281453&#45;&gt;&#45;80019716301123596 -->
<g id="edge1" class="edge"><title>&#45;1577528891301281453&#45;&gt;&#45;80019716301123596</title>
<path fill="none" stroke="black" stroke-dasharray="5,2" d="M147.996,-1830.34C143.862,-1819.98 142.702,-1809.03 146.559,-1798 147.661,-1794.85 148.936,-1791.73 150.356,-1788.65"/>
<polygon fill="black" stroke="black" points="153.573,-1790.05 155.019,-1779.55 147.343,-1786.86 153.573,-1790.05"/>
<text text-anchor="middle" x="168.887" y="-1800.8" font-family="Times,serif" font-size="14.00">flatMap</text>
</g>
<!-- &#45;1577528891301281453&#45;&gt;&#45;80019716301123596 -->
<g id="edge2" class="edge"><title>&#45;1577528891301281453&#45;&gt;&#45;80019716301123596</title>
<path fill="none" stroke="black" stroke-dasharray="5,2" d="M206.603,-1830.41C206.346,-1817.25 206.293,-1803.3 206.446,-1789.82"/>
<polygon fill="black" stroke="black" points="209.949,-1789.67 206.603,-1779.62 202.949,-1789.56 209.949,-1789.67"/>
</g>
<!-- &#45;1577528891301281453&#45;&gt;&#45;80019716301123596 -->
<g id="edge3" class="edge"><title>&#45;1577528891301281453&#45;&gt;&#45;80019716301123596</title>
<path fill="none" stroke="black" stroke-dasharray="5,2" d="M219.619,-1830.41C219.876,-1817.25 219.928,-1803.3 219.776,-1789.82"/>
<polygon fill="black" stroke="black" points="223.272,-1789.56 219.619,-1779.62 216.273,-1789.67 223.272,-1789.56"/>
</g>
</g>
</svg>
