<?xml version="1.0" encoding="UTF-8" standalone="no"?>
<!DOCTYPE svg PUBLIC "-//W3C//DTD SVG 1.1//EN"
 "http://www.w3.org/Graphics/SVG/1.1/DTD/svg11.dtd">
<!-- Generated by graphviz version 2.38.0 (20140413.2041)
 -->
<!-- Title: G Pages: 1 -->
<svg width="435pt" height="1971pt"
 viewBox="0.00 0.00 435.00 1971.00" xmlns="http://www.w3.org/2000/svg" xmlns:xlink="http://www.w3.org/1999/xlink">
<g id="graph0" class="graph" transform="scale(1 1) rotate(0) translate(4 1967)">
<title>G</title>
<polygon fill="white" stroke="#000000" points="-4,4 -4,-1967 431.001,-1967 431.001,4 -4,4"/>
<!-- &#45;9007399370214097339 -->
<g id="node1" class="node"><title>&#45;9007399370214097339</title>
<polygon fill="lightgreen" stroke="black" points="101.862,-0.5 101.862,-132.5 325.139,-132.5 325.139,-0.5 101.862,-0.5"/>
<text text-anchor="middle" x="158.842" y="-117.3" font-family="Times,serif" font-size="14.00">operation:</text>
<polyline fill="none" stroke="black" points="101.862,-110.5 215.821,-110.5 "/>
<text text-anchor="middle" x="158.842" y="-95.3" font-family="Times,serif" font-size="14.00">output type:</text>
<polyline fill="none" stroke="black" points="101.862,-88.5 215.821,-88.5 "/>
<text text-anchor="middle" x="158.842" y="-73.3" font-family="Times,serif" font-size="14.00">elements:</text>
<polyline fill="none" stroke="black" points="101.862,-66.5 215.821,-66.5 "/>
<text text-anchor="middle" x="158.842" y="-51.3" font-family="Times,serif" font-size="14.00">time per element:</text>
<polyline fill="none" stroke="black" points="101.862,-44.5 215.821,-44.5 "/>
<text text-anchor="middle" x="158.842" y="-29.3" font-family="Times,serif" font-size="14.00">element size:</text>
<polyline fill="none" stroke="black" points="101.862,-22.5 215.821,-22.5 "/>
<text text-anchor="middle" x="158.842" y="-7.3" font-family="Times,serif" font-size="14.00">total size:</text>
<polyline fill="none" stroke="black" points="215.821,-0.5 215.821,-132.5 "/>
<text text-anchor="middle" x="270.48" y="-117.3" font-family="Times,serif" font-size="14.00">write_tiles</text>
<polyline fill="none" stroke="black" points="215.821,-110.5 325.139,-110.5 "/>
<text text-anchor="middle" x="270.48" y="-95.3" font-family="Times,serif" font-size="14.00">(url, string)</text>
<polyline fill="none" stroke="black" points="215.821,-88.5 325.139,-88.5 "/>
<text text-anchor="middle" x="270.48" y="-73.3" font-family="Times,serif" font-size="14.00">1</text>
<polyline fill="none" stroke="black" points="215.821,-66.5 325.139,-66.5 "/>
<text text-anchor="middle" x="270.48" y="-51.3" font-family="Times,serif" font-size="14.00">1.5s</text>
<polyline fill="none" stroke="black" points="215.821,-44.5 325.139,-44.5 "/>
<text text-anchor="middle" x="270.48" y="-29.3" font-family="Times,serif" font-size="14.00">Mean: 123 bytes</text>
<polyline fill="none" stroke="black" points="215.821,-22.5 325.139,-22.5 "/>
<text text-anchor="middle" x="270.48" y="-7.3" font-family="Times,serif" font-size="14.00">123 bytes</text>
</g>
<!-- &#45;6673250910865161187 -->
<g id="node2" class="node"><title>&#45;6673250910865161187</title>
<polygon fill="orange" stroke="black" points="24.4966,-183.5 24.4966,-315.5 402.504,-315.5 402.504,-183.5 24.4966,-183.5"/>
<text text-anchor="middle" x="81.4761" y="-300.3" font-family="Times,serif" font-size="14.00">operation:</text>
<polyline fill="none" stroke="black" points="24.4966,-293.5 138.456,-293.5 "/>
<text text-anchor="middle" x="81.4761" y="-278.3" font-family="Times,serif" font-size="14.00">output type:</text>
<polyline fill="none" stroke="black" points="24.4966,-271.5 138.456,-271.5 "/>
<text text-anchor="middle" x="81.4761" y="-256.3" font-family="Times,serif" font-size="14.00">elements:</text>
<polyline fill="none" stroke="black" points="24.4966,-249.5 138.456,-249.5 "/>
<text text-anchor="middle" x="81.4761" y="-234.3" font-family="Times,serif" font-size="14.00">time per element:</text>
<polyline fill="none" stroke="black" points="24.4966,-227.5 138.456,-227.5 "/>
<text text-anchor="middle" x="81.4761" y="-212.3" font-family="Times,serif" font-size="14.00">element size:</text>
<polyline fill="none" stroke="black" points="24.4966,-205.5 138.456,-205.5 "/>
<text text-anchor="middle" x="81.4761" y="-190.3" font-family="Times,serif" font-size="14.00">total size:</text>
<polyline fill="none" stroke="black" points="138.456,-183.5 138.456,-315.5 "/>
<text text-anchor="middle" x="270.48" y="-300.3" font-family="Times,serif" font-size="14.00">Select Field : img_id</text>
<polyline fill="none" stroke="black" points="138.456,-293.5 402.504,-293.5 "/>
<text text-anchor="middle" x="270.48" y="-278.3" font-family="Times,serif" font-size="14.00">(url, List[(source_tile_position, List[byte])])</text>
<polyline fill="none" stroke="black" points="138.456,-271.5 402.504,-271.5 "/>
<text text-anchor="middle" x="270.48" y="-256.3" font-family="Times,serif" font-size="14.00">1</text>
<polyline fill="none" stroke="black" points="138.456,-249.5 402.504,-249.5 "/>
<text text-anchor="middle" x="270.48" y="-234.3" font-family="Times,serif" font-size="14.00">68.9ns</text>
<polyline fill="none" stroke="black" points="138.456,-227.5 402.504,-227.5 "/>
<text text-anchor="middle" x="270.48" y="-212.3" font-family="Times,serif" font-size="14.00">Mean: 340.1MB</text>
<polyline fill="none" stroke="black" points="138.456,-205.5 402.504,-205.5 "/>
<text text-anchor="middle" x="270.48" y="-190.3" font-family="Times,serif" font-size="14.00">340.1MB</text>
</g>
<!-- &#45;6673250910865161187&#45;&gt;&#45;9007399370214097339 -->
<g id="edge16" class="edge"><title>&#45;6673250910865161187&#45;&gt;&#45;9007399370214097339</title>
<path fill="none" stroke="black" stroke-dasharray="5,2" d="M213.5,-183.411C213.5,-170.246 213.5,-156.301 213.5,-142.819"/>
<polygon fill="black" stroke="black" points="217.001,-142.62 213.5,-132.62 210.001,-142.62 217.001,-142.62"/>
<text text-anchor="middle" x="225.552" y="-153.8" font-family="Times,serif" font-size="14.00">map</text>
</g>
<!-- 7025206771576113135 -->
<g id="node3" class="node"><title>7025206771576113135</title>
<polygon fill="lightgreen" stroke="black" points="20.5693,-366.5 20.5693,-498.5 406.432,-498.5 406.432,-366.5 20.5693,-366.5"/>
<text text-anchor="middle" x="77.5488" y="-483.3" font-family="Times,serif" font-size="14.00">operation:</text>
<polyline fill="none" stroke="black" points="20.5693,-476.5 134.528,-476.5 "/>
<text text-anchor="middle" x="77.5488" y="-461.3" font-family="Times,serif" font-size="14.00">output type:</text>
<polyline fill="none" stroke="black" points="20.5693,-454.5 134.528,-454.5 "/>
<text text-anchor="middle" x="77.5488" y="-439.3" font-family="Times,serif" font-size="14.00">elements:</text>
<polyline fill="none" stroke="black" points="20.5693,-432.5 134.528,-432.5 "/>
<text text-anchor="middle" x="77.5488" y="-417.3" font-family="Times,serif" font-size="14.00">time per element:</text>
<polyline fill="none" stroke="black" points="20.5693,-410.5 134.528,-410.5 "/>
<text text-anchor="middle" x="77.5488" y="-395.3" font-family="Times,serif" font-size="14.00">element size:</text>
<polyline fill="none" stroke="black" points="20.5693,-388.5 134.528,-388.5 "/>
<text text-anchor="middle" x="77.5488" y="-373.3" font-family="Times,serif" font-size="14.00">total size:</text>
<polyline fill="none" stroke="black" points="134.528,-366.5 134.528,-498.5 "/>
<text text-anchor="middle" x="270.48" y="-483.3" font-family="Times,serif" font-size="14.00">compress_tile</text>
<polyline fill="none" stroke="black" points="134.528,-476.5 406.432,-476.5 "/>
<text text-anchor="middle" x="270.48" y="-461.3" font-family="Times,serif" font-size="14.00">(source_tile_position, List[byte])</text>
<polyline fill="none" stroke="black" points="134.528,-454.5 406.432,-454.5 "/>
<text text-anchor="middle" x="270.48" y="-439.3" font-family="Times,serif" font-size="14.00">16</text>
<polyline fill="none" stroke="black" points="134.528,-432.5 406.432,-432.5 "/>
<text text-anchor="middle" x="270.48" y="-417.3" font-family="Times,serif" font-size="14.00">7.2s</text>
<polyline fill="none" stroke="black" points="134.528,-410.5 406.432,-410.5 "/>
<text text-anchor="middle" x="270.48" y="-395.3" font-family="Times,serif" font-size="14.00">Min: 14.9MB, Mean: 21.3MB, Max: 23.0MB</text>
<polyline fill="none" stroke="black" points="134.528,-388.5 406.432,-388.5 "/>
<text text-anchor="middle" x="270.48" y="-373.3" font-family="Times,serif" font-size="14.00">340.1MB</text>
</g>
<!-- 7025206771576113135&#45;&gt;&#45;6673250910865161187 -->
<g id="edge15" class="edge"><title>7025206771576113135&#45;&gt;&#45;6673250910865161187</title>
<path fill="none" stroke="black" stroke-dasharray="5,2" d="M213.5,-366.411C213.5,-353.246 213.5,-339.301 213.5,-325.819"/>
<polygon fill="black" stroke="black" points="217.001,-325.62 213.5,-315.62 210.001,-325.62 217.001,-325.62"/>
<text text-anchor="middle" x="238" y="-336.8" font-family="Times,serif" font-size="14.00">groupBy</text>
</g>
<!-- 5201720439685253049 -->
<g id="node4" class="node"><title>5201720439685253049</title>
<polygon fill="lightgreen" stroke="black" points="0,-549.5 0,-681.5 427.001,-681.5 427.001,-549.5 0,-549.5"/>
<text text-anchor="middle" x="56.9795" y="-666.3" font-family="Times,serif" font-size="14.00">operation:</text>
<polyline fill="none" stroke="black" points="0,-659.5 113.959,-659.5 "/>
<text text-anchor="middle" x="56.9795" y="-644.3" font-family="Times,serif" font-size="14.00">output type:</text>
<polyline fill="none" stroke="black" points="0,-637.5 113.959,-637.5 "/>
<text text-anchor="middle" x="56.9795" y="-622.3" font-family="Times,serif" font-size="14.00">elements:</text>
<polyline fill="none" stroke="black" points="0,-615.5 113.959,-615.5 "/>
<text text-anchor="middle" x="56.9795" y="-600.3" font-family="Times,serif" font-size="14.00">time per element:</text>
<polyline fill="none" stroke="black" points="0,-593.5 113.959,-593.5 "/>
<text text-anchor="middle" x="56.9795" y="-578.3" font-family="Times,serif" font-size="14.00">element size:</text>
<polyline fill="none" stroke="black" points="0,-571.5 113.959,-571.5 "/>
<text text-anchor="middle" x="56.9795" y="-556.3" font-family="Times,serif" font-size="14.00">total size:</text>
<polyline fill="none" stroke="black" points="113.959,-549.5 113.959,-681.5 "/>
<text text-anchor="middle" x="270.48" y="-666.3" font-family="Times,serif" font-size="14.00">ti_full_reconstruction</text>
<polyline fill="none" stroke="black" points="113.959,-659.5 427.001,-659.5 "/>
<text text-anchor="middle" x="270.48" y="-644.3" font-family="Times,serif" font-size="14.00">(source_tile_position, ndarray[int16](2000, 2000, 4))</text>
<polyline fill="none" stroke="black" points="113.959,-637.5 427.001,-637.5 "/>
<text text-anchor="middle" x="270.48" y="-622.3" font-family="Times,serif" font-size="14.00">16</text>
<polyline fill="none" stroke="black" points="113.959,-615.5 427.001,-615.5 "/>
<text text-anchor="middle" x="270.48" y="-600.3" font-family="Times,serif" font-size="14.00">1.1s</text>
<polyline fill="none" stroke="black" points="113.959,-593.5 427.001,-593.5 "/>
<text text-anchor="middle" x="270.48" y="-578.3" font-family="Times,serif" font-size="14.00">Mean: 32.0MB</text>
<polyline fill="none" stroke="black" points="113.959,-571.5 427.001,-571.5 "/>
<text text-anchor="middle" x="270.48" y="-556.3" font-family="Times,serif" font-size="14.00">512.0MB</text>
</g>
<!-- 5201720439685253049&#45;&gt;7025206771576113135 -->
<g id="edge14" class="edge"><title>5201720439685253049&#45;&gt;7025206771576113135</title>
<path fill="none" stroke="black" stroke-dasharray="5,2" d="M213.5,-549.411C213.5,-536.246 213.5,-522.301 213.5,-508.819"/>
<polygon fill="black" stroke="black" points="217.001,-508.62 213.5,-498.62 210.001,-508.62 217.001,-508.62"/>
<text text-anchor="middle" x="244.214" y="-519.8" font-family="Times,serif" font-size="14.00">mapValues</text>
</g>
<!-- 5279475374737323808 -->
<g id="node5" class="node"><title>5279475374737323808</title>
<polygon fill="orange" stroke="black" points="13.5693,-732.5 13.5693,-864.5 413.432,-864.5 413.432,-732.5 13.5693,-732.5"/>
<text text-anchor="middle" x="70.5488" y="-849.3" font-family="Times,serif" font-size="14.00">operation:</text>
<polyline fill="none" stroke="black" points="13.5693,-842.5 127.528,-842.5 "/>
<text text-anchor="middle" x="70.5488" y="-827.3" font-family="Times,serif" font-size="14.00">output type:</text>
<polyline fill="none" stroke="black" points="13.5693,-820.5 127.528,-820.5 "/>
<text text-anchor="middle" x="70.5488" y="-805.3" font-family="Times,serif" font-size="14.00">elements:</text>
<polyline fill="none" stroke="black" points="13.5693,-798.5 127.528,-798.5 "/>
<text text-anchor="middle" x="70.5488" y="-783.3" font-family="Times,serif" font-size="14.00">time per element:</text>
<polyline fill="none" stroke="black" points="13.5693,-776.5 127.528,-776.5 "/>
<text text-anchor="middle" x="70.5488" y="-761.3" font-family="Times,serif" font-size="14.00">element size:</text>
<polyline fill="none" stroke="black" points="13.5693,-754.5 127.528,-754.5 "/>
<text text-anchor="middle" x="70.5488" y="-739.3" font-family="Times,serif" font-size="14.00">total size:</text>
<polyline fill="none" stroke="black" points="127.528,-732.5 127.528,-864.5 "/>
<text text-anchor="middle" x="270.48" y="-849.3" font-family="Times,serif" font-size="14.00">Select Field: target_tile_id</text>
<polyline fill="none" stroke="black" points="127.528,-842.5 413.432,-842.5 "/>
<text text-anchor="middle" x="270.48" y="-827.3" font-family="Times,serif" font-size="14.00">(source_tile_position, List[tile_data])</text>
<polyline fill="none" stroke="black" points="127.528,-820.5 413.432,-820.5 "/>
<text text-anchor="middle" x="270.48" y="-805.3" font-family="Times,serif" font-size="14.00">16</text>
<polyline fill="none" stroke="black" points="127.528,-798.5 413.432,-798.5 "/>
<text text-anchor="middle" x="270.48" y="-783.3" font-family="Times,serif" font-size="14.00">53.3ns</text>
<polyline fill="none" stroke="black" points="127.528,-776.5 413.432,-776.5 "/>
<text text-anchor="middle" x="270.48" y="-761.3" font-family="Times,serif" font-size="14.00">Min: 32.0MB, Mean: 162.0MB, Max: 288.0MB</text>
<polyline fill="none" stroke="black" points="127.528,-754.5 413.432,-754.5 "/>
<text text-anchor="middle" x="270.48" y="-739.3" font-family="Times,serif" font-size="14.00">2.6GB</text>
</g>
<!-- 5279475374737323808&#45;&gt;5201720439685253049 -->
<g id="edge13" class="edge"><title>5279475374737323808&#45;&gt;5201720439685253049</title>
<path fill="none" stroke="black" stroke-dasharray="5,2" d="M213.5,-732.411C213.5,-719.246 213.5,-705.301 213.5,-691.819"/>
<polygon fill="black" stroke="black" points="217.001,-691.62 213.5,-681.62 210.001,-691.62 217.001,-691.62"/>
<text text-anchor="middle" x="225.552" y="-702.8" font-family="Times,serif" font-size="14.00">map</text>
</g>
<!-- 4604392684841477385 -->
<g id="node6" class="node"><title>4604392684841477385</title>
<polygon fill="yellow" stroke="black" points="105.745,-915.5 105.745,-1047.5 321.256,-1047.5 321.256,-915.5 105.745,-915.5"/>
<text text-anchor="middle" x="162.725" y="-1032.3" font-family="Times,serif" font-size="14.00">operation:</text>
<polyline fill="none" stroke="black" points="105.745,-1025.5 219.704,-1025.5 "/>
<text text-anchor="middle" x="162.725" y="-1010.3" font-family="Times,serif" font-size="14.00">output type:</text>
<polyline fill="none" stroke="black" points="105.745,-1003.5 219.704,-1003.5 "/>
<text text-anchor="middle" x="162.725" y="-988.3" font-family="Times,serif" font-size="14.00">elements:</text>
<polyline fill="none" stroke="black" points="105.745,-981.5 219.704,-981.5 "/>
<text text-anchor="middle" x="162.725" y="-966.3" font-family="Times,serif" font-size="14.00">time per element:</text>
<polyline fill="none" stroke="black" points="105.745,-959.5 219.704,-959.5 "/>
<text text-anchor="middle" x="162.725" y="-944.3" font-family="Times,serif" font-size="14.00">element size:</text>
<polyline fill="none" stroke="black" points="105.745,-937.5 219.704,-937.5 "/>
<text text-anchor="middle" x="162.725" y="-922.3" font-family="Times,serif" font-size="14.00">total size:</text>
<polyline fill="none" stroke="black" points="219.704,-915.5 219.704,-1047.5 "/>
<text text-anchor="middle" x="270.48" y="-1032.3" font-family="Times,serif" font-size="14.00">grp_tile_read</text>
<polyline fill="none" stroke="black" points="219.704,-1025.5 321.256,-1025.5 "/>
<text text-anchor="middle" x="270.48" y="-1010.3" font-family="Times,serif" font-size="14.00">tile_data</text>
<polyline fill="none" stroke="black" points="219.704,-1003.5 321.256,-1003.5 "/>
<text text-anchor="middle" x="270.48" y="-988.3" font-family="Times,serif" font-size="14.00">81</text>
<polyline fill="none" stroke="black" points="219.704,-981.5 321.256,-981.5 "/>
<text text-anchor="middle" x="270.48" y="-966.3" font-family="Times,serif" font-size="14.00">69.6ms</text>
<polyline fill="none" stroke="black" points="219.704,-959.5 321.256,-959.5 "/>
<text text-anchor="middle" x="270.48" y="-944.3" font-family="Times,serif" font-size="14.00">Mean: 32.0MB</text>
<polyline fill="none" stroke="black" points="219.704,-937.5 321.256,-937.5 "/>
<text text-anchor="middle" x="270.48" y="-922.3" font-family="Times,serif" font-size="14.00">2.6GB</text>
</g>
<!-- 4604392684841477385&#45;&gt;5279475374737323808 -->
<g id="edge12" class="edge"><title>4604392684841477385&#45;&gt;5279475374737323808</title>
<path fill="none" stroke="black" stroke-dasharray="5,2" d="M213.5,-915.411C213.5,-902.246 213.5,-888.301 213.5,-874.819"/>
<polygon fill="black" stroke="black" points="217.001,-874.62 213.5,-864.62 210.001,-874.62 217.001,-874.62"/>
<text text-anchor="middle" x="238" y="-885.8" font-family="Times,serif" font-size="14.00">groupBy</text>
</g>
<!-- 1008415098549472147 -->
<g id="node7" class="node"><title>1008415098549472147</title>
<polygon fill="orange" stroke="black" points="19.0278,-1098.5 19.0278,-1230.5 407.973,-1230.5 407.973,-1098.5 19.0278,-1098.5"/>
<text text-anchor="middle" x="76.0073" y="-1215.3" font-family="Times,serif" font-size="14.00">operation:</text>
<polyline fill="none" stroke="black" points="19.0278,-1208.5 132.987,-1208.5 "/>
<text text-anchor="middle" x="76.0073" y="-1193.3" font-family="Times,serif" font-size="14.00">output type:</text>
<polyline fill="none" stroke="black" points="19.0278,-1186.5 132.987,-1186.5 "/>
<text text-anchor="middle" x="76.0073" y="-1171.3" font-family="Times,serif" font-size="14.00">elements:</text>
<polyline fill="none" stroke="black" points="19.0278,-1164.5 132.987,-1164.5 "/>
<text text-anchor="middle" x="76.0073" y="-1149.3" font-family="Times,serif" font-size="14.00">time per element:</text>
<polyline fill="none" stroke="black" points="19.0278,-1142.5 132.987,-1142.5 "/>
<text text-anchor="middle" x="76.0073" y="-1127.3" font-family="Times,serif" font-size="14.00">element size:</text>
<polyline fill="none" stroke="black" points="19.0278,-1120.5 132.987,-1120.5 "/>
<text text-anchor="middle" x="76.0073" y="-1105.3" font-family="Times,serif" font-size="14.00">total size:</text>
<polyline fill="none" stroke="black" points="132.987,-1098.5 132.987,-1230.5 "/>
<text text-anchor="middle" x="270.48" y="-1215.3" font-family="Times,serif" font-size="14.00">Select Field: source_tile_id</text>
<polyline fill="none" stroke="black" points="132.987,-1208.5 407.973,-1208.5 "/>
<text text-anchor="middle" x="270.48" y="-1193.3" font-family="Times,serif" font-size="14.00">(target_tile_position, List[tile_data])</text>
<polyline fill="none" stroke="black" points="132.987,-1186.5 407.973,-1186.5 "/>
<text text-anchor="middle" x="270.48" y="-1171.3" font-family="Times,serif" font-size="14.00">16</text>
<polyline fill="none" stroke="black" points="132.987,-1164.5 407.973,-1164.5 "/>
<text text-anchor="middle" x="270.48" y="-1149.3" font-family="Times,serif" font-size="14.00">54.1ns</text>
<polyline fill="none" stroke="black" points="132.987,-1142.5 407.973,-1142.5 "/>
<text text-anchor="middle" x="270.48" y="-1127.3" font-family="Times,serif" font-size="14.00">Min: 370 bytes, Mean: 871 bytes, Max: 1.3kB</text>
<polyline fill="none" stroke="black" points="132.987,-1120.5 407.973,-1120.5 "/>
<text text-anchor="middle" x="270.48" y="-1105.3" font-family="Times,serif" font-size="14.00">13.9kB</text>
</g>
<!-- 1008415098549472147&#45;&gt;4604392684841477385 -->
<g id="edge9" class="edge"><title>1008415098549472147&#45;&gt;4604392684841477385</title>
<path fill="none" stroke="black" stroke-dasharray="5,2" d="M155.408,-1098.45C152.052,-1092.48 149.152,-1086.3 146.949,-1080 144.297,-1072.42 144.017,-1064.87 145.444,-1057.53"/>
<polygon fill="black" stroke="black" points="148.884,-1058.25 148.386,-1047.66 142.175,-1056.25 148.884,-1058.25"/>
<text text-anchor="middle" x="169.276" y="-1068.8" font-family="Times,serif" font-size="14.00">flatMap</text>
</g>
<!-- 1008415098549472147&#45;&gt;4604392684841477385 -->
<g id="edge10" class="edge"><title>1008415098549472147&#45;&gt;4604392684841477385</title>
<path fill="none" stroke="black" stroke-dasharray="5,2" d="M206.993,-1098.41C206.736,-1085.25 206.683,-1071.3 206.836,-1057.82"/>
<polygon fill="black" stroke="black" points="210.338,-1057.67 206.992,-1047.62 203.339,-1057.56 210.338,-1057.67"/>
</g>
<!-- 1008415098549472147&#45;&gt;4604392684841477385 -->
<g id="edge11" class="edge"><title>1008415098549472147&#45;&gt;4604392684841477385</title>
<path fill="none" stroke="black" stroke-dasharray="5,2" d="M220.008,-1098.41C220.265,-1085.25 220.318,-1071.3 220.165,-1057.82"/>
<polygon fill="black" stroke="black" points="223.662,-1057.56 220.009,-1047.62 216.663,-1057.67 223.662,-1057.56"/>
</g>
<!-- 7376548333203033266 -->
<g id="node8" class="node"><title>7376548333203033266</title>
<polygon fill="lightgreen" stroke="black" points="96.7764,-1281.5 96.7764,-1413.5 330.225,-1413.5 330.225,-1281.5 96.7764,-1281.5"/>
<text text-anchor="middle" x="153.756" y="-1398.3" font-family="Times,serif" font-size="14.00">operation:</text>
<polyline fill="none" stroke="black" points="96.7764,-1391.5 210.735,-1391.5 "/>
<text text-anchor="middle" x="153.756" y="-1376.3" font-family="Times,serif" font-size="14.00">output type:</text>
<polyline fill="none" stroke="black" points="96.7764,-1369.5 210.735,-1369.5 "/>
<text text-anchor="middle" x="153.756" y="-1354.3" font-family="Times,serif" font-size="14.00">elements:</text>
<polyline fill="none" stroke="black" points="96.7764,-1347.5 210.735,-1347.5 "/>
<text text-anchor="middle" x="153.756" y="-1332.3" font-family="Times,serif" font-size="14.00">time per element:</text>
<polyline fill="none" stroke="black" points="96.7764,-1325.5 210.735,-1325.5 "/>
<text text-anchor="middle" x="153.756" y="-1310.3" font-family="Times,serif" font-size="14.00">element size:</text>
<polyline fill="none" stroke="black" points="96.7764,-1303.5 210.735,-1303.5 "/>
<text text-anchor="middle" x="153.756" y="-1288.3" font-family="Times,serif" font-size="14.00">total size:</text>
<polyline fill="none" stroke="black" points="210.735,-1281.5 210.735,-1413.5 "/>
<text text-anchor="middle" x="270.48" y="-1398.3" font-family="Times,serif" font-size="14.00">Shuffle Tile Fields</text>
<polyline fill="none" stroke="black" points="210.735,-1391.5 330.225,-1391.5 "/>
<text text-anchor="middle" x="270.48" y="-1376.3" font-family="Times,serif" font-size="14.00">tile_data</text>
<polyline fill="none" stroke="black" points="210.735,-1369.5 330.225,-1369.5 "/>
<text text-anchor="middle" x="270.48" y="-1354.3" font-family="Times,serif" font-size="14.00">81</text>
<polyline fill="none" stroke="black" points="210.735,-1347.5 330.225,-1347.5 "/>
<text text-anchor="middle" x="270.48" y="-1332.3" font-family="Times,serif" font-size="14.00">6.2ns</text>
<polyline fill="none" stroke="black" points="210.735,-1325.5 330.225,-1325.5 "/>
<text text-anchor="middle" x="270.48" y="-1310.3" font-family="Times,serif" font-size="14.00">Mean: 361 bytes</text>
<polyline fill="none" stroke="black" points="210.735,-1303.5 330.225,-1303.5 "/>
<text text-anchor="middle" x="270.48" y="-1288.3" font-family="Times,serif" font-size="14.00">29.2kB</text>
</g>
<!-- 7376548333203033266&#45;&gt;1008415098549472147 -->
<g id="edge8" class="edge"><title>7376548333203033266&#45;&gt;1008415098549472147</title>
<path fill="none" stroke="black" stroke-dasharray="5,2" d="M213.5,-1281.41C213.5,-1268.25 213.5,-1254.3 213.5,-1240.82"/>
<polygon fill="black" stroke="black" points="217.001,-1240.62 213.5,-1230.62 210.001,-1240.62 217.001,-1240.62"/>
<text text-anchor="middle" x="238" y="-1251.8" font-family="Times,serif" font-size="14.00">groupBy</text>
</g>
<!-- 1785553801784165075 -->
<g id="node9" class="node"><title>1785553801784165075</title>
<polygon fill="yellow" stroke="black" points="13.3403,-1464.5 13.3403,-1596.5 413.661,-1596.5 413.661,-1464.5 13.3403,-1464.5"/>
<text text-anchor="middle" x="70.3198" y="-1581.3" font-family="Times,serif" font-size="14.00">operation:</text>
<polyline fill="none" stroke="black" points="13.3403,-1574.5 127.299,-1574.5 "/>
<text text-anchor="middle" x="70.3198" y="-1559.3" font-family="Times,serif" font-size="14.00">output type:</text>
<polyline fill="none" stroke="black" points="13.3403,-1552.5 127.299,-1552.5 "/>
<text text-anchor="middle" x="70.3198" y="-1537.3" font-family="Times,serif" font-size="14.00">elements:</text>
<polyline fill="none" stroke="black" points="13.3403,-1530.5 127.299,-1530.5 "/>
<text text-anchor="middle" x="70.3198" y="-1515.3" font-family="Times,serif" font-size="14.00">time per element:</text>
<polyline fill="none" stroke="black" points="13.3403,-1508.5 127.299,-1508.5 "/>
<text text-anchor="middle" x="70.3198" y="-1493.3" font-family="Times,serif" font-size="14.00">element size:</text>
<polyline fill="none" stroke="black" points="13.3403,-1486.5 127.299,-1486.5 "/>
<text text-anchor="middle" x="70.3198" y="-1471.3" font-family="Times,serif" font-size="14.00">total size:</text>
<polyline fill="none" stroke="black" points="127.299,-1464.5 127.299,-1596.5 "/>
<text text-anchor="middle" x="270.48" y="-1581.3" font-family="Times,serif" font-size="14.00">calc_input_tiles</text>
<polyline fill="none" stroke="black" points="127.299,-1574.5 413.661,-1574.5 "/>
<text text-anchor="middle" x="270.48" y="-1559.3" font-family="Times,serif" font-size="14.00">(url, (source_tile_position, target_tile_position))</text>
<polyline fill="none" stroke="black" points="127.299,-1552.5 413.661,-1552.5 "/>
<text text-anchor="middle" x="270.48" y="-1537.3" font-family="Times,serif" font-size="14.00">81</text>
<polyline fill="none" stroke="black" points="127.299,-1530.5 413.661,-1530.5 "/>
<text text-anchor="middle" x="270.48" y="-1515.3" font-family="Times,serif" font-size="14.00">10.9ns</text>
<polyline fill="none" stroke="black" points="127.299,-1508.5 413.661,-1508.5 "/>
<text text-anchor="middle" x="270.48" y="-1493.3" font-family="Times,serif" font-size="14.00">Mean: 336 bytes</text>
<polyline fill="none" stroke="black" points="127.299,-1486.5 413.661,-1486.5 "/>
<text text-anchor="middle" x="270.48" y="-1471.3" font-family="Times,serif" font-size="14.00">27.2kB</text>
</g>
<!-- 1785553801784165075&#45;&gt;7376548333203033266 -->
<g id="edge7" class="edge"><title>1785553801784165075&#45;&gt;7376548333203033266</title>
<path fill="none" stroke="black" stroke-dasharray="5,2" d="M213.5,-1464.41C213.5,-1451.25 213.5,-1437.3 213.5,-1423.82"/>
<polygon fill="black" stroke="black" points="217.001,-1423.62 213.5,-1413.62 210.001,-1423.62 217.001,-1423.62"/>
<text text-anchor="middle" x="225.552" y="-1434.8" font-family="Times,serif" font-size="14.00">map</text>
</g>
<!-- 6991874638929843852 -->
<g id="node10" class="node"><title>6991874638929843852</title>
<polygon fill="yellow" stroke="black" points="75.814,-1647.5 75.814,-1779.5 351.187,-1779.5 351.187,-1647.5 75.814,-1647.5"/>
<text text-anchor="middle" x="132.793" y="-1764.3" font-family="Times,serif" font-size="14.00">operation:</text>
<polyline fill="none" stroke="black" points="75.814,-1757.5 189.773,-1757.5 "/>
<text text-anchor="middle" x="132.793" y="-1742.3" font-family="Times,serif" font-size="14.00">output type:</text>
<polyline fill="none" stroke="black" points="75.814,-1735.5 189.773,-1735.5 "/>
<text text-anchor="middle" x="132.793" y="-1720.3" font-family="Times,serif" font-size="14.00">elements:</text>
<polyline fill="none" stroke="black" points="75.814,-1713.5 189.773,-1713.5 "/>
<text text-anchor="middle" x="132.793" y="-1698.3" font-family="Times,serif" font-size="14.00">time per element:</text>
<polyline fill="none" stroke="black" points="75.814,-1691.5 189.773,-1691.5 "/>
<text text-anchor="middle" x="132.793" y="-1676.3" font-family="Times,serif" font-size="14.00">element size:</text>
<polyline fill="none" stroke="black" points="75.814,-1669.5 189.773,-1669.5 "/>
<text text-anchor="middle" x="132.793" y="-1654.3" font-family="Times,serif" font-size="14.00">total size:</text>
<polyline fill="none" stroke="black" points="189.773,-1647.5 189.773,-1779.5 "/>
<text text-anchor="middle" x="270.48" y="-1764.3" font-family="Times,serif" font-size="14.00">get_output_tiles</text>
<polyline fill="none" stroke="black" points="189.773,-1757.5 351.187,-1757.5 "/>
<text text-anchor="middle" x="270.48" y="-1742.3" font-family="Times,serif" font-size="14.00">(url, source_tile_position)</text>
<polyline fill="none" stroke="black" points="189.773,-1735.5 351.187,-1735.5 "/>
<text text-anchor="middle" x="270.48" y="-1720.3" font-family="Times,serif" font-size="14.00">16</text>
<polyline fill="none" stroke="black" points="189.773,-1713.5 351.187,-1713.5 "/>
<text text-anchor="middle" x="270.48" y="-1698.3" font-family="Times,serif" font-size="14.00">11.9ns</text>
<polyline fill="none" stroke="black" points="189.773,-1691.5 351.187,-1691.5 "/>
<text text-anchor="middle" x="270.48" y="-1676.3" font-family="Times,serif" font-size="14.00">Mean: 233 bytes</text>
<polyline fill="none" stroke="black" points="189.773,-1669.5 351.187,-1669.5 "/>
<text text-anchor="middle" x="270.48" y="-1654.3" font-family="Times,serif" font-size="14.00">3.7kB</text>
</g>
<!-- 6991874638929843852&#45;&gt;1785553801784165075 -->
<g id="edge4" class="edge"><title>6991874638929843852&#45;&gt;1785553801784165075</title>
<path fill="none" stroke="black" stroke-dasharray="5,2" d="M121.008,-1647.37C116.596,-1641.59 112.724,-1635.47 109.625,-1629 105.84,-1621.1 105.09,-1613.52 106.606,-1606.33"/>
<polygon fill="black" stroke="black" points="109.956,-1607.35 110.007,-1596.76 103.36,-1605.01 109.956,-1607.35"/>
<text text-anchor="middle" x="150.938" y="-1617.8" font-family="Times,serif" font-size="14.00">flatMapValues</text>
</g>
<!-- 6991874638929843852&#45;&gt;1785553801784165075 -->
<g id="edge5" class="edge"><title>6991874638929843852&#45;&gt;1785553801784165075</title>
<path fill="none" stroke="black" stroke-dasharray="5,2" d="M206.993,-1647.41C206.736,-1634.25 206.683,-1620.3 206.836,-1606.82"/>
<polygon fill="black" stroke="black" points="210.338,-1606.67 206.992,-1596.62 203.339,-1606.56 210.338,-1606.67"/>
</g>
<!-- 6991874638929843852&#45;&gt;1785553801784165075 -->
<g id="edge6" class="edge"><title>6991874638929843852&#45;&gt;1785553801784165075</title>
<path fill="none" stroke="black" stroke-dasharray="5,2" d="M220.008,-1647.41C220.265,-1634.25 220.318,-1620.3 220.165,-1606.82"/>
<polygon fill="black" stroke="black" points="223.662,-1606.56 220.009,-1596.62 216.663,-1606.67 223.662,-1606.56"/>
</g>
<!-- &#45;5209093605907626360 -->
<g id="node11" class="node"><title>&#45;5209093605907626360</title>
<polygon fill="turquoise" stroke="black" points="92.1484,-1830.5 92.1484,-1962.5 334.853,-1962.5 334.853,-1830.5 92.1484,-1830.5"/>
<text text-anchor="middle" x="149.128" y="-1947.3" font-family="Times,serif" font-size="14.00">operation:</text>
<polyline fill="none" stroke="black" points="92.1484,-1940.5 206.107,-1940.5 "/>
<text text-anchor="middle" x="149.128" y="-1925.3" font-family="Times,serif" font-size="14.00">output type:</text>
<polyline fill="none" stroke="black" points="92.1484,-1918.5 206.107,-1918.5 "/>
<text text-anchor="middle" x="149.128" y="-1903.3" font-family="Times,serif" font-size="14.00">elements:</text>
<polyline fill="none" stroke="black" points="92.1484,-1896.5 206.107,-1896.5 "/>
<text text-anchor="middle" x="149.128" y="-1881.3" font-family="Times,serif" font-size="14.00">time per element:</text>
<polyline fill="none" stroke="black" points="92.1484,-1874.5 206.107,-1874.5 "/>
<text text-anchor="middle" x="149.128" y="-1859.3" font-family="Times,serif" font-size="14.00">element size:</text>
<polyline fill="none" stroke="black" points="92.1484,-1852.5 206.107,-1852.5 "/>
<text text-anchor="middle" x="149.128" y="-1837.3" font-family="Times,serif" font-size="14.00">total size:</text>
<polyline fill="none" stroke="black" points="206.107,-1830.5 206.107,-1962.5 "/>
<text text-anchor="middle" x="270.48" y="-1947.3" font-family="Times,serif" font-size="14.00">parallelize : Custom</text>
<polyline fill="none" stroke="black" points="206.107,-1940.5 334.853,-1940.5 "/>
<text text-anchor="middle" x="270.48" y="-1925.3" font-family="Times,serif" font-size="14.00">url</text>
<polyline fill="none" stroke="black" points="206.107,-1918.5 334.853,-1918.5 "/>
<text text-anchor="middle" x="270.48" y="-1903.3" font-family="Times,serif" font-size="14.00">1</text>
<polyline fill="none" stroke="black" points="206.107,-1896.5 334.853,-1896.5 "/>
<text text-anchor="middle" x="270.48" y="-1881.3" font-family="Times,serif" font-size="14.00">8.1ns</text>
<polyline fill="none" stroke="black" points="206.107,-1874.5 334.853,-1874.5 "/>
<text text-anchor="middle" x="270.48" y="-1859.3" font-family="Times,serif" font-size="14.00">Mean: 37 bytes</text>
<polyline fill="none" stroke="black" points="206.107,-1852.5 334.853,-1852.5 "/>
<text text-anchor="middle" x="270.48" y="-1837.3" font-family="Times,serif" font-size="14.00">37 bytes</text>
</g>
<!-- &#45;5209093605907626360&#45;&gt;6991874638929843852 -->
<g id="edge1" class="edge"><title>&#45;5209093605907626360&#45;&gt;6991874638929843852</title>
<path fill="none" stroke="black" stroke-dasharray="5,2" d="M148.386,-1830.34C144.252,-1819.98 143.092,-1809.03 146.949,-1798 148.05,-1794.85 149.326,-1791.73 150.746,-1788.65"/>
<polygon fill="black" stroke="black" points="153.963,-1790.05 155.408,-1779.55 147.733,-1786.86 153.963,-1790.05"/>
<text text-anchor="middle" x="169.276" y="-1800.8" font-family="Times,serif" font-size="14.00">flatMap</text>
</g>
<!-- &#45;5209093605907626360&#45;&gt;6991874638929843852 -->
<g id="edge2" class="edge"><title>&#45;5209093605907626360&#45;&gt;6991874638929843852</title>
<path fill="none" stroke="black" stroke-dasharray="5,2" d="M206.993,-1830.41C206.736,-1817.25 206.683,-1803.3 206.836,-1789.82"/>
<polygon fill="black" stroke="black" points="210.338,-1789.67 206.992,-1779.62 203.339,-1789.56 210.338,-1789.67"/>
</g>
<!-- &#45;5209093605907626360&#45;&gt;6991874638929843852 -->
<g id="edge3" class="edge"><title>&#45;5209093605907626360&#45;&gt;6991874638929843852</title>
<path fill="none" stroke="black" stroke-dasharray="5,2" d="M220.008,-1830.41C220.265,-1817.25 220.318,-1803.3 220.165,-1789.82"/>
<polygon fill="black" stroke="black" points="223.662,-1789.56 220.009,-1779.62 216.663,-1789.67 223.662,-1789.56"/>
</g>
</g>
</svg>
