<?xml version="1.0" encoding="UTF-8" standalone="no"?>
<!DOCTYPE svg PUBLIC "-//W3C//DTD SVG 1.1//EN"
 "http://www.w3.org/Graphics/SVG/1.1/DTD/svg11.dtd">
<!-- Generated by graphviz version 2.38.0 (20140413.2041)
 -->
<!-- Title: G Pages: 1 -->
<svg width="408pt" height="1422pt"
 viewBox="0.00 0.00 408.32 1422.00" xmlns="http://www.w3.org/2000/svg" xmlns:xlink="http://www.w3.org/1999/xlink">
<g id="graph0" class="graph" transform="scale(1 1) rotate(0) translate(4 1418)">
<title>G</title>
<polygon fill="white" stroke="#000000" points="-4,4 -4,-1418 404.32,-1418 404.32,4 -4,4"/>
<!-- &#45;244176558162337069 -->
<g id="node1" class="node"><title>&#45;244176558162337069</title>
<polygon fill="lightgreen" stroke="black" points="0.659668,-0.5 0.659668,-132.5 399.661,-132.5 399.661,-0.5 0.659668,-0.5"/>
<text text-anchor="middle" x="57.6392" y="-117.3" font-family="Times,serif" font-size="14.00">operation:</text>
<polyline fill="none" stroke="black" points="0.659668,-110.5 114.619,-110.5 "/>
<text text-anchor="middle" x="57.6392" y="-95.3" font-family="Times,serif" font-size="14.00">output type:</text>
<polyline fill="none" stroke="black" points="0.659668,-88.5 114.619,-88.5 "/>
<text text-anchor="middle" x="57.6392" y="-73.3" font-family="Times,serif" font-size="14.00">elements:</text>
<polyline fill="none" stroke="black" points="0.659668,-66.5 114.619,-66.5 "/>
<text text-anchor="middle" x="57.6392" y="-51.3" font-family="Times,serif" font-size="14.00">time per element:</text>
<polyline fill="none" stroke="black" points="0.659668,-44.5 114.619,-44.5 "/>
<text text-anchor="middle" x="57.6392" y="-29.3" font-family="Times,serif" font-size="14.00">element size:</text>
<polyline fill="none" stroke="black" points="0.659668,-22.5 114.619,-22.5 "/>
<text text-anchor="middle" x="57.6392" y="-7.3" font-family="Times,serif" font-size="14.00">total size:</text>
<polyline fill="none" stroke="black" points="114.619,-0.5 114.619,-132.5 "/>
<text text-anchor="middle" x="257.14" y="-117.3" font-family="Times,serif" font-size="14.00">ti_full_reconstruction</text>
<polyline fill="none" stroke="black" points="114.619,-110.5 399.661,-110.5 "/>
<text text-anchor="middle" x="257.14" y="-95.3" font-family="Times,serif" font-size="14.00">(source_tile_position, ndarray[int64](120, 120))</text>
<polyline fill="none" stroke="black" points="114.619,-88.5 399.661,-88.5 "/>
<text text-anchor="middle" x="257.14" y="-73.3" font-family="Times,serif" font-size="14.00">100</text>
<polyline fill="none" stroke="black" points="114.619,-66.5 399.661,-66.5 "/>
<text text-anchor="middle" x="257.14" y="-51.3" font-family="Times,serif" font-size="14.00">366.4s</text>
<polyline fill="none" stroke="black" points="114.619,-44.5 399.661,-44.5 "/>
<text text-anchor="middle" x="257.14" y="-29.3" font-family="Times,serif" font-size="14.00">Mean: 115.5kB</text>
<polyline fill="none" stroke="black" points="114.619,-22.5 399.661,-22.5 "/>
<text text-anchor="middle" x="257.14" y="-7.3" font-family="Times,serif" font-size="14.00">11.6MB</text>
</g>
<!-- &#45;583059597794406093 -->
<g id="node2" class="node"><title>&#45;583059597794406093</title>
<polygon fill="orange" stroke="black" points="8.40137,-183.5 8.40137,-315.5 391.919,-315.5 391.919,-183.5 8.40137,-183.5"/>
<text text-anchor="middle" x="65.3809" y="-300.3" font-family="Times,serif" font-size="14.00">operation:</text>
<polyline fill="none" stroke="black" points="8.40137,-293.5 122.36,-293.5 "/>
<text text-anchor="middle" x="65.3809" y="-278.3" font-family="Times,serif" font-size="14.00">output type:</text>
<polyline fill="none" stroke="black" points="8.40137,-271.5 122.36,-271.5 "/>
<text text-anchor="middle" x="65.3809" y="-256.3" font-family="Times,serif" font-size="14.00">elements:</text>
<polyline fill="none" stroke="black" points="8.40137,-249.5 122.36,-249.5 "/>
<text text-anchor="middle" x="65.3809" y="-234.3" font-family="Times,serif" font-size="14.00">time per element:</text>
<polyline fill="none" stroke="black" points="8.40137,-227.5 122.36,-227.5 "/>
<text text-anchor="middle" x="65.3809" y="-212.3" font-family="Times,serif" font-size="14.00">element size:</text>
<polyline fill="none" stroke="black" points="8.40137,-205.5 122.36,-205.5 "/>
<text text-anchor="middle" x="65.3809" y="-190.3" font-family="Times,serif" font-size="14.00">total size:</text>
<polyline fill="none" stroke="black" points="122.36,-183.5 122.36,-315.5 "/>
<text text-anchor="middle" x="257.14" y="-300.3" font-family="Times,serif" font-size="14.00">Select Field: target_tile_id</text>
<polyline fill="none" stroke="black" points="122.36,-293.5 391.919,-293.5 "/>
<text text-anchor="middle" x="257.14" y="-278.3" font-family="Times,serif" font-size="14.00">(source_tile_position, List[tile_data])</text>
<polyline fill="none" stroke="black" points="122.36,-271.5 391.919,-271.5 "/>
<text text-anchor="middle" x="257.14" y="-256.3" font-family="Times,serif" font-size="14.00">100</text>
<polyline fill="none" stroke="black" points="122.36,-249.5 391.919,-249.5 "/>
<text text-anchor="middle" x="257.14" y="-234.3" font-family="Times,serif" font-size="14.00">9.3ms</text>
<polyline fill="none" stroke="black" points="122.36,-227.5 391.919,-227.5 "/>
<text text-anchor="middle" x="257.14" y="-212.3" font-family="Times,serif" font-size="14.00">Min: 14.9kB, Mean: 106.1kB, Max: 130.9kB</text>
<polyline fill="none" stroke="black" points="122.36,-205.5 391.919,-205.5 "/>
<text text-anchor="middle" x="257.14" y="-190.3" font-family="Times,serif" font-size="14.00">10.6MB</text>
</g>
<!-- &#45;583059597794406093&#45;&gt;&#45;244176558162337069 -->
<g id="edge13" class="edge"><title>&#45;583059597794406093&#45;&gt;&#45;244176558162337069</title>
<path fill="none" stroke="black" stroke-dasharray="5,2" d="M200.16,-183.411C200.16,-170.246 200.16,-156.301 200.16,-142.819"/>
<polygon fill="black" stroke="black" points="203.66,-142.62 200.16,-132.62 196.66,-142.62 203.66,-142.62"/>
<text text-anchor="middle" x="212.212" y="-153.8" font-family="Times,serif" font-size="14.00">map</text>
</g>
<!-- 7601399134551662438 -->
<g id="node3" class="node"><title>7601399134551662438</title>
<polygon fill="yellow" stroke="black" points="95.1289,-366.5 95.1289,-498.5 305.191,-498.5 305.191,-366.5 95.1289,-366.5"/>
<text text-anchor="middle" x="152.108" y="-483.3" font-family="Times,serif" font-size="14.00">operation:</text>
<polyline fill="none" stroke="black" points="95.1289,-476.5 209.088,-476.5 "/>
<text text-anchor="middle" x="152.108" y="-461.3" font-family="Times,serif" font-size="14.00">output type:</text>
<polyline fill="none" stroke="black" points="95.1289,-454.5 209.088,-454.5 "/>
<text text-anchor="middle" x="152.108" y="-439.3" font-family="Times,serif" font-size="14.00">elements:</text>
<polyline fill="none" stroke="black" points="95.1289,-432.5 209.088,-432.5 "/>
<text text-anchor="middle" x="152.108" y="-417.3" font-family="Times,serif" font-size="14.00">time per element:</text>
<polyline fill="none" stroke="black" points="95.1289,-410.5 209.088,-410.5 "/>
<text text-anchor="middle" x="152.108" y="-395.3" font-family="Times,serif" font-size="14.00">element size:</text>
<polyline fill="none" stroke="black" points="95.1289,-388.5 209.088,-388.5 "/>
<text text-anchor="middle" x="152.108" y="-373.3" font-family="Times,serif" font-size="14.00">total size:</text>
<polyline fill="none" stroke="black" points="209.088,-366.5 209.088,-498.5 "/>
<text text-anchor="middle" x="257.14" y="-483.3" font-family="Times,serif" font-size="14.00">grp_tile_read</text>
<polyline fill="none" stroke="black" points="209.088,-476.5 305.191,-476.5 "/>
<text text-anchor="middle" x="257.14" y="-461.3" font-family="Times,serif" font-size="14.00">tile_data</text>
<polyline fill="none" stroke="black" points="209.088,-454.5 305.191,-454.5 "/>
<text text-anchor="middle" x="257.14" y="-439.3" font-family="Times,serif" font-size="14.00">729</text>
<polyline fill="none" stroke="black" points="209.088,-432.5 305.191,-432.5 "/>
<text text-anchor="middle" x="257.14" y="-417.3" font-family="Times,serif" font-size="14.00">250.4s</text>
<polyline fill="none" stroke="black" points="209.088,-410.5 305.191,-410.5 "/>
<text text-anchor="middle" x="257.14" y="-395.3" font-family="Times,serif" font-size="14.00">Mean: 14.9kB</text>
<polyline fill="none" stroke="black" points="209.088,-388.5 305.191,-388.5 "/>
<text text-anchor="middle" x="257.14" y="-373.3" font-family="Times,serif" font-size="14.00">10.9MB</text>
</g>
<!-- 7601399134551662438&#45;&gt;&#45;583059597794406093 -->
<g id="edge12" class="edge"><title>7601399134551662438&#45;&gt;&#45;583059597794406093</title>
<path fill="none" stroke="black" stroke-dasharray="5,2" d="M200.16,-366.411C200.16,-353.246 200.16,-339.301 200.16,-325.819"/>
<polygon fill="black" stroke="black" points="203.66,-325.62 200.16,-315.62 196.66,-325.62 203.66,-325.62"/>
<text text-anchor="middle" x="224.66" y="-336.8" font-family="Times,serif" font-size="14.00">groupBy</text>
</g>
<!-- &#45;8861177395544433458 -->
<g id="node4" class="node"><title>&#45;8861177395544433458</title>
<polygon fill="orange" stroke="black" points="15.7944,-549.5 15.7944,-681.5 384.526,-681.5 384.526,-549.5 15.7944,-549.5"/>
<text text-anchor="middle" x="72.7739" y="-666.3" font-family="Times,serif" font-size="14.00">operation:</text>
<polyline fill="none" stroke="black" points="15.7944,-659.5 129.753,-659.5 "/>
<text text-anchor="middle" x="72.7739" y="-644.3" font-family="Times,serif" font-size="14.00">output type:</text>
<polyline fill="none" stroke="black" points="15.7944,-637.5 129.753,-637.5 "/>
<text text-anchor="middle" x="72.7739" y="-622.3" font-family="Times,serif" font-size="14.00">elements:</text>
<polyline fill="none" stroke="black" points="15.7944,-615.5 129.753,-615.5 "/>
<text text-anchor="middle" x="72.7739" y="-600.3" font-family="Times,serif" font-size="14.00">time per element:</text>
<polyline fill="none" stroke="black" points="15.7944,-593.5 129.753,-593.5 "/>
<text text-anchor="middle" x="72.7739" y="-578.3" font-family="Times,serif" font-size="14.00">element size:</text>
<polyline fill="none" stroke="black" points="15.7944,-571.5 129.753,-571.5 "/>
<text text-anchor="middle" x="72.7739" y="-556.3" font-family="Times,serif" font-size="14.00">total size:</text>
<polyline fill="none" stroke="black" points="129.753,-549.5 129.753,-681.5 "/>
<text text-anchor="middle" x="257.14" y="-666.3" font-family="Times,serif" font-size="14.00">Select Field: source_tile_id</text>
<polyline fill="none" stroke="black" points="129.753,-659.5 384.526,-659.5 "/>
<text text-anchor="middle" x="257.14" y="-644.3" font-family="Times,serif" font-size="14.00">(target_tile_position, List[tile_data])</text>
<polyline fill="none" stroke="black" points="129.753,-637.5 384.526,-637.5 "/>
<text text-anchor="middle" x="257.14" y="-622.3" font-family="Times,serif" font-size="14.00">100</text>
<polyline fill="none" stroke="black" points="129.753,-615.5 384.526,-615.5 "/>
<text text-anchor="middle" x="257.14" y="-600.3" font-family="Times,serif" font-size="14.00">4.9ms</text>
<polyline fill="none" stroke="black" points="129.753,-593.5 384.526,-593.5 "/>
<text text-anchor="middle" x="257.14" y="-578.3" font-family="Times,serif" font-size="14.00">Min: 370 bytes, Mean: 1.1kB, Max: 1.3kB</text>
<polyline fill="none" stroke="black" points="129.753,-571.5 384.526,-571.5 "/>
<text text-anchor="middle" x="257.14" y="-556.3" font-family="Times,serif" font-size="14.00">114.1kB</text>
</g>
<!-- &#45;8861177395544433458&#45;&gt;7601399134551662438 -->
<g id="edge9" class="edge"><title>&#45;8861177395544433458&#45;&gt;7601399134551662438</title>
<path fill="none" stroke="black" stroke-dasharray="5,2" d="M142.068,-549.446C138.711,-543.478 135.812,-537.299 133.608,-531 130.957,-523.419 130.677,-515.874 132.104,-508.533"/>
<polygon fill="black" stroke="black" points="135.543,-509.245 135.046,-498.662 128.835,-507.246 135.543,-509.245"/>
<text text-anchor="middle" x="155.936" y="-519.8" font-family="Times,serif" font-size="14.00">flatMap</text>
</g>
<!-- &#45;8861177395544433458&#45;&gt;7601399134551662438 -->
<g id="edge10" class="edge"><title>&#45;8861177395544433458&#45;&gt;7601399134551662438</title>
<path fill="none" stroke="black" stroke-dasharray="5,2" d="M193.652,-549.411C193.395,-536.246 193.343,-522.301 193.495,-508.819"/>
<polygon fill="black" stroke="black" points="196.998,-508.672 193.652,-498.62 189.999,-508.565 196.998,-508.672"/>
</g>
<!-- &#45;8861177395544433458&#45;&gt;7601399134551662438 -->
<g id="edge11" class="edge"><title>&#45;8861177395544433458&#45;&gt;7601399134551662438</title>
<path fill="none" stroke="black" stroke-dasharray="5,2" d="M206.668,-549.411C206.925,-536.246 206.978,-522.301 206.825,-508.819"/>
<polygon fill="black" stroke="black" points="210.322,-508.565 206.668,-498.62 203.322,-508.672 210.322,-508.565"/>
</g>
<!-- 4358686000550233698 -->
<g id="node5" class="node"><title>4358686000550233698</title>
<polygon fill="lightgreen" stroke="black" points="83.436,-732.5 83.436,-864.5 316.884,-864.5 316.884,-732.5 83.436,-732.5"/>
<text text-anchor="middle" x="140.416" y="-849.3" font-family="Times,serif" font-size="14.00">operation:</text>
<polyline fill="none" stroke="black" points="83.436,-842.5 197.395,-842.5 "/>
<text text-anchor="middle" x="140.416" y="-827.3" font-family="Times,serif" font-size="14.00">output type:</text>
<polyline fill="none" stroke="black" points="83.436,-820.5 197.395,-820.5 "/>
<text text-anchor="middle" x="140.416" y="-805.3" font-family="Times,serif" font-size="14.00">elements:</text>
<polyline fill="none" stroke="black" points="83.436,-798.5 197.395,-798.5 "/>
<text text-anchor="middle" x="140.416" y="-783.3" font-family="Times,serif" font-size="14.00">time per element:</text>
<polyline fill="none" stroke="black" points="83.436,-776.5 197.395,-776.5 "/>
<text text-anchor="middle" x="140.416" y="-761.3" font-family="Times,serif" font-size="14.00">element size:</text>
<polyline fill="none" stroke="black" points="83.436,-754.5 197.395,-754.5 "/>
<text text-anchor="middle" x="140.416" y="-739.3" font-family="Times,serif" font-size="14.00">total size:</text>
<polyline fill="none" stroke="black" points="197.395,-732.5 197.395,-864.5 "/>
<text text-anchor="middle" x="257.14" y="-849.3" font-family="Times,serif" font-size="14.00">Shuffle Tile Fields</text>
<polyline fill="none" stroke="black" points="197.395,-842.5 316.884,-842.5 "/>
<text text-anchor="middle" x="257.14" y="-827.3" font-family="Times,serif" font-size="14.00">tile_data</text>
<polyline fill="none" stroke="black" points="197.395,-820.5 316.884,-820.5 "/>
<text text-anchor="middle" x="257.14" y="-805.3" font-family="Times,serif" font-size="14.00">729</text>
<polyline fill="none" stroke="black" points="197.395,-798.5 316.884,-798.5 "/>
<text text-anchor="middle" x="257.14" y="-783.3" font-family="Times,serif" font-size="14.00">1.8ms</text>
<polyline fill="none" stroke="black" points="197.395,-776.5 316.884,-776.5 "/>
<text text-anchor="middle" x="257.14" y="-761.3" font-family="Times,serif" font-size="14.00">Mean: 361 bytes</text>
<polyline fill="none" stroke="black" points="197.395,-754.5 316.884,-754.5 "/>
<text text-anchor="middle" x="257.14" y="-739.3" font-family="Times,serif" font-size="14.00">263.2kB</text>
</g>
<!-- 4358686000550233698&#45;&gt;&#45;8861177395544433458 -->
<g id="edge8" class="edge"><title>4358686000550233698&#45;&gt;&#45;8861177395544433458</title>
<path fill="none" stroke="black" stroke-dasharray="5,2" d="M200.16,-732.411C200.16,-719.246 200.16,-705.301 200.16,-691.819"/>
<polygon fill="black" stroke="black" points="203.66,-691.62 200.16,-681.62 196.66,-691.62 203.66,-691.62"/>
<text text-anchor="middle" x="224.66" y="-702.8" font-family="Times,serif" font-size="14.00">groupBy</text>
</g>
<!-- 3554296895169700846 -->
<g id="node6" class="node"><title>3554296895169700846</title>
<polygon fill="yellow" stroke="black" points="0,-915.5 0,-1047.5 400.32,-1047.5 400.32,-915.5 0,-915.5"/>
<text text-anchor="middle" x="56.9795" y="-1032.3" font-family="Times,serif" font-size="14.00">operation:</text>
<polyline fill="none" stroke="black" points="0,-1025.5 113.959,-1025.5 "/>
<text text-anchor="middle" x="56.9795" y="-1010.3" font-family="Times,serif" font-size="14.00">output type:</text>
<polyline fill="none" stroke="black" points="0,-1003.5 113.959,-1003.5 "/>
<text text-anchor="middle" x="56.9795" y="-988.3" font-family="Times,serif" font-size="14.00">elements:</text>
<polyline fill="none" stroke="black" points="0,-981.5 113.959,-981.5 "/>
<text text-anchor="middle" x="56.9795" y="-966.3" font-family="Times,serif" font-size="14.00">time per element:</text>
<polyline fill="none" stroke="black" points="0,-959.5 113.959,-959.5 "/>
<text text-anchor="middle" x="56.9795" y="-944.3" font-family="Times,serif" font-size="14.00">element size:</text>
<polyline fill="none" stroke="black" points="0,-937.5 113.959,-937.5 "/>
<text text-anchor="middle" x="56.9795" y="-922.3" font-family="Times,serif" font-size="14.00">total size:</text>
<polyline fill="none" stroke="black" points="113.959,-915.5 113.959,-1047.5 "/>
<text text-anchor="middle" x="257.14" y="-1032.3" font-family="Times,serif" font-size="14.00">calc_input_tiles</text>
<polyline fill="none" stroke="black" points="113.959,-1025.5 400.32,-1025.5 "/>
<text text-anchor="middle" x="257.14" y="-1010.3" font-family="Times,serif" font-size="14.00">(url, (source_tile_position, target_tile_position))</text>
<polyline fill="none" stroke="black" points="113.959,-1003.5 400.32,-1003.5 "/>
<text text-anchor="middle" x="257.14" y="-988.3" font-family="Times,serif" font-size="14.00">729</text>
<polyline fill="none" stroke="black" points="113.959,-981.5 400.32,-981.5 "/>
<text text-anchor="middle" x="257.14" y="-966.3" font-family="Times,serif" font-size="14.00">5.4ms</text>
<polyline fill="none" stroke="black" points="113.959,-959.5 400.32,-959.5 "/>
<text text-anchor="middle" x="257.14" y="-944.3" font-family="Times,serif" font-size="14.00">Mean: 336 bytes</text>
<polyline fill="none" stroke="black" points="113.959,-937.5 400.32,-937.5 "/>
<text text-anchor="middle" x="257.14" y="-922.3" font-family="Times,serif" font-size="14.00">244.9kB</text>
</g>
<!-- 3554296895169700846&#45;&gt;4358686000550233698 -->
<g id="edge7" class="edge"><title>3554296895169700846&#45;&gt;4358686000550233698</title>
<path fill="none" stroke="black" stroke-dasharray="5,2" d="M200.16,-915.411C200.16,-902.246 200.16,-888.301 200.16,-874.819"/>
<polygon fill="black" stroke="black" points="203.66,-874.62 200.16,-864.62 196.66,-874.62 203.66,-874.62"/>
<text text-anchor="middle" x="212.212" y="-885.8" font-family="Times,serif" font-size="14.00">map</text>
</g>
<!-- &#45;72891612751977084 -->
<g id="node7" class="node"><title>&#45;72891612751977084</title>
<polygon fill="yellow" stroke="black" points="62.4736,-1098.5 62.4736,-1230.5 337.847,-1230.5 337.847,-1098.5 62.4736,-1098.5"/>
<text text-anchor="middle" x="119.453" y="-1215.3" font-family="Times,serif" font-size="14.00">operation:</text>
<polyline fill="none" stroke="black" points="62.4736,-1208.5 176.433,-1208.5 "/>
<text text-anchor="middle" x="119.453" y="-1193.3" font-family="Times,serif" font-size="14.00">output type:</text>
<polyline fill="none" stroke="black" points="62.4736,-1186.5 176.433,-1186.5 "/>
<text text-anchor="middle" x="119.453" y="-1171.3" font-family="Times,serif" font-size="14.00">elements:</text>
<polyline fill="none" stroke="black" points="62.4736,-1164.5 176.433,-1164.5 "/>
<text text-anchor="middle" x="119.453" y="-1149.3" font-family="Times,serif" font-size="14.00">time per element:</text>
<polyline fill="none" stroke="black" points="62.4736,-1142.5 176.433,-1142.5 "/>
<text text-anchor="middle" x="119.453" y="-1127.3" font-family="Times,serif" font-size="14.00">element size:</text>
<polyline fill="none" stroke="black" points="62.4736,-1120.5 176.433,-1120.5 "/>
<text text-anchor="middle" x="119.453" y="-1105.3" font-family="Times,serif" font-size="14.00">total size:</text>
<polyline fill="none" stroke="black" points="176.433,-1098.5 176.433,-1230.5 "/>
<text text-anchor="middle" x="257.14" y="-1215.3" font-family="Times,serif" font-size="14.00">get_output_tiles</text>
<polyline fill="none" stroke="black" points="176.433,-1208.5 337.847,-1208.5 "/>
<text text-anchor="middle" x="257.14" y="-1193.3" font-family="Times,serif" font-size="14.00">(url, source_tile_position)</text>
<polyline fill="none" stroke="black" points="176.433,-1186.5 337.847,-1186.5 "/>
<text text-anchor="middle" x="257.14" y="-1171.3" font-family="Times,serif" font-size="14.00">100</text>
<polyline fill="none" stroke="black" points="176.433,-1164.5 337.847,-1164.5 "/>
<text text-anchor="middle" x="257.14" y="-1149.3" font-family="Times,serif" font-size="14.00">222.9ns</text>
<polyline fill="none" stroke="black" points="176.433,-1142.5 337.847,-1142.5 "/>
<text text-anchor="middle" x="257.14" y="-1127.3" font-family="Times,serif" font-size="14.00">Mean: 233 bytes</text>
<polyline fill="none" stroke="black" points="176.433,-1120.5 337.847,-1120.5 "/>
<text text-anchor="middle" x="257.14" y="-1105.3" font-family="Times,serif" font-size="14.00">23.3kB</text>
</g>
<!-- &#45;72891612751977084&#45;&gt;3554296895169700846 -->
<g id="edge4" class="edge"><title>&#45;72891612751977084&#45;&gt;3554296895169700846</title>
<path fill="none" stroke="black" stroke-dasharray="5,2" d="M107.668,-1098.37C103.256,-1092.59 99.3838,-1086.47 96.2842,-1080 92.4999,-1072.1 91.7493,-1064.52 93.2658,-1057.33"/>
<polygon fill="black" stroke="black" points="96.6159,-1058.35 96.6668,-1047.76 90.02,-1056.01 96.6159,-1058.35"/>
<text text-anchor="middle" x="137.598" y="-1068.8" font-family="Times,serif" font-size="14.00">flatMapValues</text>
</g>
<!-- &#45;72891612751977084&#45;&gt;3554296895169700846 -->
<g id="edge5" class="edge"><title>&#45;72891612751977084&#45;&gt;3554296895169700846</title>
<path fill="none" stroke="black" stroke-dasharray="5,2" d="M193.652,-1098.41C193.395,-1085.25 193.343,-1071.3 193.495,-1057.82"/>
<polygon fill="black" stroke="black" points="196.998,-1057.67 193.652,-1047.62 189.999,-1057.56 196.998,-1057.67"/>
</g>
<!-- &#45;72891612751977084&#45;&gt;3554296895169700846 -->
<g id="edge6" class="edge"><title>&#45;72891612751977084&#45;&gt;3554296895169700846</title>
<path fill="none" stroke="black" stroke-dasharray="5,2" d="M206.668,-1098.41C206.925,-1085.25 206.978,-1071.3 206.825,-1057.82"/>
<polygon fill="black" stroke="black" points="210.322,-1057.56 206.668,-1047.62 203.322,-1057.67 210.322,-1057.56"/>
</g>
<!-- &#45;1577528891301281453 -->
<g id="node8" class="node"><title>&#45;1577528891301281453</title>
<polygon fill="turquoise" stroke="black" points="78.8081,-1281.5 78.8081,-1413.5 321.512,-1413.5 321.512,-1281.5 78.8081,-1281.5"/>
<text text-anchor="middle" x="135.788" y="-1398.3" font-family="Times,serif" font-size="14.00">operation:</text>
<polyline fill="none" stroke="black" points="78.8081,-1391.5 192.767,-1391.5 "/>
<text text-anchor="middle" x="135.788" y="-1376.3" font-family="Times,serif" font-size="14.00">output type:</text>
<polyline fill="none" stroke="black" points="78.8081,-1369.5 192.767,-1369.5 "/>
<text text-anchor="middle" x="135.788" y="-1354.3" font-family="Times,serif" font-size="14.00">elements:</text>
<polyline fill="none" stroke="black" points="78.8081,-1347.5 192.767,-1347.5 "/>
<text text-anchor="middle" x="135.788" y="-1332.3" font-family="Times,serif" font-size="14.00">time per element:</text>
<polyline fill="none" stroke="black" points="78.8081,-1325.5 192.767,-1325.5 "/>
<text text-anchor="middle" x="135.788" y="-1310.3" font-family="Times,serif" font-size="14.00">element size:</text>
<polyline fill="none" stroke="black" points="78.8081,-1303.5 192.767,-1303.5 "/>
<text text-anchor="middle" x="135.788" y="-1288.3" font-family="Times,serif" font-size="14.00">total size:</text>
<polyline fill="none" stroke="black" points="192.767,-1281.5 192.767,-1413.5 "/>
<text text-anchor="middle" x="257.14" y="-1398.3" font-family="Times,serif" font-size="14.00">parallelize : Custom</text>
<polyline fill="none" stroke="black" points="192.767,-1391.5 321.512,-1391.5 "/>
<text text-anchor="middle" x="257.14" y="-1376.3" font-family="Times,serif" font-size="14.00">url</text>
<polyline fill="none" stroke="black" points="192.767,-1369.5 321.512,-1369.5 "/>
<text text-anchor="middle" x="257.14" y="-1354.3" font-family="Times,serif" font-size="14.00">1</text>
<polyline fill="none" stroke="black" points="192.767,-1347.5 321.512,-1347.5 "/>
<text text-anchor="middle" x="257.14" y="-1332.3" font-family="Times,serif" font-size="14.00">3.1ns</text>
<polyline fill="none" stroke="black" points="192.767,-1325.5 321.512,-1325.5 "/>
<text text-anchor="middle" x="257.14" y="-1310.3" font-family="Times,serif" font-size="14.00">Mean: 37 bytes</text>
<polyline fill="none" stroke="black" points="192.767,-1303.5 321.512,-1303.5 "/>
<text text-anchor="middle" x="257.14" y="-1288.3" font-family="Times,serif" font-size="14.00">37 bytes</text>
</g>
<!-- &#45;1577528891301281453&#45;&gt;&#45;72891612751977084 -->
<g id="edge1" class="edge"><title>&#45;1577528891301281453&#45;&gt;&#45;72891612751977084</title>
<path fill="none" stroke="black" stroke-dasharray="5,2" d="M142.068,-1281.45C138.711,-1275.48 135.812,-1269.3 133.608,-1263 130.957,-1255.42 130.677,-1247.87 132.104,-1240.53"/>
<polygon fill="black" stroke="black" points="135.543,-1241.25 135.046,-1230.66 128.835,-1239.25 135.543,-1241.25"/>
<text text-anchor="middle" x="155.936" y="-1251.8" font-family="Times,serif" font-size="14.00">flatMap</text>
</g>
<!-- &#45;1577528891301281453&#45;&gt;&#45;72891612751977084 -->
<g id="edge2" class="edge"><title>&#45;1577528891301281453&#45;&gt;&#45;72891612751977084</title>
<path fill="none" stroke="black" stroke-dasharray="5,2" d="M193.652,-1281.41C193.395,-1268.25 193.343,-1254.3 193.495,-1240.82"/>
<polygon fill="black" stroke="black" points="196.998,-1240.67 193.652,-1230.62 189.999,-1240.56 196.998,-1240.67"/>
</g>
<!-- &#45;1577528891301281453&#45;&gt;&#45;72891612751977084 -->
<g id="edge3" class="edge"><title>&#45;1577528891301281453&#45;&gt;&#45;72891612751977084</title>
<path fill="none" stroke="black" stroke-dasharray="5,2" d="M206.668,-1281.41C206.925,-1268.25 206.978,-1254.3 206.825,-1240.82"/>
<polygon fill="black" stroke="black" points="210.322,-1240.56 206.668,-1230.62 203.322,-1240.67 210.322,-1240.56"/>
</g>
</g>
</svg>
