<?xml version="1.0" encoding="UTF-8" standalone="no"?>
<!DOCTYPE svg PUBLIC "-//W3C//DTD SVG 1.1//EN"
 "http://www.w3.org/Graphics/SVG/1.1/DTD/svg11.dtd">
<!-- Generated by graphviz version 2.38.0 (20140413.2041)
 -->
<!-- Title: G Pages: 1 -->
<svg width="435pt" height="1422pt"
 viewBox="0.00 0.00 435.00 1422.00" xmlns="http://www.w3.org/2000/svg" xmlns:xlink="http://www.w3.org/1999/xlink">
<g id="graph0" class="graph" transform="scale(1 1) rotate(0) translate(4 1418)">
<title>G</title>
<polygon fill="white" stroke="#000000" points="-4,4 -4,-1418 431.001,-1418 431.001,4 -4,4"/>
<!-- &#45;2250038156039997785 -->
<g id="node1" class="node"><title>&#45;2250038156039997785</title>
<polygon fill="lightgreen" stroke="black" points="0,-0.5 0,-132.5 427.001,-132.5 427.001,-0.5 0,-0.5"/>
<text text-anchor="middle" x="56.9795" y="-117.3" font-family="Times,serif" font-size="14.00">operation:</text>
<polyline fill="none" stroke="black" points="0,-110.5 113.959,-110.5 "/>
<text text-anchor="middle" x="56.9795" y="-95.3" font-family="Times,serif" font-size="14.00">output type:</text>
<polyline fill="none" stroke="black" points="0,-88.5 113.959,-88.5 "/>
<text text-anchor="middle" x="56.9795" y="-73.3" font-family="Times,serif" font-size="14.00">elements:</text>
<polyline fill="none" stroke="black" points="0,-66.5 113.959,-66.5 "/>
<text text-anchor="middle" x="56.9795" y="-51.3" font-family="Times,serif" font-size="14.00">time per element:</text>
<polyline fill="none" stroke="black" points="0,-44.5 113.959,-44.5 "/>
<text text-anchor="middle" x="56.9795" y="-29.3" font-family="Times,serif" font-size="14.00">element size:</text>
<polyline fill="none" stroke="black" points="0,-22.5 113.959,-22.5 "/>
<text text-anchor="middle" x="56.9795" y="-7.3" font-family="Times,serif" font-size="14.00">total size:</text>
<polyline fill="none" stroke="black" points="113.959,-0.5 113.959,-132.5 "/>
<text text-anchor="middle" x="270.48" y="-117.3" font-family="Times,serif" font-size="14.00">ti_full_reconstruction</text>
<polyline fill="none" stroke="black" points="113.959,-110.5 427.001,-110.5 "/>
<text text-anchor="middle" x="270.48" y="-95.3" font-family="Times,serif" font-size="14.00">(source_tile_position, ndarray[int16](2000, 2000, 4))</text>
<polyline fill="none" stroke="black" points="113.959,-88.5 427.001,-88.5 "/>
<text text-anchor="middle" x="270.48" y="-73.3" font-family="Times,serif" font-size="14.00">16</text>
<polyline fill="none" stroke="black" points="113.959,-66.5 427.001,-66.5 "/>
<text text-anchor="middle" x="270.48" y="-51.3" font-family="Times,serif" font-size="14.00">1.0s</text>
<polyline fill="none" stroke="black" points="113.959,-44.5 427.001,-44.5 "/>
<text text-anchor="middle" x="270.48" y="-29.3" font-family="Times,serif" font-size="14.00">Mean: 32.0MB</text>
<polyline fill="none" stroke="black" points="113.959,-22.5 427.001,-22.5 "/>
<text text-anchor="middle" x="270.48" y="-7.3" font-family="Times,serif" font-size="14.00">512.0MB</text>
</g>
<!-- 8213828505105318224 -->
<g id="node2" class="node"><title>8213828505105318224</title>
<polygon fill="orange" stroke="black" points="13.5693,-183.5 13.5693,-315.5 413.432,-315.5 413.432,-183.5 13.5693,-183.5"/>
<text text-anchor="middle" x="70.5488" y="-300.3" font-family="Times,serif" font-size="14.00">operation:</text>
<polyline fill="none" stroke="black" points="13.5693,-293.5 127.528,-293.5 "/>
<text text-anchor="middle" x="70.5488" y="-278.3" font-family="Times,serif" font-size="14.00">output type:</text>
<polyline fill="none" stroke="black" points="13.5693,-271.5 127.528,-271.5 "/>
<text text-anchor="middle" x="70.5488" y="-256.3" font-family="Times,serif" font-size="14.00">elements:</text>
<polyline fill="none" stroke="black" points="13.5693,-249.5 127.528,-249.5 "/>
<text text-anchor="middle" x="70.5488" y="-234.3" font-family="Times,serif" font-size="14.00">time per element:</text>
<polyline fill="none" stroke="black" points="13.5693,-227.5 127.528,-227.5 "/>
<text text-anchor="middle" x="70.5488" y="-212.3" font-family="Times,serif" font-size="14.00">element size:</text>
<polyline fill="none" stroke="black" points="13.5693,-205.5 127.528,-205.5 "/>
<text text-anchor="middle" x="70.5488" y="-190.3" font-family="Times,serif" font-size="14.00">total size:</text>
<polyline fill="none" stroke="black" points="127.528,-183.5 127.528,-315.5 "/>
<text text-anchor="middle" x="270.48" y="-300.3" font-family="Times,serif" font-size="14.00">Select Field: target_tile_id</text>
<polyline fill="none" stroke="black" points="127.528,-293.5 413.432,-293.5 "/>
<text text-anchor="middle" x="270.48" y="-278.3" font-family="Times,serif" font-size="14.00">(source_tile_position, List[tile_data])</text>
<polyline fill="none" stroke="black" points="127.528,-271.5 413.432,-271.5 "/>
<text text-anchor="middle" x="270.48" y="-256.3" font-family="Times,serif" font-size="14.00">16</text>
<polyline fill="none" stroke="black" points="127.528,-249.5 413.432,-249.5 "/>
<text text-anchor="middle" x="270.48" y="-234.3" font-family="Times,serif" font-size="14.00">34.2ns</text>
<polyline fill="none" stroke="black" points="127.528,-227.5 413.432,-227.5 "/>
<text text-anchor="middle" x="270.48" y="-212.3" font-family="Times,serif" font-size="14.00">Min: 32.0MB, Mean: 162.0MB, Max: 288.0MB</text>
<polyline fill="none" stroke="black" points="127.528,-205.5 413.432,-205.5 "/>
<text text-anchor="middle" x="270.48" y="-190.3" font-family="Times,serif" font-size="14.00">2.6GB</text>
</g>
<!-- 8213828505105318224&#45;&gt;&#45;2250038156039997785 -->
<g id="edge13" class="edge"><title>8213828505105318224&#45;&gt;&#45;2250038156039997785</title>
<path fill="none" stroke="black" stroke-dasharray="5,2" d="M213.5,-183.411C213.5,-170.246 213.5,-156.301 213.5,-142.819"/>
<polygon fill="black" stroke="black" points="217.001,-142.62 213.5,-132.62 210.001,-142.62 217.001,-142.62"/>
<text text-anchor="middle" x="225.552" y="-153.8" font-family="Times,serif" font-size="14.00">map</text>
</g>
<!-- 9004826367239372300 -->
<g id="node3" class="node"><title>9004826367239372300</title>
<polygon fill="yellow" stroke="black" points="105.745,-366.5 105.745,-498.5 321.256,-498.5 321.256,-366.5 105.745,-366.5"/>
<text text-anchor="middle" x="162.725" y="-483.3" font-family="Times,serif" font-size="14.00">operation:</text>
<polyline fill="none" stroke="black" points="105.745,-476.5 219.704,-476.5 "/>
<text text-anchor="middle" x="162.725" y="-461.3" font-family="Times,serif" font-size="14.00">output type:</text>
<polyline fill="none" stroke="black" points="105.745,-454.5 219.704,-454.5 "/>
<text text-anchor="middle" x="162.725" y="-439.3" font-family="Times,serif" font-size="14.00">elements:</text>
<polyline fill="none" stroke="black" points="105.745,-432.5 219.704,-432.5 "/>
<text text-anchor="middle" x="162.725" y="-417.3" font-family="Times,serif" font-size="14.00">time per element:</text>
<polyline fill="none" stroke="black" points="105.745,-410.5 219.704,-410.5 "/>
<text text-anchor="middle" x="162.725" y="-395.3" font-family="Times,serif" font-size="14.00">element size:</text>
<polyline fill="none" stroke="black" points="105.745,-388.5 219.704,-388.5 "/>
<text text-anchor="middle" x="162.725" y="-373.3" font-family="Times,serif" font-size="14.00">total size:</text>
<polyline fill="none" stroke="black" points="219.704,-366.5 219.704,-498.5 "/>
<text text-anchor="middle" x="270.48" y="-483.3" font-family="Times,serif" font-size="14.00">grp_tile_read</text>
<polyline fill="none" stroke="black" points="219.704,-476.5 321.256,-476.5 "/>
<text text-anchor="middle" x="270.48" y="-461.3" font-family="Times,serif" font-size="14.00">tile_data</text>
<polyline fill="none" stroke="black" points="219.704,-454.5 321.256,-454.5 "/>
<text text-anchor="middle" x="270.48" y="-439.3" font-family="Times,serif" font-size="14.00">81</text>
<polyline fill="none" stroke="black" points="219.704,-432.5 321.256,-432.5 "/>
<text text-anchor="middle" x="270.48" y="-417.3" font-family="Times,serif" font-size="14.00">69.5ms</text>
<polyline fill="none" stroke="black" points="219.704,-410.5 321.256,-410.5 "/>
<text text-anchor="middle" x="270.48" y="-395.3" font-family="Times,serif" font-size="14.00">Mean: 32.0MB</text>
<polyline fill="none" stroke="black" points="219.704,-388.5 321.256,-388.5 "/>
<text text-anchor="middle" x="270.48" y="-373.3" font-family="Times,serif" font-size="14.00">2.6GB</text>
</g>
<!-- 9004826367239372300&#45;&gt;8213828505105318224 -->
<g id="edge12" class="edge"><title>9004826367239372300&#45;&gt;8213828505105318224</title>
<path fill="none" stroke="black" stroke-dasharray="5,2" d="M213.5,-366.411C213.5,-353.246 213.5,-339.301 213.5,-325.819"/>
<polygon fill="black" stroke="black" points="217.001,-325.62 213.5,-315.62 210.001,-325.62 217.001,-325.62"/>
<text text-anchor="middle" x="238" y="-336.8" font-family="Times,serif" font-size="14.00">groupBy</text>
</g>
<!-- 7037826291254731668 -->
<g id="node4" class="node"><title>7037826291254731668</title>
<polygon fill="orange" stroke="black" points="19.0278,-549.5 19.0278,-681.5 407.973,-681.5 407.973,-549.5 19.0278,-549.5"/>
<text text-anchor="middle" x="76.0073" y="-666.3" font-family="Times,serif" font-size="14.00">operation:</text>
<polyline fill="none" stroke="black" points="19.0278,-659.5 132.987,-659.5 "/>
<text text-anchor="middle" x="76.0073" y="-644.3" font-family="Times,serif" font-size="14.00">output type:</text>
<polyline fill="none" stroke="black" points="19.0278,-637.5 132.987,-637.5 "/>
<text text-anchor="middle" x="76.0073" y="-622.3" font-family="Times,serif" font-size="14.00">elements:</text>
<polyline fill="none" stroke="black" points="19.0278,-615.5 132.987,-615.5 "/>
<text text-anchor="middle" x="76.0073" y="-600.3" font-family="Times,serif" font-size="14.00">time per element:</text>
<polyline fill="none" stroke="black" points="19.0278,-593.5 132.987,-593.5 "/>
<text text-anchor="middle" x="76.0073" y="-578.3" font-family="Times,serif" font-size="14.00">element size:</text>
<polyline fill="none" stroke="black" points="19.0278,-571.5 132.987,-571.5 "/>
<text text-anchor="middle" x="76.0073" y="-556.3" font-family="Times,serif" font-size="14.00">total size:</text>
<polyline fill="none" stroke="black" points="132.987,-549.5 132.987,-681.5 "/>
<text text-anchor="middle" x="270.48" y="-666.3" font-family="Times,serif" font-size="14.00">Select Field: source_tile_id</text>
<polyline fill="none" stroke="black" points="132.987,-659.5 407.973,-659.5 "/>
<text text-anchor="middle" x="270.48" y="-644.3" font-family="Times,serif" font-size="14.00">(target_tile_position, List[tile_data])</text>
<polyline fill="none" stroke="black" points="132.987,-637.5 407.973,-637.5 "/>
<text text-anchor="middle" x="270.48" y="-622.3" font-family="Times,serif" font-size="14.00">16</text>
<polyline fill="none" stroke="black" points="132.987,-615.5 407.973,-615.5 "/>
<text text-anchor="middle" x="270.48" y="-600.3" font-family="Times,serif" font-size="14.00">44.0ns</text>
<polyline fill="none" stroke="black" points="132.987,-593.5 407.973,-593.5 "/>
<text text-anchor="middle" x="270.48" y="-578.3" font-family="Times,serif" font-size="14.00">Min: 370 bytes, Mean: 871 bytes, Max: 1.3kB</text>
<polyline fill="none" stroke="black" points="132.987,-571.5 407.973,-571.5 "/>
<text text-anchor="middle" x="270.48" y="-556.3" font-family="Times,serif" font-size="14.00">13.9kB</text>
</g>
<!-- 7037826291254731668&#45;&gt;9004826367239372300 -->
<g id="edge9" class="edge"><title>7037826291254731668&#45;&gt;9004826367239372300</title>
<path fill="none" stroke="black" stroke-dasharray="5,2" d="M155.408,-549.446C152.052,-543.478 149.152,-537.299 146.949,-531 144.297,-523.419 144.017,-515.874 145.444,-508.533"/>
<polygon fill="black" stroke="black" points="148.884,-509.245 148.386,-498.662 142.175,-507.246 148.884,-509.245"/>
<text text-anchor="middle" x="169.276" y="-519.8" font-family="Times,serif" font-size="14.00">flatMap</text>
</g>
<!-- 7037826291254731668&#45;&gt;9004826367239372300 -->
<g id="edge10" class="edge"><title>7037826291254731668&#45;&gt;9004826367239372300</title>
<path fill="none" stroke="black" stroke-dasharray="5,2" d="M206.993,-549.411C206.736,-536.246 206.683,-522.301 206.836,-508.819"/>
<polygon fill="black" stroke="black" points="210.338,-508.672 206.992,-498.62 203.339,-508.565 210.338,-508.672"/>
</g>
<!-- 7037826291254731668&#45;&gt;9004826367239372300 -->
<g id="edge11" class="edge"><title>7037826291254731668&#45;&gt;9004826367239372300</title>
<path fill="none" stroke="black" stroke-dasharray="5,2" d="M220.008,-549.411C220.265,-536.246 220.318,-522.301 220.165,-508.819"/>
<polygon fill="black" stroke="black" points="223.662,-508.565 220.009,-498.62 216.663,-508.672 223.662,-508.565"/>
</g>
<!-- 4043638109778277737 -->
<g id="node5" class="node"><title>4043638109778277737</title>
<polygon fill="lightgreen" stroke="black" points="96.7764,-732.5 96.7764,-864.5 330.225,-864.5 330.225,-732.5 96.7764,-732.5"/>
<text text-anchor="middle" x="153.756" y="-849.3" font-family="Times,serif" font-size="14.00">operation:</text>
<polyline fill="none" stroke="black" points="96.7764,-842.5 210.735,-842.5 "/>
<text text-anchor="middle" x="153.756" y="-827.3" font-family="Times,serif" font-size="14.00">output type:</text>
<polyline fill="none" stroke="black" points="96.7764,-820.5 210.735,-820.5 "/>
<text text-anchor="middle" x="153.756" y="-805.3" font-family="Times,serif" font-size="14.00">elements:</text>
<polyline fill="none" stroke="black" points="96.7764,-798.5 210.735,-798.5 "/>
<text text-anchor="middle" x="153.756" y="-783.3" font-family="Times,serif" font-size="14.00">time per element:</text>
<polyline fill="none" stroke="black" points="96.7764,-776.5 210.735,-776.5 "/>
<text text-anchor="middle" x="153.756" y="-761.3" font-family="Times,serif" font-size="14.00">element size:</text>
<polyline fill="none" stroke="black" points="96.7764,-754.5 210.735,-754.5 "/>
<text text-anchor="middle" x="153.756" y="-739.3" font-family="Times,serif" font-size="14.00">total size:</text>
<polyline fill="none" stroke="black" points="210.735,-732.5 210.735,-864.5 "/>
<text text-anchor="middle" x="270.48" y="-849.3" font-family="Times,serif" font-size="14.00">Shuffle Tile Fields</text>
<polyline fill="none" stroke="black" points="210.735,-842.5 330.225,-842.5 "/>
<text text-anchor="middle" x="270.48" y="-827.3" font-family="Times,serif" font-size="14.00">tile_data</text>
<polyline fill="none" stroke="black" points="210.735,-820.5 330.225,-820.5 "/>
<text text-anchor="middle" x="270.48" y="-805.3" font-family="Times,serif" font-size="14.00">81</text>
<polyline fill="none" stroke="black" points="210.735,-798.5 330.225,-798.5 "/>
<text text-anchor="middle" x="270.48" y="-783.3" font-family="Times,serif" font-size="14.00">5.1ns</text>
<polyline fill="none" stroke="black" points="210.735,-776.5 330.225,-776.5 "/>
<text text-anchor="middle" x="270.48" y="-761.3" font-family="Times,serif" font-size="14.00">Mean: 361 bytes</text>
<polyline fill="none" stroke="black" points="210.735,-754.5 330.225,-754.5 "/>
<text text-anchor="middle" x="270.48" y="-739.3" font-family="Times,serif" font-size="14.00">29.2kB</text>
</g>
<!-- 4043638109778277737&#45;&gt;7037826291254731668 -->
<g id="edge8" class="edge"><title>4043638109778277737&#45;&gt;7037826291254731668</title>
<path fill="none" stroke="black" stroke-dasharray="5,2" d="M213.5,-732.411C213.5,-719.246 213.5,-705.301 213.5,-691.819"/>
<polygon fill="black" stroke="black" points="217.001,-691.62 213.5,-681.62 210.001,-691.62 217.001,-691.62"/>
<text text-anchor="middle" x="238" y="-702.8" font-family="Times,serif" font-size="14.00">groupBy</text>
</g>
<!-- 2960337699351190139 -->
<g id="node6" class="node"><title>2960337699351190139</title>
<polygon fill="yellow" stroke="black" points="13.3403,-915.5 13.3403,-1047.5 413.661,-1047.5 413.661,-915.5 13.3403,-915.5"/>
<text text-anchor="middle" x="70.3198" y="-1032.3" font-family="Times,serif" font-size="14.00">operation:</text>
<polyline fill="none" stroke="black" points="13.3403,-1025.5 127.299,-1025.5 "/>
<text text-anchor="middle" x="70.3198" y="-1010.3" font-family="Times,serif" font-size="14.00">output type:</text>
<polyline fill="none" stroke="black" points="13.3403,-1003.5 127.299,-1003.5 "/>
<text text-anchor="middle" x="70.3198" y="-988.3" font-family="Times,serif" font-size="14.00">elements:</text>
<polyline fill="none" stroke="black" points="13.3403,-981.5 127.299,-981.5 "/>
<text text-anchor="middle" x="70.3198" y="-966.3" font-family="Times,serif" font-size="14.00">time per element:</text>
<polyline fill="none" stroke="black" points="13.3403,-959.5 127.299,-959.5 "/>
<text text-anchor="middle" x="70.3198" y="-944.3" font-family="Times,serif" font-size="14.00">element size:</text>
<polyline fill="none" stroke="black" points="13.3403,-937.5 127.299,-937.5 "/>
<text text-anchor="middle" x="70.3198" y="-922.3" font-family="Times,serif" font-size="14.00">total size:</text>
<polyline fill="none" stroke="black" points="127.299,-915.5 127.299,-1047.5 "/>
<text text-anchor="middle" x="270.48" y="-1032.3" font-family="Times,serif" font-size="14.00">calc_input_tiles</text>
<polyline fill="none" stroke="black" points="127.299,-1025.5 413.661,-1025.5 "/>
<text text-anchor="middle" x="270.48" y="-1010.3" font-family="Times,serif" font-size="14.00">(url, (source_tile_position, target_tile_position))</text>
<polyline fill="none" stroke="black" points="127.299,-1003.5 413.661,-1003.5 "/>
<text text-anchor="middle" x="270.48" y="-988.3" font-family="Times,serif" font-size="14.00">81</text>
<polyline fill="none" stroke="black" points="127.299,-981.5 413.661,-981.5 "/>
<text text-anchor="middle" x="270.48" y="-966.3" font-family="Times,serif" font-size="14.00">8.7ns</text>
<polyline fill="none" stroke="black" points="127.299,-959.5 413.661,-959.5 "/>
<text text-anchor="middle" x="270.48" y="-944.3" font-family="Times,serif" font-size="14.00">Mean: 336 bytes</text>
<polyline fill="none" stroke="black" points="127.299,-937.5 413.661,-937.5 "/>
<text text-anchor="middle" x="270.48" y="-922.3" font-family="Times,serif" font-size="14.00">27.2kB</text>
</g>
<!-- 2960337699351190139&#45;&gt;4043638109778277737 -->
<g id="edge7" class="edge"><title>2960337699351190139&#45;&gt;4043638109778277737</title>
<path fill="none" stroke="black" stroke-dasharray="5,2" d="M213.5,-915.411C213.5,-902.246 213.5,-888.301 213.5,-874.819"/>
<polygon fill="black" stroke="black" points="217.001,-874.62 213.5,-864.62 210.001,-874.62 217.001,-874.62"/>
<text text-anchor="middle" x="225.552" y="-885.8" font-family="Times,serif" font-size="14.00">map</text>
</g>
<!-- 5188956139599226312 -->
<g id="node7" class="node"><title>5188956139599226312</title>
<polygon fill="yellow" stroke="black" points="75.814,-1098.5 75.814,-1230.5 351.187,-1230.5 351.187,-1098.5 75.814,-1098.5"/>
<text text-anchor="middle" x="132.793" y="-1215.3" font-family="Times,serif" font-size="14.00">operation:</text>
<polyline fill="none" stroke="black" points="75.814,-1208.5 189.773,-1208.5 "/>
<text text-anchor="middle" x="132.793" y="-1193.3" font-family="Times,serif" font-size="14.00">output type:</text>
<polyline fill="none" stroke="black" points="75.814,-1186.5 189.773,-1186.5 "/>
<text text-anchor="middle" x="132.793" y="-1171.3" font-family="Times,serif" font-size="14.00">elements:</text>
<polyline fill="none" stroke="black" points="75.814,-1164.5 189.773,-1164.5 "/>
<text text-anchor="middle" x="132.793" y="-1149.3" font-family="Times,serif" font-size="14.00">time per element:</text>
<polyline fill="none" stroke="black" points="75.814,-1142.5 189.773,-1142.5 "/>
<text text-anchor="middle" x="132.793" y="-1127.3" font-family="Times,serif" font-size="14.00">element size:</text>
<polyline fill="none" stroke="black" points="75.814,-1120.5 189.773,-1120.5 "/>
<text text-anchor="middle" x="132.793" y="-1105.3" font-family="Times,serif" font-size="14.00">total size:</text>
<polyline fill="none" stroke="black" points="189.773,-1098.5 189.773,-1230.5 "/>
<text text-anchor="middle" x="270.48" y="-1215.3" font-family="Times,serif" font-size="14.00">get_output_tiles</text>
<polyline fill="none" stroke="black" points="189.773,-1208.5 351.187,-1208.5 "/>
<text text-anchor="middle" x="270.48" y="-1193.3" font-family="Times,serif" font-size="14.00">(url, source_tile_position)</text>
<polyline fill="none" stroke="black" points="189.773,-1186.5 351.187,-1186.5 "/>
<text text-anchor="middle" x="270.48" y="-1171.3" font-family="Times,serif" font-size="14.00">16</text>
<polyline fill="none" stroke="black" points="189.773,-1164.5 351.187,-1164.5 "/>
<text text-anchor="middle" x="270.48" y="-1149.3" font-family="Times,serif" font-size="14.00">5.1ns</text>
<polyline fill="none" stroke="black" points="189.773,-1142.5 351.187,-1142.5 "/>
<text text-anchor="middle" x="270.48" y="-1127.3" font-family="Times,serif" font-size="14.00">Mean: 233 bytes</text>
<polyline fill="none" stroke="black" points="189.773,-1120.5 351.187,-1120.5 "/>
<text text-anchor="middle" x="270.48" y="-1105.3" font-family="Times,serif" font-size="14.00">3.7kB</text>
</g>
<!-- 5188956139599226312&#45;&gt;2960337699351190139 -->
<g id="edge4" class="edge"><title>5188956139599226312&#45;&gt;2960337699351190139</title>
<path fill="none" stroke="black" stroke-dasharray="5,2" d="M121.008,-1098.37C116.596,-1092.59 112.724,-1086.47 109.625,-1080 105.84,-1072.1 105.09,-1064.52 106.606,-1057.33"/>
<polygon fill="black" stroke="black" points="109.956,-1058.35 110.007,-1047.76 103.36,-1056.01 109.956,-1058.35"/>
<text text-anchor="middle" x="150.938" y="-1068.8" font-family="Times,serif" font-size="14.00">flatMapValues</text>
</g>
<!-- 5188956139599226312&#45;&gt;2960337699351190139 -->
<g id="edge5" class="edge"><title>5188956139599226312&#45;&gt;2960337699351190139</title>
<path fill="none" stroke="black" stroke-dasharray="5,2" d="M206.993,-1098.41C206.736,-1085.25 206.683,-1071.3 206.836,-1057.82"/>
<polygon fill="black" stroke="black" points="210.338,-1057.67 206.992,-1047.62 203.339,-1057.56 210.338,-1057.67"/>
</g>
<!-- 5188956139599226312&#45;&gt;2960337699351190139 -->
<g id="edge6" class="edge"><title>5188956139599226312&#45;&gt;2960337699351190139</title>
<path fill="none" stroke="black" stroke-dasharray="5,2" d="M220.008,-1098.41C220.265,-1085.25 220.318,-1071.3 220.165,-1057.82"/>
<polygon fill="black" stroke="black" points="223.662,-1057.56 220.009,-1047.62 216.663,-1057.67 223.662,-1057.56"/>
</g>
<!-- &#45;5209093605907626360 -->
<g id="node8" class="node"><title>&#45;5209093605907626360</title>
<polygon fill="turquoise" stroke="black" points="92.1484,-1281.5 92.1484,-1413.5 334.853,-1413.5 334.853,-1281.5 92.1484,-1281.5"/>
<text text-anchor="middle" x="149.128" y="-1398.3" font-family="Times,serif" font-size="14.00">operation:</text>
<polyline fill="none" stroke="black" points="92.1484,-1391.5 206.107,-1391.5 "/>
<text text-anchor="middle" x="149.128" y="-1376.3" font-family="Times,serif" font-size="14.00">output type:</text>
<polyline fill="none" stroke="black" points="92.1484,-1369.5 206.107,-1369.5 "/>
<text text-anchor="middle" x="149.128" y="-1354.3" font-family="Times,serif" font-size="14.00">elements:</text>
<polyline fill="none" stroke="black" points="92.1484,-1347.5 206.107,-1347.5 "/>
<text text-anchor="middle" x="149.128" y="-1332.3" font-family="Times,serif" font-size="14.00">time per element:</text>
<polyline fill="none" stroke="black" points="92.1484,-1325.5 206.107,-1325.5 "/>
<text text-anchor="middle" x="149.128" y="-1310.3" font-family="Times,serif" font-size="14.00">element size:</text>
<polyline fill="none" stroke="black" points="92.1484,-1303.5 206.107,-1303.5 "/>
<text text-anchor="middle" x="149.128" y="-1288.3" font-family="Times,serif" font-size="14.00">total size:</text>
<polyline fill="none" stroke="black" points="206.107,-1281.5 206.107,-1413.5 "/>
<text text-anchor="middle" x="270.48" y="-1398.3" font-family="Times,serif" font-size="14.00">parallelize : Custom</text>
<polyline fill="none" stroke="black" points="206.107,-1391.5 334.853,-1391.5 "/>
<text text-anchor="middle" x="270.48" y="-1376.3" font-family="Times,serif" font-size="14.00">url</text>
<polyline fill="none" stroke="black" points="206.107,-1369.5 334.853,-1369.5 "/>
<text text-anchor="middle" x="270.48" y="-1354.3" font-family="Times,serif" font-size="14.00">1</text>
<polyline fill="none" stroke="black" points="206.107,-1347.5 334.853,-1347.5 "/>
<text text-anchor="middle" x="270.48" y="-1332.3" font-family="Times,serif" font-size="14.00">1.9ns</text>
<polyline fill="none" stroke="black" points="206.107,-1325.5 334.853,-1325.5 "/>
<text text-anchor="middle" x="270.48" y="-1310.3" font-family="Times,serif" font-size="14.00">Mean: 37 bytes</text>
<polyline fill="none" stroke="black" points="206.107,-1303.5 334.853,-1303.5 "/>
<text text-anchor="middle" x="270.48" y="-1288.3" font-family="Times,serif" font-size="14.00">37 bytes</text>
</g>
<!-- &#45;5209093605907626360&#45;&gt;5188956139599226312 -->
<g id="edge1" class="edge"><title>&#45;5209093605907626360&#45;&gt;5188956139599226312</title>
<path fill="none" stroke="black" stroke-dasharray="5,2" d="M155.408,-1281.45C152.052,-1275.48 149.152,-1269.3 146.949,-1263 144.297,-1255.42 144.017,-1247.87 145.444,-1240.53"/>
<polygon fill="black" stroke="black" points="148.884,-1241.25 148.386,-1230.66 142.175,-1239.25 148.884,-1241.25"/>
<text text-anchor="middle" x="169.276" y="-1251.8" font-family="Times,serif" font-size="14.00">flatMap</text>
</g>
<!-- &#45;5209093605907626360&#45;&gt;5188956139599226312 -->
<g id="edge2" class="edge"><title>&#45;5209093605907626360&#45;&gt;5188956139599226312</title>
<path fill="none" stroke="black" stroke-dasharray="5,2" d="M206.993,-1281.41C206.736,-1268.25 206.683,-1254.3 206.836,-1240.82"/>
<polygon fill="black" stroke="black" points="210.338,-1240.67 206.992,-1230.62 203.339,-1240.56 210.338,-1240.67"/>
</g>
<!-- &#45;5209093605907626360&#45;&gt;5188956139599226312 -->
<g id="edge3" class="edge"><title>&#45;5209093605907626360&#45;&gt;5188956139599226312</title>
<path fill="none" stroke="black" stroke-dasharray="5,2" d="M220.008,-1281.41C220.265,-1268.25 220.318,-1254.3 220.165,-1240.82"/>
<polygon fill="black" stroke="black" points="223.662,-1240.56 220.009,-1230.62 216.663,-1240.67 223.662,-1240.56"/>
</g>
</g>
</svg>
