<?xml version="1.0" encoding="UTF-8" standalone="no"?>
<!DOCTYPE svg PUBLIC "-//W3C//DTD SVG 1.1//EN"
 "http://www.w3.org/Graphics/SVG/1.1/DTD/svg11.dtd">
<!-- Generated by graphviz version 2.38.0 (20140413.2041)
 -->
<!-- Title: G Pages: 1 -->
<svg width="421pt" height="1239pt"
 viewBox="0.00 0.00 421.00 1239.00" xmlns="http://www.w3.org/2000/svg" xmlns:xlink="http://www.w3.org/1999/xlink">
<g id="graph0" class="graph" transform="scale(1 1) rotate(0) translate(4 1235)">
<title>G</title>
<polygon fill="white" stroke="#000000" points="-4,4 -4,-1235 417.001,-1235 417.001,4 -4,4"/>
<!-- &#45;7202275771236534860 -->
<g id="node1" class="node"><title>&#45;7202275771236534860</title>
<polygon fill="lightgreen" stroke="black" points="0,-0.5 0,-132.5 413.001,-132.5 413.001,-0.5 0,-0.5"/>
<text text-anchor="middle" x="56.9795" y="-117.3" font-family="Times,serif" font-size="14.00">operation:</text>
<polyline fill="none" stroke="black" points="0,-110.5 113.959,-110.5 "/>
<text text-anchor="middle" x="56.9795" y="-95.3" font-family="Times,serif" font-size="14.00">output type:</text>
<polyline fill="none" stroke="black" points="0,-88.5 113.959,-88.5 "/>
<text text-anchor="middle" x="56.9795" y="-73.3" font-family="Times,serif" font-size="14.00">elements:</text>
<polyline fill="none" stroke="black" points="0,-66.5 113.959,-66.5 "/>
<text text-anchor="middle" x="56.9795" y="-51.3" font-family="Times,serif" font-size="14.00">time per element:</text>
<polyline fill="none" stroke="black" points="0,-44.5 113.959,-44.5 "/>
<text text-anchor="middle" x="56.9795" y="-29.3" font-family="Times,serif" font-size="14.00">element size:</text>
<polyline fill="none" stroke="black" points="0,-22.5 113.959,-22.5 "/>
<text text-anchor="middle" x="56.9795" y="-7.3" font-family="Times,serif" font-size="14.00">total size:</text>
<polyline fill="none" stroke="black" points="113.959,-0.5 113.959,-132.5 "/>
<text text-anchor="middle" x="263.48" y="-117.3" font-family="Times,serif" font-size="14.00">ti_full_reconstruction</text>
<polyline fill="none" stroke="black" points="113.959,-110.5 413.001,-110.5 "/>
<text text-anchor="middle" x="263.48" y="-95.3" font-family="Times,serif" font-size="14.00">(source_tile_position, ndarray[int64](200, 200, 4))</text>
<polyline fill="none" stroke="black" points="113.959,-88.5 413.001,-88.5 "/>
<text text-anchor="middle" x="263.48" y="-73.3" font-family="Times,serif" font-size="14.00">900</text>
<polyline fill="none" stroke="black" points="113.959,-66.5 413.001,-66.5 "/>
<text text-anchor="middle" x="263.48" y="-51.3" font-family="Times,serif" font-size="14.00">25.3ms</text>
<polyline fill="none" stroke="black" points="113.959,-44.5 413.001,-44.5 "/>
<text text-anchor="middle" x="263.48" y="-29.3" font-family="Times,serif" font-size="14.00">Mean: 1.3MB</text>
<polyline fill="none" stroke="black" points="113.959,-22.5 413.001,-22.5 "/>
<text text-anchor="middle" x="263.48" y="-7.3" font-family="Times,serif" font-size="14.00">1.2GB</text>
</g>
<!-- &#45;4898562207952486521 -->
<g id="node2" class="node"><title>&#45;4898562207952486521</title>
<polygon fill="orange" stroke="black" points="19.7935,-183.5 19.7935,-315.5 393.208,-315.5 393.208,-183.5 19.7935,-183.5"/>
<text text-anchor="middle" x="76.7729" y="-300.3" font-family="Times,serif" font-size="14.00">operation:</text>
<polyline fill="none" stroke="black" points="19.7935,-293.5 133.752,-293.5 "/>
<text text-anchor="middle" x="76.7729" y="-278.3" font-family="Times,serif" font-size="14.00">output type:</text>
<polyline fill="none" stroke="black" points="19.7935,-271.5 133.752,-271.5 "/>
<text text-anchor="middle" x="76.7729" y="-256.3" font-family="Times,serif" font-size="14.00">elements:</text>
<polyline fill="none" stroke="black" points="19.7935,-249.5 133.752,-249.5 "/>
<text text-anchor="middle" x="76.7729" y="-234.3" font-family="Times,serif" font-size="14.00">time per element:</text>
<polyline fill="none" stroke="black" points="19.7935,-227.5 133.752,-227.5 "/>
<text text-anchor="middle" x="76.7729" y="-212.3" font-family="Times,serif" font-size="14.00">element size:</text>
<polyline fill="none" stroke="black" points="19.7935,-205.5 133.752,-205.5 "/>
<text text-anchor="middle" x="76.7729" y="-190.3" font-family="Times,serif" font-size="14.00">total size:</text>
<polyline fill="none" stroke="black" points="133.752,-183.5 133.752,-315.5 "/>
<text text-anchor="middle" x="263.48" y="-300.3" font-family="Times,serif" font-size="14.00">Select Field: target_tile_id</text>
<polyline fill="none" stroke="black" points="133.752,-293.5 393.208,-293.5 "/>
<text text-anchor="middle" x="263.48" y="-278.3" font-family="Times,serif" font-size="14.00">(source_tile_position, List[tile_data])</text>
<polyline fill="none" stroke="black" points="133.752,-271.5 393.208,-271.5 "/>
<text text-anchor="middle" x="263.48" y="-256.3" font-family="Times,serif" font-size="14.00">900</text>
<polyline fill="none" stroke="black" points="133.752,-249.5 393.208,-249.5 "/>
<text text-anchor="middle" x="263.48" y="-234.3" font-family="Times,serif" font-size="14.00">92.6ns</text>
<polyline fill="none" stroke="black" points="133.752,-227.5 393.208,-227.5 "/>
<text text-anchor="middle" x="263.48" y="-212.3" font-family="Times,serif" font-size="14.00">Min: 320.5kB, Mean: 2.7MB, Max: 2.9MB</text>
<polyline fill="none" stroke="black" points="133.752,-205.5 393.208,-205.5 "/>
<text text-anchor="middle" x="263.48" y="-190.3" font-family="Times,serif" font-size="14.00">2.4GB</text>
</g>
<!-- &#45;4898562207952486521&#45;&gt;&#45;7202275771236534860 -->
<g id="edge10" class="edge"><title>&#45;4898562207952486521&#45;&gt;&#45;7202275771236534860</title>
<path fill="none" stroke="black" stroke-dasharray="5,2" d="M206.5,-183.411C206.5,-170.246 206.5,-156.301 206.5,-142.819"/>
<polygon fill="black" stroke="black" points="210.001,-142.62 206.5,-132.62 203.001,-142.62 210.001,-142.62"/>
<text text-anchor="middle" x="218.552" y="-153.8" font-family="Times,serif" font-size="14.00">map</text>
</g>
<!-- &#45;3649833366064277635 -->
<g id="node3" class="node"><title>&#45;3649833366064277635</title>
<polygon fill="lightgreen" stroke="black" points="97.9692,-366.5 97.9692,-498.5 315.032,-498.5 315.032,-366.5 97.9692,-366.5"/>
<text text-anchor="middle" x="154.949" y="-483.3" font-family="Times,serif" font-size="14.00">operation:</text>
<polyline fill="none" stroke="black" points="97.9692,-476.5 211.928,-476.5 "/>
<text text-anchor="middle" x="154.949" y="-461.3" font-family="Times,serif" font-size="14.00">output type:</text>
<polyline fill="none" stroke="black" points="97.9692,-454.5 211.928,-454.5 "/>
<text text-anchor="middle" x="154.949" y="-439.3" font-family="Times,serif" font-size="14.00">elements:</text>
<polyline fill="none" stroke="black" points="97.9692,-432.5 211.928,-432.5 "/>
<text text-anchor="middle" x="154.949" y="-417.3" font-family="Times,serif" font-size="14.00">time per element:</text>
<polyline fill="none" stroke="black" points="97.9692,-410.5 211.928,-410.5 "/>
<text text-anchor="middle" x="154.949" y="-395.3" font-family="Times,serif" font-size="14.00">element size:</text>
<polyline fill="none" stroke="black" points="97.9692,-388.5 211.928,-388.5 "/>
<text text-anchor="middle" x="154.949" y="-373.3" font-family="Times,serif" font-size="14.00">total size:</text>
<polyline fill="none" stroke="black" points="211.928,-366.5 211.928,-498.5 "/>
<text text-anchor="middle" x="263.48" y="-483.3" font-family="Times,serif" font-size="14.00">pull_input_tile</text>
<polyline fill="none" stroke="black" points="211.928,-476.5 315.032,-476.5 "/>
<text text-anchor="middle" x="263.48" y="-461.3" font-family="Times,serif" font-size="14.00">tile_data</text>
<polyline fill="none" stroke="black" points="211.928,-454.5 315.032,-454.5 "/>
<text text-anchor="middle" x="263.48" y="-439.3" font-family="Times,serif" font-size="14.00">7569</text>
<polyline fill="none" stroke="black" points="211.928,-432.5 315.032,-432.5 "/>
<text text-anchor="middle" x="263.48" y="-417.3" font-family="Times,serif" font-size="14.00">7.0ms</text>
<polyline fill="none" stroke="black" points="211.928,-410.5 315.032,-410.5 "/>
<text text-anchor="middle" x="263.48" y="-395.3" font-family="Times,serif" font-size="14.00">Mean: 320.5kB</text>
<polyline fill="none" stroke="black" points="211.928,-388.5 315.032,-388.5 "/>
<text text-anchor="middle" x="263.48" y="-373.3" font-family="Times,serif" font-size="14.00">2.4GB</text>
</g>
<!-- &#45;3649833366064277635&#45;&gt;&#45;4898562207952486521 -->
<g id="edge9" class="edge"><title>&#45;3649833366064277635&#45;&gt;&#45;4898562207952486521</title>
<path fill="none" stroke="black" stroke-dasharray="5,2" d="M206.5,-366.411C206.5,-353.246 206.5,-339.301 206.5,-325.819"/>
<polygon fill="black" stroke="black" points="210.001,-325.62 206.5,-315.62 203.001,-325.62 210.001,-325.62"/>
<text text-anchor="middle" x="231" y="-336.8" font-family="Times,serif" font-size="14.00">groupBy</text>
</g>
<!-- &#45;8807795768450238998 -->
<g id="node4" class="node"><title>&#45;8807795768450238998</title>
<polygon fill="lightgreen" stroke="black" points="89.7764,-549.5 89.7764,-681.5 323.225,-681.5 323.225,-549.5 89.7764,-549.5"/>
<text text-anchor="middle" x="146.756" y="-666.3" font-family="Times,serif" font-size="14.00">operation:</text>
<polyline fill="none" stroke="black" points="89.7764,-659.5 203.735,-659.5 "/>
<text text-anchor="middle" x="146.756" y="-644.3" font-family="Times,serif" font-size="14.00">output type:</text>
<polyline fill="none" stroke="black" points="89.7764,-637.5 203.735,-637.5 "/>
<text text-anchor="middle" x="146.756" y="-622.3" font-family="Times,serif" font-size="14.00">elements:</text>
<polyline fill="none" stroke="black" points="89.7764,-615.5 203.735,-615.5 "/>
<text text-anchor="middle" x="146.756" y="-600.3" font-family="Times,serif" font-size="14.00">time per element:</text>
<polyline fill="none" stroke="black" points="89.7764,-593.5 203.735,-593.5 "/>
<text text-anchor="middle" x="146.756" y="-578.3" font-family="Times,serif" font-size="14.00">element size:</text>
<polyline fill="none" stroke="black" points="89.7764,-571.5 203.735,-571.5 "/>
<text text-anchor="middle" x="146.756" y="-556.3" font-family="Times,serif" font-size="14.00">total size:</text>
<polyline fill="none" stroke="black" points="203.735,-549.5 203.735,-681.5 "/>
<text text-anchor="middle" x="263.48" y="-666.3" font-family="Times,serif" font-size="14.00">Shuffle Tile Fields</text>
<polyline fill="none" stroke="black" points="203.735,-659.5 323.225,-659.5 "/>
<text text-anchor="middle" x="263.48" y="-644.3" font-family="Times,serif" font-size="14.00">tile_data</text>
<polyline fill="none" stroke="black" points="203.735,-637.5 323.225,-637.5 "/>
<text text-anchor="middle" x="263.48" y="-622.3" font-family="Times,serif" font-size="14.00">7569</text>
<polyline fill="none" stroke="black" points="203.735,-615.5 323.225,-615.5 "/>
<text text-anchor="middle" x="263.48" y="-600.3" font-family="Times,serif" font-size="14.00">8.4ns</text>
<polyline fill="none" stroke="black" points="203.735,-593.5 323.225,-593.5 "/>
<text text-anchor="middle" x="263.48" y="-578.3" font-family="Times,serif" font-size="14.00">Mean: 361 bytes</text>
<polyline fill="none" stroke="black" points="203.735,-571.5 323.225,-571.5 "/>
<text text-anchor="middle" x="263.48" y="-556.3" font-family="Times,serif" font-size="14.00">2.7MB</text>
</g>
<!-- &#45;8807795768450238998&#45;&gt;&#45;3649833366064277635 -->
<g id="edge8" class="edge"><title>&#45;8807795768450238998&#45;&gt;&#45;3649833366064277635</title>
<path fill="none" stroke="black" stroke-dasharray="5,2" d="M206.5,-549.411C206.5,-536.246 206.5,-522.301 206.5,-508.819"/>
<polygon fill="black" stroke="black" points="210.001,-508.62 206.5,-498.62 203.001,-508.62 210.001,-508.62"/>
<text text-anchor="middle" x="218.552" y="-519.8" font-family="Times,serif" font-size="14.00">map</text>
</g>
<!-- 3698043062737579819 -->
<g id="node5" class="node"><title>3698043062737579819</title>
<polygon fill="yellow" stroke="black" points="6.34033,-732.5 6.34033,-864.5 406.661,-864.5 406.661,-732.5 6.34033,-732.5"/>
<text text-anchor="middle" x="63.3198" y="-849.3" font-family="Times,serif" font-size="14.00">operation:</text>
<polyline fill="none" stroke="black" points="6.34033,-842.5 120.299,-842.5 "/>
<text text-anchor="middle" x="63.3198" y="-827.3" font-family="Times,serif" font-size="14.00">output type:</text>
<polyline fill="none" stroke="black" points="6.34033,-820.5 120.299,-820.5 "/>
<text text-anchor="middle" x="63.3198" y="-805.3" font-family="Times,serif" font-size="14.00">elements:</text>
<polyline fill="none" stroke="black" points="6.34033,-798.5 120.299,-798.5 "/>
<text text-anchor="middle" x="63.3198" y="-783.3" font-family="Times,serif" font-size="14.00">time per element:</text>
<polyline fill="none" stroke="black" points="6.34033,-776.5 120.299,-776.5 "/>
<text text-anchor="middle" x="63.3198" y="-761.3" font-family="Times,serif" font-size="14.00">element size:</text>
<polyline fill="none" stroke="black" points="6.34033,-754.5 120.299,-754.5 "/>
<text text-anchor="middle" x="63.3198" y="-739.3" font-family="Times,serif" font-size="14.00">total size:</text>
<polyline fill="none" stroke="black" points="120.299,-732.5 120.299,-864.5 "/>
<text text-anchor="middle" x="263.48" y="-849.3" font-family="Times,serif" font-size="14.00">calc_input_tiles</text>
<polyline fill="none" stroke="black" points="120.299,-842.5 406.661,-842.5 "/>
<text text-anchor="middle" x="263.48" y="-827.3" font-family="Times,serif" font-size="14.00">(url, (source_tile_position, target_tile_position))</text>
<polyline fill="none" stroke="black" points="120.299,-820.5 406.661,-820.5 "/>
<text text-anchor="middle" x="263.48" y="-805.3" font-family="Times,serif" font-size="14.00">7569</text>
<polyline fill="none" stroke="black" points="120.299,-798.5 406.661,-798.5 "/>
<text text-anchor="middle" x="263.48" y="-783.3" font-family="Times,serif" font-size="14.00">15.5ns</text>
<polyline fill="none" stroke="black" points="120.299,-776.5 406.661,-776.5 "/>
<text text-anchor="middle" x="263.48" y="-761.3" font-family="Times,serif" font-size="14.00">Mean: 336 bytes</text>
<polyline fill="none" stroke="black" points="120.299,-754.5 406.661,-754.5 "/>
<text text-anchor="middle" x="263.48" y="-739.3" font-family="Times,serif" font-size="14.00">2.5MB</text>
</g>
<!-- 3698043062737579819&#45;&gt;&#45;8807795768450238998 -->
<g id="edge7" class="edge"><title>3698043062737579819&#45;&gt;&#45;8807795768450238998</title>
<path fill="none" stroke="black" stroke-dasharray="5,2" d="M206.5,-732.411C206.5,-719.246 206.5,-705.301 206.5,-691.819"/>
<polygon fill="black" stroke="black" points="210.001,-691.62 206.5,-681.62 203.001,-691.62 210.001,-691.62"/>
<text text-anchor="middle" x="218.552" y="-702.8" font-family="Times,serif" font-size="14.00">map</text>
</g>
<!-- &#45;1254881363456135209 -->
<g id="node6" class="node"><title>&#45;1254881363456135209</title>
<polygon fill="yellow" stroke="black" points="68.814,-915.5 68.814,-1047.5 344.187,-1047.5 344.187,-915.5 68.814,-915.5"/>
<text text-anchor="middle" x="125.793" y="-1032.3" font-family="Times,serif" font-size="14.00">operation:</text>
<polyline fill="none" stroke="black" points="68.814,-1025.5 182.773,-1025.5 "/>
<text text-anchor="middle" x="125.793" y="-1010.3" font-family="Times,serif" font-size="14.00">output type:</text>
<polyline fill="none" stroke="black" points="68.814,-1003.5 182.773,-1003.5 "/>
<text text-anchor="middle" x="125.793" y="-988.3" font-family="Times,serif" font-size="14.00">elements:</text>
<polyline fill="none" stroke="black" points="68.814,-981.5 182.773,-981.5 "/>
<text text-anchor="middle" x="125.793" y="-966.3" font-family="Times,serif" font-size="14.00">time per element:</text>
<polyline fill="none" stroke="black" points="68.814,-959.5 182.773,-959.5 "/>
<text text-anchor="middle" x="125.793" y="-944.3" font-family="Times,serif" font-size="14.00">element size:</text>
<polyline fill="none" stroke="black" points="68.814,-937.5 182.773,-937.5 "/>
<text text-anchor="middle" x="125.793" y="-922.3" font-family="Times,serif" font-size="14.00">total size:</text>
<polyline fill="none" stroke="black" points="182.773,-915.5 182.773,-1047.5 "/>
<text text-anchor="middle" x="263.48" y="-1032.3" font-family="Times,serif" font-size="14.00">get_output_tiles</text>
<polyline fill="none" stroke="black" points="182.773,-1025.5 344.187,-1025.5 "/>
<text text-anchor="middle" x="263.48" y="-1010.3" font-family="Times,serif" font-size="14.00">(url, source_tile_position)</text>
<polyline fill="none" stroke="black" points="182.773,-1003.5 344.187,-1003.5 "/>
<text text-anchor="middle" x="263.48" y="-988.3" font-family="Times,serif" font-size="14.00">900</text>
<polyline fill="none" stroke="black" points="182.773,-981.5 344.187,-981.5 "/>
<text text-anchor="middle" x="263.48" y="-966.3" font-family="Times,serif" font-size="14.00">2.2ns</text>
<polyline fill="none" stroke="black" points="182.773,-959.5 344.187,-959.5 "/>
<text text-anchor="middle" x="263.48" y="-944.3" font-family="Times,serif" font-size="14.00">Mean: 233 bytes</text>
<polyline fill="none" stroke="black" points="182.773,-937.5 344.187,-937.5 "/>
<text text-anchor="middle" x="263.48" y="-922.3" font-family="Times,serif" font-size="14.00">209.7kB</text>
</g>
<!-- &#45;1254881363456135209&#45;&gt;3698043062737579819 -->
<g id="edge4" class="edge"><title>&#45;1254881363456135209&#45;&gt;3698043062737579819</title>
<path fill="none" stroke="black" stroke-dasharray="5,2" d="M114.008,-915.367C109.596,-909.595 105.724,-903.469 102.625,-897 98.8402,-889.103 98.0897,-881.525 99.6061,-874.329"/>
<polygon fill="black" stroke="black" points="102.956,-875.354 103.007,-864.759 96.3604,-873.01 102.956,-875.354"/>
<text text-anchor="middle" x="143.938" y="-885.8" font-family="Times,serif" font-size="14.00">flatMapValues</text>
</g>
<!-- &#45;1254881363456135209&#45;&gt;3698043062737579819 -->
<g id="edge5" class="edge"><title>&#45;1254881363456135209&#45;&gt;3698043062737579819</title>
<path fill="none" stroke="black" stroke-dasharray="5,2" d="M199.993,-915.411C199.736,-902.246 199.683,-888.301 199.836,-874.819"/>
<polygon fill="black" stroke="black" points="203.338,-874.672 199.992,-864.62 196.339,-874.565 203.338,-874.672"/>
</g>
<!-- &#45;1254881363456135209&#45;&gt;3698043062737579819 -->
<g id="edge6" class="edge"><title>&#45;1254881363456135209&#45;&gt;3698043062737579819</title>
<path fill="none" stroke="black" stroke-dasharray="5,2" d="M213.008,-915.411C213.265,-902.246 213.318,-888.301 213.165,-874.819"/>
<polygon fill="black" stroke="black" points="216.662,-874.565 213.009,-864.62 209.663,-874.672 216.662,-874.565"/>
</g>
<!-- 7864656339687220406 -->
<g id="node7" class="node"><title>7864656339687220406</title>
<polygon fill="turquoise" stroke="black" points="85.1484,-1098.5 85.1484,-1230.5 327.853,-1230.5 327.853,-1098.5 85.1484,-1098.5"/>
<text text-anchor="middle" x="142.128" y="-1215.3" font-family="Times,serif" font-size="14.00">operation:</text>
<polyline fill="none" stroke="black" points="85.1484,-1208.5 199.107,-1208.5 "/>
<text text-anchor="middle" x="142.128" y="-1193.3" font-family="Times,serif" font-size="14.00">output type:</text>
<polyline fill="none" stroke="black" points="85.1484,-1186.5 199.107,-1186.5 "/>
<text text-anchor="middle" x="142.128" y="-1171.3" font-family="Times,serif" font-size="14.00">elements:</text>
<polyline fill="none" stroke="black" points="85.1484,-1164.5 199.107,-1164.5 "/>
<text text-anchor="middle" x="142.128" y="-1149.3" font-family="Times,serif" font-size="14.00">time per element:</text>
<polyline fill="none" stroke="black" points="85.1484,-1142.5 199.107,-1142.5 "/>
<text text-anchor="middle" x="142.128" y="-1127.3" font-family="Times,serif" font-size="14.00">element size:</text>
<polyline fill="none" stroke="black" points="85.1484,-1120.5 199.107,-1120.5 "/>
<text text-anchor="middle" x="142.128" y="-1105.3" font-family="Times,serif" font-size="14.00">total size:</text>
<polyline fill="none" stroke="black" points="199.107,-1098.5 199.107,-1230.5 "/>
<text text-anchor="middle" x="263.48" y="-1215.3" font-family="Times,serif" font-size="14.00">parallelize : Custom</text>
<polyline fill="none" stroke="black" points="199.107,-1208.5 327.853,-1208.5 "/>
<text text-anchor="middle" x="263.48" y="-1193.3" font-family="Times,serif" font-size="14.00">url</text>
<polyline fill="none" stroke="black" points="199.107,-1186.5 327.853,-1186.5 "/>
<text text-anchor="middle" x="263.48" y="-1171.3" font-family="Times,serif" font-size="14.00">1</text>
<polyline fill="none" stroke="black" points="199.107,-1164.5 327.853,-1164.5 "/>
<text text-anchor="middle" x="263.48" y="-1149.3" font-family="Times,serif" font-size="14.00">14.1ns</text>
<polyline fill="none" stroke="black" points="199.107,-1142.5 327.853,-1142.5 "/>
<text text-anchor="middle" x="263.48" y="-1127.3" font-family="Times,serif" font-size="14.00">Mean: 37 bytes</text>
<polyline fill="none" stroke="black" points="199.107,-1120.5 327.853,-1120.5 "/>
<text text-anchor="middle" x="263.48" y="-1105.3" font-family="Times,serif" font-size="14.00">37 bytes</text>
</g>
<!-- 7864656339687220406&#45;&gt;&#45;1254881363456135209 -->
<g id="edge1" class="edge"><title>7864656339687220406&#45;&gt;&#45;1254881363456135209</title>
<path fill="none" stroke="black" stroke-dasharray="5,2" d="M148.408,-1098.45C145.052,-1092.48 142.152,-1086.3 139.949,-1080 137.297,-1072.42 137.017,-1064.87 138.444,-1057.53"/>
<polygon fill="black" stroke="black" points="141.884,-1058.25 141.386,-1047.66 135.175,-1056.25 141.884,-1058.25"/>
<text text-anchor="middle" x="162.276" y="-1068.8" font-family="Times,serif" font-size="14.00">flatMap</text>
</g>
<!-- 7864656339687220406&#45;&gt;&#45;1254881363456135209 -->
<g id="edge2" class="edge"><title>7864656339687220406&#45;&gt;&#45;1254881363456135209</title>
<path fill="none" stroke="black" stroke-dasharray="5,2" d="M199.993,-1098.41C199.736,-1085.25 199.683,-1071.3 199.836,-1057.82"/>
<polygon fill="black" stroke="black" points="203.338,-1057.67 199.992,-1047.62 196.339,-1057.56 203.338,-1057.67"/>
</g>
<!-- 7864656339687220406&#45;&gt;&#45;1254881363456135209 -->
<g id="edge3" class="edge"><title>7864656339687220406&#45;&gt;&#45;1254881363456135209</title>
<path fill="none" stroke="black" stroke-dasharray="5,2" d="M213.008,-1098.41C213.265,-1085.25 213.318,-1071.3 213.165,-1057.82"/>
<polygon fill="black" stroke="black" points="216.662,-1057.56 213.009,-1047.62 209.663,-1057.67 216.662,-1057.56"/>
</g>
</g>
</svg>
