<?xml version="1.0" encoding="UTF-8" standalone="no"?>
<!DOCTYPE svg PUBLIC "-//W3C//DTD SVG 1.1//EN"
 "http://www.w3.org/Graphics/SVG/1.1/DTD/svg11.dtd">
<!-- Generated by graphviz version 2.38.0 (20140413.2041)
 -->
<!-- Title: G Pages: 1 -->
<svg width="435pt" height="1239pt"
 viewBox="0.00 0.00 435.00 1239.00" xmlns="http://www.w3.org/2000/svg" xmlns:xlink="http://www.w3.org/1999/xlink">
<g id="graph0" class="graph" transform="scale(1 1) rotate(0) translate(4 1235)">
<title>G</title>
<polygon fill="white" stroke="#000000" points="-4,4 -4,-1235 431.001,-1235 431.001,4 -4,4"/>
<!-- &#45;2490686397454983470 -->
<g id="node1" class="node"><title>&#45;2490686397454983470</title>
<polygon fill="lightgreen" stroke="black" points="0,-0.5 0,-132.5 427.001,-132.5 427.001,-0.5 0,-0.5"/>
<text text-anchor="middle" x="56.9795" y="-117.3" font-family="Times,serif" font-size="14.00">operation:</text>
<polyline fill="none" stroke="black" points="0,-110.5 113.959,-110.5 "/>
<text text-anchor="middle" x="56.9795" y="-95.3" font-family="Times,serif" font-size="14.00">output type:</text>
<polyline fill="none" stroke="black" points="0,-88.5 113.959,-88.5 "/>
<text text-anchor="middle" x="56.9795" y="-73.3" font-family="Times,serif" font-size="14.00">elements:</text>
<polyline fill="none" stroke="black" points="0,-66.5 113.959,-66.5 "/>
<text text-anchor="middle" x="56.9795" y="-51.3" font-family="Times,serif" font-size="14.00">time per element:</text>
<polyline fill="none" stroke="black" points="0,-44.5 113.959,-44.5 "/>
<text text-anchor="middle" x="56.9795" y="-29.3" font-family="Times,serif" font-size="14.00">element size:</text>
<polyline fill="none" stroke="black" points="0,-22.5 113.959,-22.5 "/>
<text text-anchor="middle" x="56.9795" y="-7.3" font-family="Times,serif" font-size="14.00">total size:</text>
<polyline fill="none" stroke="black" points="113.959,-0.5 113.959,-132.5 "/>
<text text-anchor="middle" x="270.48" y="-117.3" font-family="Times,serif" font-size="14.00">ti_full_reconstruction</text>
<polyline fill="none" stroke="black" points="113.959,-110.5 427.001,-110.5 "/>
<text text-anchor="middle" x="270.48" y="-95.3" font-family="Times,serif" font-size="14.00">(source_tile_position, ndarray[int16](2000, 2000, 4))</text>
<polyline fill="none" stroke="black" points="113.959,-88.5 427.001,-88.5 "/>
<text text-anchor="middle" x="270.48" y="-73.3" font-family="Times,serif" font-size="14.00">16</text>
<polyline fill="none" stroke="black" points="113.959,-66.5 427.001,-66.5 "/>
<text text-anchor="middle" x="270.48" y="-51.3" font-family="Times,serif" font-size="14.00">2.0s</text>
<polyline fill="none" stroke="black" points="113.959,-44.5 427.001,-44.5 "/>
<text text-anchor="middle" x="270.48" y="-29.3" font-family="Times,serif" font-size="14.00">Mean: 32.0MB</text>
<polyline fill="none" stroke="black" points="113.959,-22.5 427.001,-22.5 "/>
<text text-anchor="middle" x="270.48" y="-7.3" font-family="Times,serif" font-size="14.00">512.0MB</text>
</g>
<!-- &#45;7162962760365311961 -->
<g id="node2" class="node"><title>&#45;7162962760365311961</title>
<polygon fill="orange" stroke="black" points="13.5693,-183.5 13.5693,-315.5 413.432,-315.5 413.432,-183.5 13.5693,-183.5"/>
<text text-anchor="middle" x="70.5488" y="-300.3" font-family="Times,serif" font-size="14.00">operation:</text>
<polyline fill="none" stroke="black" points="13.5693,-293.5 127.528,-293.5 "/>
<text text-anchor="middle" x="70.5488" y="-278.3" font-family="Times,serif" font-size="14.00">output type:</text>
<polyline fill="none" stroke="black" points="13.5693,-271.5 127.528,-271.5 "/>
<text text-anchor="middle" x="70.5488" y="-256.3" font-family="Times,serif" font-size="14.00">elements:</text>
<polyline fill="none" stroke="black" points="13.5693,-249.5 127.528,-249.5 "/>
<text text-anchor="middle" x="70.5488" y="-234.3" font-family="Times,serif" font-size="14.00">time per element:</text>
<polyline fill="none" stroke="black" points="13.5693,-227.5 127.528,-227.5 "/>
<text text-anchor="middle" x="70.5488" y="-212.3" font-family="Times,serif" font-size="14.00">element size:</text>
<polyline fill="none" stroke="black" points="13.5693,-205.5 127.528,-205.5 "/>
<text text-anchor="middle" x="70.5488" y="-190.3" font-family="Times,serif" font-size="14.00">total size:</text>
<polyline fill="none" stroke="black" points="127.528,-183.5 127.528,-315.5 "/>
<text text-anchor="middle" x="270.48" y="-300.3" font-family="Times,serif" font-size="14.00">Select Field: target_tile_id</text>
<polyline fill="none" stroke="black" points="127.528,-293.5 413.432,-293.5 "/>
<text text-anchor="middle" x="270.48" y="-278.3" font-family="Times,serif" font-size="14.00">(source_tile_position, List[tile_data])</text>
<polyline fill="none" stroke="black" points="127.528,-271.5 413.432,-271.5 "/>
<text text-anchor="middle" x="270.48" y="-256.3" font-family="Times,serif" font-size="14.00">16</text>
<polyline fill="none" stroke="black" points="127.528,-249.5 413.432,-249.5 "/>
<text text-anchor="middle" x="270.48" y="-234.3" font-family="Times,serif" font-size="14.00">30.1ns</text>
<polyline fill="none" stroke="black" points="127.528,-227.5 413.432,-227.5 "/>
<text text-anchor="middle" x="270.48" y="-212.3" font-family="Times,serif" font-size="14.00">Min: 32.0MB, Mean: 162.0MB, Max: 288.0MB</text>
<polyline fill="none" stroke="black" points="127.528,-205.5 413.432,-205.5 "/>
<text text-anchor="middle" x="270.48" y="-190.3" font-family="Times,serif" font-size="14.00">2.6GB</text>
</g>
<!-- &#45;7162962760365311961&#45;&gt;&#45;2490686397454983470 -->
<g id="edge10" class="edge"><title>&#45;7162962760365311961&#45;&gt;&#45;2490686397454983470</title>
<path fill="none" stroke="black" stroke-dasharray="5,2" d="M213.5,-183.411C213.5,-170.246 213.5,-156.301 213.5,-142.819"/>
<polygon fill="black" stroke="black" points="217.001,-142.62 213.5,-132.62 210.001,-142.62 217.001,-142.62"/>
<text text-anchor="middle" x="225.552" y="-153.8" font-family="Times,serif" font-size="14.00">map</text>
</g>
<!-- &#45;3795265205880529409 -->
<g id="node3" class="node"><title>&#45;3795265205880529409</title>
<polygon fill="lightgreen" stroke="black" points="105.745,-366.5 105.745,-498.5 321.256,-498.5 321.256,-366.5 105.745,-366.5"/>
<text text-anchor="middle" x="162.725" y="-483.3" font-family="Times,serif" font-size="14.00">operation:</text>
<polyline fill="none" stroke="black" points="105.745,-476.5 219.704,-476.5 "/>
<text text-anchor="middle" x="162.725" y="-461.3" font-family="Times,serif" font-size="14.00">output type:</text>
<polyline fill="none" stroke="black" points="105.745,-454.5 219.704,-454.5 "/>
<text text-anchor="middle" x="162.725" y="-439.3" font-family="Times,serif" font-size="14.00">elements:</text>
<polyline fill="none" stroke="black" points="105.745,-432.5 219.704,-432.5 "/>
<text text-anchor="middle" x="162.725" y="-417.3" font-family="Times,serif" font-size="14.00">time per element:</text>
<polyline fill="none" stroke="black" points="105.745,-410.5 219.704,-410.5 "/>
<text text-anchor="middle" x="162.725" y="-395.3" font-family="Times,serif" font-size="14.00">element size:</text>
<polyline fill="none" stroke="black" points="105.745,-388.5 219.704,-388.5 "/>
<text text-anchor="middle" x="162.725" y="-373.3" font-family="Times,serif" font-size="14.00">total size:</text>
<polyline fill="none" stroke="black" points="219.704,-366.5 219.704,-498.5 "/>
<text text-anchor="middle" x="270.48" y="-483.3" font-family="Times,serif" font-size="14.00">pull_input_tile</text>
<polyline fill="none" stroke="black" points="219.704,-476.5 321.256,-476.5 "/>
<text text-anchor="middle" x="270.48" y="-461.3" font-family="Times,serif" font-size="14.00">tile_data</text>
<polyline fill="none" stroke="black" points="219.704,-454.5 321.256,-454.5 "/>
<text text-anchor="middle" x="270.48" y="-439.3" font-family="Times,serif" font-size="14.00">81</text>
<polyline fill="none" stroke="black" points="219.704,-432.5 321.256,-432.5 "/>
<text text-anchor="middle" x="270.48" y="-417.3" font-family="Times,serif" font-size="14.00">368.2ms</text>
<polyline fill="none" stroke="black" points="219.704,-410.5 321.256,-410.5 "/>
<text text-anchor="middle" x="270.48" y="-395.3" font-family="Times,serif" font-size="14.00">Mean: 32.0MB</text>
<polyline fill="none" stroke="black" points="219.704,-388.5 321.256,-388.5 "/>
<text text-anchor="middle" x="270.48" y="-373.3" font-family="Times,serif" font-size="14.00">2.6GB</text>
</g>
<!-- &#45;3795265205880529409&#45;&gt;&#45;7162962760365311961 -->
<g id="edge9" class="edge"><title>&#45;3795265205880529409&#45;&gt;&#45;7162962760365311961</title>
<path fill="none" stroke="black" stroke-dasharray="5,2" d="M213.5,-366.411C213.5,-353.246 213.5,-339.301 213.5,-325.819"/>
<polygon fill="black" stroke="black" points="217.001,-325.62 213.5,-315.62 210.001,-325.62 217.001,-325.62"/>
<text text-anchor="middle" x="238" y="-336.8" font-family="Times,serif" font-size="14.00">groupBy</text>
</g>
<!-- &#45;2135798594591799956 -->
<g id="node4" class="node"><title>&#45;2135798594591799956</title>
<polygon fill="lightgreen" stroke="black" points="96.7764,-549.5 96.7764,-681.5 330.225,-681.5 330.225,-549.5 96.7764,-549.5"/>
<text text-anchor="middle" x="153.756" y="-666.3" font-family="Times,serif" font-size="14.00">operation:</text>
<polyline fill="none" stroke="black" points="96.7764,-659.5 210.735,-659.5 "/>
<text text-anchor="middle" x="153.756" y="-644.3" font-family="Times,serif" font-size="14.00">output type:</text>
<polyline fill="none" stroke="black" points="96.7764,-637.5 210.735,-637.5 "/>
<text text-anchor="middle" x="153.756" y="-622.3" font-family="Times,serif" font-size="14.00">elements:</text>
<polyline fill="none" stroke="black" points="96.7764,-615.5 210.735,-615.5 "/>
<text text-anchor="middle" x="153.756" y="-600.3" font-family="Times,serif" font-size="14.00">time per element:</text>
<polyline fill="none" stroke="black" points="96.7764,-593.5 210.735,-593.5 "/>
<text text-anchor="middle" x="153.756" y="-578.3" font-family="Times,serif" font-size="14.00">element size:</text>
<polyline fill="none" stroke="black" points="96.7764,-571.5 210.735,-571.5 "/>
<text text-anchor="middle" x="153.756" y="-556.3" font-family="Times,serif" font-size="14.00">total size:</text>
<polyline fill="none" stroke="black" points="210.735,-549.5 210.735,-681.5 "/>
<text text-anchor="middle" x="270.48" y="-666.3" font-family="Times,serif" font-size="14.00">Shuffle Tile Fields</text>
<polyline fill="none" stroke="black" points="210.735,-659.5 330.225,-659.5 "/>
<text text-anchor="middle" x="270.48" y="-644.3" font-family="Times,serif" font-size="14.00">tile_data</text>
<polyline fill="none" stroke="black" points="210.735,-637.5 330.225,-637.5 "/>
<text text-anchor="middle" x="270.48" y="-622.3" font-family="Times,serif" font-size="14.00">81</text>
<polyline fill="none" stroke="black" points="210.735,-615.5 330.225,-615.5 "/>
<text text-anchor="middle" x="270.48" y="-600.3" font-family="Times,serif" font-size="14.00">3.8ns</text>
<polyline fill="none" stroke="black" points="210.735,-593.5 330.225,-593.5 "/>
<text text-anchor="middle" x="270.48" y="-578.3" font-family="Times,serif" font-size="14.00">Mean: 361 bytes</text>
<polyline fill="none" stroke="black" points="210.735,-571.5 330.225,-571.5 "/>
<text text-anchor="middle" x="270.48" y="-556.3" font-family="Times,serif" font-size="14.00">29.2kB</text>
</g>
<!-- &#45;2135798594591799956&#45;&gt;&#45;3795265205880529409 -->
<g id="edge8" class="edge"><title>&#45;2135798594591799956&#45;&gt;&#45;3795265205880529409</title>
<path fill="none" stroke="black" stroke-dasharray="5,2" d="M213.5,-549.411C213.5,-536.246 213.5,-522.301 213.5,-508.819"/>
<polygon fill="black" stroke="black" points="217.001,-508.62 213.5,-498.62 210.001,-508.62 217.001,-508.62"/>
<text text-anchor="middle" x="225.552" y="-519.8" font-family="Times,serif" font-size="14.00">map</text>
</g>
<!-- &#45;6338795378464516490 -->
<g id="node5" class="node"><title>&#45;6338795378464516490</title>
<polygon fill="yellow" stroke="black" points="13.3403,-732.5 13.3403,-864.5 413.661,-864.5 413.661,-732.5 13.3403,-732.5"/>
<text text-anchor="middle" x="70.3198" y="-849.3" font-family="Times,serif" font-size="14.00">operation:</text>
<polyline fill="none" stroke="black" points="13.3403,-842.5 127.299,-842.5 "/>
<text text-anchor="middle" x="70.3198" y="-827.3" font-family="Times,serif" font-size="14.00">output type:</text>
<polyline fill="none" stroke="black" points="13.3403,-820.5 127.299,-820.5 "/>
<text text-anchor="middle" x="70.3198" y="-805.3" font-family="Times,serif" font-size="14.00">elements:</text>
<polyline fill="none" stroke="black" points="13.3403,-798.5 127.299,-798.5 "/>
<text text-anchor="middle" x="70.3198" y="-783.3" font-family="Times,serif" font-size="14.00">time per element:</text>
<polyline fill="none" stroke="black" points="13.3403,-776.5 127.299,-776.5 "/>
<text text-anchor="middle" x="70.3198" y="-761.3" font-family="Times,serif" font-size="14.00">element size:</text>
<polyline fill="none" stroke="black" points="13.3403,-754.5 127.299,-754.5 "/>
<text text-anchor="middle" x="70.3198" y="-739.3" font-family="Times,serif" font-size="14.00">total size:</text>
<polyline fill="none" stroke="black" points="127.299,-732.5 127.299,-864.5 "/>
<text text-anchor="middle" x="270.48" y="-849.3" font-family="Times,serif" font-size="14.00">calc_input_tiles</text>
<polyline fill="none" stroke="black" points="127.299,-842.5 413.661,-842.5 "/>
<text text-anchor="middle" x="270.48" y="-827.3" font-family="Times,serif" font-size="14.00">(url, (source_tile_position, target_tile_position))</text>
<polyline fill="none" stroke="black" points="127.299,-820.5 413.661,-820.5 "/>
<text text-anchor="middle" x="270.48" y="-805.3" font-family="Times,serif" font-size="14.00">81</text>
<polyline fill="none" stroke="black" points="127.299,-798.5 413.661,-798.5 "/>
<text text-anchor="middle" x="270.48" y="-783.3" font-family="Times,serif" font-size="14.00">9.1ns</text>
<polyline fill="none" stroke="black" points="127.299,-776.5 413.661,-776.5 "/>
<text text-anchor="middle" x="270.48" y="-761.3" font-family="Times,serif" font-size="14.00">Mean: 336 bytes</text>
<polyline fill="none" stroke="black" points="127.299,-754.5 413.661,-754.5 "/>
<text text-anchor="middle" x="270.48" y="-739.3" font-family="Times,serif" font-size="14.00">27.2kB</text>
</g>
<!-- &#45;6338795378464516490&#45;&gt;&#45;2135798594591799956 -->
<g id="edge7" class="edge"><title>&#45;6338795378464516490&#45;&gt;&#45;2135798594591799956</title>
<path fill="none" stroke="black" stroke-dasharray="5,2" d="M213.5,-732.411C213.5,-719.246 213.5,-705.301 213.5,-691.819"/>
<polygon fill="black" stroke="black" points="217.001,-691.62 213.5,-681.62 210.001,-691.62 217.001,-691.62"/>
<text text-anchor="middle" x="225.552" y="-702.8" font-family="Times,serif" font-size="14.00">map</text>
</g>
<!-- 4633766074121796734 -->
<g id="node6" class="node"><title>4633766074121796734</title>
<polygon fill="yellow" stroke="black" points="75.814,-915.5 75.814,-1047.5 351.187,-1047.5 351.187,-915.5 75.814,-915.5"/>
<text text-anchor="middle" x="132.793" y="-1032.3" font-family="Times,serif" font-size="14.00">operation:</text>
<polyline fill="none" stroke="black" points="75.814,-1025.5 189.773,-1025.5 "/>
<text text-anchor="middle" x="132.793" y="-1010.3" font-family="Times,serif" font-size="14.00">output type:</text>
<polyline fill="none" stroke="black" points="75.814,-1003.5 189.773,-1003.5 "/>
<text text-anchor="middle" x="132.793" y="-988.3" font-family="Times,serif" font-size="14.00">elements:</text>
<polyline fill="none" stroke="black" points="75.814,-981.5 189.773,-981.5 "/>
<text text-anchor="middle" x="132.793" y="-966.3" font-family="Times,serif" font-size="14.00">time per element:</text>
<polyline fill="none" stroke="black" points="75.814,-959.5 189.773,-959.5 "/>
<text text-anchor="middle" x="132.793" y="-944.3" font-family="Times,serif" font-size="14.00">element size:</text>
<polyline fill="none" stroke="black" points="75.814,-937.5 189.773,-937.5 "/>
<text text-anchor="middle" x="132.793" y="-922.3" font-family="Times,serif" font-size="14.00">total size:</text>
<polyline fill="none" stroke="black" points="189.773,-915.5 189.773,-1047.5 "/>
<text text-anchor="middle" x="270.48" y="-1032.3" font-family="Times,serif" font-size="14.00">get_output_tiles</text>
<polyline fill="none" stroke="black" points="189.773,-1025.5 351.187,-1025.5 "/>
<text text-anchor="middle" x="270.48" y="-1010.3" font-family="Times,serif" font-size="14.00">(url, source_tile_position)</text>
<polyline fill="none" stroke="black" points="189.773,-1003.5 351.187,-1003.5 "/>
<text text-anchor="middle" x="270.48" y="-988.3" font-family="Times,serif" font-size="14.00">16</text>
<polyline fill="none" stroke="black" points="189.773,-981.5 351.187,-981.5 "/>
<text text-anchor="middle" x="270.48" y="-966.3" font-family="Times,serif" font-size="14.00">10.4ns</text>
<polyline fill="none" stroke="black" points="189.773,-959.5 351.187,-959.5 "/>
<text text-anchor="middle" x="270.48" y="-944.3" font-family="Times,serif" font-size="14.00">Mean: 233 bytes</text>
<polyline fill="none" stroke="black" points="189.773,-937.5 351.187,-937.5 "/>
<text text-anchor="middle" x="270.48" y="-922.3" font-family="Times,serif" font-size="14.00">3.7kB</text>
</g>
<!-- 4633766074121796734&#45;&gt;&#45;6338795378464516490 -->
<g id="edge4" class="edge"><title>4633766074121796734&#45;&gt;&#45;6338795378464516490</title>
<path fill="none" stroke="black" stroke-dasharray="5,2" d="M121.008,-915.367C116.596,-909.595 112.724,-903.469 109.625,-897 105.84,-889.103 105.09,-881.525 106.606,-874.329"/>
<polygon fill="black" stroke="black" points="109.956,-875.354 110.007,-864.759 103.36,-873.01 109.956,-875.354"/>
<text text-anchor="middle" x="150.938" y="-885.8" font-family="Times,serif" font-size="14.00">flatMapValues</text>
</g>
<!-- 4633766074121796734&#45;&gt;&#45;6338795378464516490 -->
<g id="edge5" class="edge"><title>4633766074121796734&#45;&gt;&#45;6338795378464516490</title>
<path fill="none" stroke="black" stroke-dasharray="5,2" d="M206.993,-915.411C206.736,-902.246 206.683,-888.301 206.836,-874.819"/>
<polygon fill="black" stroke="black" points="210.338,-874.672 206.992,-864.62 203.339,-874.565 210.338,-874.672"/>
</g>
<!-- 4633766074121796734&#45;&gt;&#45;6338795378464516490 -->
<g id="edge6" class="edge"><title>4633766074121796734&#45;&gt;&#45;6338795378464516490</title>
<path fill="none" stroke="black" stroke-dasharray="5,2" d="M220.008,-915.411C220.265,-902.246 220.318,-888.301 220.165,-874.819"/>
<polygon fill="black" stroke="black" points="223.662,-874.565 220.009,-864.62 216.663,-874.672 223.662,-874.565"/>
</g>
<!-- &#45;5209093605907626360 -->
<g id="node7" class="node"><title>&#45;5209093605907626360</title>
<polygon fill="turquoise" stroke="black" points="92.1484,-1098.5 92.1484,-1230.5 334.853,-1230.5 334.853,-1098.5 92.1484,-1098.5"/>
<text text-anchor="middle" x="149.128" y="-1215.3" font-family="Times,serif" font-size="14.00">operation:</text>
<polyline fill="none" stroke="black" points="92.1484,-1208.5 206.107,-1208.5 "/>
<text text-anchor="middle" x="149.128" y="-1193.3" font-family="Times,serif" font-size="14.00">output type:</text>
<polyline fill="none" stroke="black" points="92.1484,-1186.5 206.107,-1186.5 "/>
<text text-anchor="middle" x="149.128" y="-1171.3" font-family="Times,serif" font-size="14.00">elements:</text>
<polyline fill="none" stroke="black" points="92.1484,-1164.5 206.107,-1164.5 "/>
<text text-anchor="middle" x="149.128" y="-1149.3" font-family="Times,serif" font-size="14.00">time per element:</text>
<polyline fill="none" stroke="black" points="92.1484,-1142.5 206.107,-1142.5 "/>
<text text-anchor="middle" x="149.128" y="-1127.3" font-family="Times,serif" font-size="14.00">element size:</text>
<polyline fill="none" stroke="black" points="92.1484,-1120.5 206.107,-1120.5 "/>
<text text-anchor="middle" x="149.128" y="-1105.3" font-family="Times,serif" font-size="14.00">total size:</text>
<polyline fill="none" stroke="black" points="206.107,-1098.5 206.107,-1230.5 "/>
<text text-anchor="middle" x="270.48" y="-1215.3" font-family="Times,serif" font-size="14.00">parallelize : Custom</text>
<polyline fill="none" stroke="black" points="206.107,-1208.5 334.853,-1208.5 "/>
<text text-anchor="middle" x="270.48" y="-1193.3" font-family="Times,serif" font-size="14.00">url</text>
<polyline fill="none" stroke="black" points="206.107,-1186.5 334.853,-1186.5 "/>
<text text-anchor="middle" x="270.48" y="-1171.3" font-family="Times,serif" font-size="14.00">1</text>
<polyline fill="none" stroke="black" points="206.107,-1164.5 334.853,-1164.5 "/>
<text text-anchor="middle" x="270.48" y="-1149.3" font-family="Times,serif" font-size="14.00">3.1ns</text>
<polyline fill="none" stroke="black" points="206.107,-1142.5 334.853,-1142.5 "/>
<text text-anchor="middle" x="270.48" y="-1127.3" font-family="Times,serif" font-size="14.00">Mean: 37 bytes</text>
<polyline fill="none" stroke="black" points="206.107,-1120.5 334.853,-1120.5 "/>
<text text-anchor="middle" x="270.48" y="-1105.3" font-family="Times,serif" font-size="14.00">37 bytes</text>
</g>
<!-- &#45;5209093605907626360&#45;&gt;4633766074121796734 -->
<g id="edge1" class="edge"><title>&#45;5209093605907626360&#45;&gt;4633766074121796734</title>
<path fill="none" stroke="black" stroke-dasharray="5,2" d="M155.408,-1098.45C152.052,-1092.48 149.152,-1086.3 146.949,-1080 144.297,-1072.42 144.017,-1064.87 145.444,-1057.53"/>
<polygon fill="black" stroke="black" points="148.884,-1058.25 148.386,-1047.66 142.175,-1056.25 148.884,-1058.25"/>
<text text-anchor="middle" x="169.276" y="-1068.8" font-family="Times,serif" font-size="14.00">flatMap</text>
</g>
<!-- &#45;5209093605907626360&#45;&gt;4633766074121796734 -->
<g id="edge2" class="edge"><title>&#45;5209093605907626360&#45;&gt;4633766074121796734</title>
<path fill="none" stroke="black" stroke-dasharray="5,2" d="M206.993,-1098.41C206.736,-1085.25 206.683,-1071.3 206.836,-1057.82"/>
<polygon fill="black" stroke="black" points="210.338,-1057.67 206.992,-1047.62 203.339,-1057.56 210.338,-1057.67"/>
</g>
<!-- &#45;5209093605907626360&#45;&gt;4633766074121796734 -->
<g id="edge3" class="edge"><title>&#45;5209093605907626360&#45;&gt;4633766074121796734</title>
<path fill="none" stroke="black" stroke-dasharray="5,2" d="M220.008,-1098.41C220.265,-1085.25 220.318,-1071.3 220.165,-1057.82"/>
<polygon fill="black" stroke="black" points="223.662,-1057.56 220.009,-1047.62 216.663,-1057.67 223.662,-1057.56"/>
</g>
</g>
</svg>
