<?xml version="1.0" encoding="UTF-8" standalone="no"?>
<!DOCTYPE svg PUBLIC "-//W3C//DTD SVG 1.1//EN"
 "http://www.w3.org/Graphics/SVG/1.1/DTD/svg11.dtd">
<!-- Generated by graphviz version 2.38.0 (20140413.2041)
 -->
<!-- Title: G Pages: 1 -->
<svg width="435pt" height="1605pt"
 viewBox="0.00 0.00 435.00 1605.00" xmlns="http://www.w3.org/2000/svg" xmlns:xlink="http://www.w3.org/1999/xlink">
<g id="graph0" class="graph" transform="scale(1 1) rotate(0) translate(4 1601)">
<title>G</title>
<polygon fill="white" stroke="#000000" points="-4,4 -4,-1601 431.001,-1601 431.001,4 -4,4"/>
<!-- 2684151080636630655 -->
<g id="node1" class="node"><title>2684151080636630655</title>
<polygon fill="lightgreen" stroke="black" points="0,-0.5 0,-132.5 427.001,-132.5 427.001,-0.5 0,-0.5"/>
<text text-anchor="middle" x="56.9795" y="-117.3" font-family="Times,serif" font-size="14.00">operation:</text>
<polyline fill="none" stroke="black" points="0,-110.5 113.959,-110.5 "/>
<text text-anchor="middle" x="56.9795" y="-95.3" font-family="Times,serif" font-size="14.00">output type:</text>
<polyline fill="none" stroke="black" points="0,-88.5 113.959,-88.5 "/>
<text text-anchor="middle" x="56.9795" y="-73.3" font-family="Times,serif" font-size="14.00">elements:</text>
<polyline fill="none" stroke="black" points="0,-66.5 113.959,-66.5 "/>
<text text-anchor="middle" x="56.9795" y="-51.3" font-family="Times,serif" font-size="14.00">time per element:</text>
<polyline fill="none" stroke="black" points="0,-44.5 113.959,-44.5 "/>
<text text-anchor="middle" x="56.9795" y="-29.3" font-family="Times,serif" font-size="14.00">element size:</text>
<polyline fill="none" stroke="black" points="0,-22.5 113.959,-22.5 "/>
<text text-anchor="middle" x="56.9795" y="-7.3" font-family="Times,serif" font-size="14.00">total size:</text>
<polyline fill="none" stroke="black" points="113.959,-0.5 113.959,-132.5 "/>
<text text-anchor="middle" x="270.48" y="-117.3" font-family="Times,serif" font-size="14.00">ti_partial_collect</text>
<polyline fill="none" stroke="black" points="113.959,-110.5 427.001,-110.5 "/>
<text text-anchor="middle" x="270.48" y="-95.3" font-family="Times,serif" font-size="14.00">(source_tile_position, ndarray[int16](2000, 2000, 4))</text>
<polyline fill="none" stroke="black" points="113.959,-88.5 427.001,-88.5 "/>
<text text-anchor="middle" x="270.48" y="-73.3" font-family="Times,serif" font-size="14.00">16</text>
<polyline fill="none" stroke="black" points="113.959,-66.5 427.001,-66.5 "/>
<text text-anchor="middle" x="270.48" y="-51.3" font-family="Times,serif" font-size="14.00">960.6ms</text>
<polyline fill="none" stroke="black" points="113.959,-44.5 427.001,-44.5 "/>
<text text-anchor="middle" x="270.48" y="-29.3" font-family="Times,serif" font-size="14.00">Mean: 32.0MB</text>
<polyline fill="none" stroke="black" points="113.959,-22.5 427.001,-22.5 "/>
<text text-anchor="middle" x="270.48" y="-7.3" font-family="Times,serif" font-size="14.00">512.0MB</text>
</g>
<!-- &#45;8359388487471884205 -->
<g id="node2" class="node"><title>&#45;8359388487471884205</title>
<polygon fill="orange" stroke="black" points="13.5693,-183.5 13.5693,-315.5 413.432,-315.5 413.432,-183.5 13.5693,-183.5"/>
<text text-anchor="middle" x="70.5488" y="-300.3" font-family="Times,serif" font-size="14.00">operation:</text>
<polyline fill="none" stroke="black" points="13.5693,-293.5 127.528,-293.5 "/>
<text text-anchor="middle" x="70.5488" y="-278.3" font-family="Times,serif" font-size="14.00">output type:</text>
<polyline fill="none" stroke="black" points="13.5693,-271.5 127.528,-271.5 "/>
<text text-anchor="middle" x="70.5488" y="-256.3" font-family="Times,serif" font-size="14.00">elements:</text>
<polyline fill="none" stroke="black" points="13.5693,-249.5 127.528,-249.5 "/>
<text text-anchor="middle" x="70.5488" y="-234.3" font-family="Times,serif" font-size="14.00">time per element:</text>
<polyline fill="none" stroke="black" points="13.5693,-227.5 127.528,-227.5 "/>
<text text-anchor="middle" x="70.5488" y="-212.3" font-family="Times,serif" font-size="14.00">element size:</text>
<polyline fill="none" stroke="black" points="13.5693,-205.5 127.528,-205.5 "/>
<text text-anchor="middle" x="70.5488" y="-190.3" font-family="Times,serif" font-size="14.00">total size:</text>
<polyline fill="none" stroke="black" points="127.528,-183.5 127.528,-315.5 "/>
<text text-anchor="middle" x="270.48" y="-300.3" font-family="Times,serif" font-size="14.00">Select Field: target_tile_id</text>
<polyline fill="none" stroke="black" points="127.528,-293.5 413.432,-293.5 "/>
<text text-anchor="middle" x="270.48" y="-278.3" font-family="Times,serif" font-size="14.00">(source_tile_position, List[tile_data])</text>
<polyline fill="none" stroke="black" points="127.528,-271.5 413.432,-271.5 "/>
<text text-anchor="middle" x="270.48" y="-256.3" font-family="Times,serif" font-size="14.00">16</text>
<polyline fill="none" stroke="black" points="127.528,-249.5 413.432,-249.5 "/>
<text text-anchor="middle" x="270.48" y="-234.3" font-family="Times,serif" font-size="14.00">109.1ns</text>
<polyline fill="none" stroke="black" points="127.528,-227.5 413.432,-227.5 "/>
<text text-anchor="middle" x="270.48" y="-212.3" font-family="Times,serif" font-size="14.00">Min: 32.0MB, Mean: 162.0MB, Max: 288.0MB</text>
<polyline fill="none" stroke="black" points="127.528,-205.5 413.432,-205.5 "/>
<text text-anchor="middle" x="270.48" y="-190.3" font-family="Times,serif" font-size="14.00">2.6GB</text>
</g>
<!-- &#45;8359388487471884205&#45;&gt;2684151080636630655 -->
<g id="edge14" class="edge"><title>&#45;8359388487471884205&#45;&gt;2684151080636630655</title>
<path fill="none" stroke="black" stroke-dasharray="5,2" d="M213.5,-183.411C213.5,-170.246 213.5,-156.301 213.5,-142.819"/>
<polygon fill="black" stroke="black" points="217.001,-142.62 213.5,-132.62 210.001,-142.62 217.001,-142.62"/>
<text text-anchor="middle" x="225.552" y="-153.8" font-family="Times,serif" font-size="14.00">map</text>
</g>
<!-- 6921657751021181008 -->
<g id="node3" class="node"><title>6921657751021181008</title>
<polygon fill="lightgreen" stroke="black" points="79.7104,-366.5 79.7104,-498.5 347.291,-498.5 347.291,-366.5 79.7104,-366.5"/>
<text text-anchor="middle" x="136.69" y="-483.3" font-family="Times,serif" font-size="14.00">operation:</text>
<polyline fill="none" stroke="black" points="79.7104,-476.5 193.669,-476.5 "/>
<text text-anchor="middle" x="136.69" y="-461.3" font-family="Times,serif" font-size="14.00">output type:</text>
<polyline fill="none" stroke="black" points="79.7104,-454.5 193.669,-454.5 "/>
<text text-anchor="middle" x="136.69" y="-439.3" font-family="Times,serif" font-size="14.00">elements:</text>
<polyline fill="none" stroke="black" points="79.7104,-432.5 193.669,-432.5 "/>
<text text-anchor="middle" x="136.69" y="-417.3" font-family="Times,serif" font-size="14.00">time per element:</text>
<polyline fill="none" stroke="black" points="79.7104,-410.5 193.669,-410.5 "/>
<text text-anchor="middle" x="136.69" y="-395.3" font-family="Times,serif" font-size="14.00">element size:</text>
<polyline fill="none" stroke="black" points="79.7104,-388.5 193.669,-388.5 "/>
<text text-anchor="middle" x="136.69" y="-373.3" font-family="Times,serif" font-size="14.00">total size:</text>
<polyline fill="none" stroke="black" points="193.669,-366.5 193.669,-498.5 "/>
<text text-anchor="middle" x="270.48" y="-483.3" font-family="Times,serif" font-size="14.00">ti_partial_reconstruction</text>
<polyline fill="none" stroke="black" points="193.669,-476.5 347.291,-476.5 "/>
<text text-anchor="middle" x="270.48" y="-461.3" font-family="Times,serif" font-size="14.00">tile_data</text>
<polyline fill="none" stroke="black" points="193.669,-454.5 347.291,-454.5 "/>
<text text-anchor="middle" x="270.48" y="-439.3" font-family="Times,serif" font-size="14.00">81</text>
<polyline fill="none" stroke="black" points="193.669,-432.5 347.291,-432.5 "/>
<text text-anchor="middle" x="270.48" y="-417.3" font-family="Times,serif" font-size="14.00">229.8ms</text>
<polyline fill="none" stroke="black" points="193.669,-410.5 347.291,-410.5 "/>
<text text-anchor="middle" x="270.48" y="-395.3" font-family="Times,serif" font-size="14.00">Mean: 32.0MB</text>
<polyline fill="none" stroke="black" points="193.669,-388.5 347.291,-388.5 "/>
<text text-anchor="middle" x="270.48" y="-373.3" font-family="Times,serif" font-size="14.00">2.6GB</text>
</g>
<!-- 6921657751021181008&#45;&gt;&#45;8359388487471884205 -->
<g id="edge13" class="edge"><title>6921657751021181008&#45;&gt;&#45;8359388487471884205</title>
<path fill="none" stroke="black" stroke-dasharray="5,2" d="M213.5,-366.411C213.5,-353.246 213.5,-339.301 213.5,-325.819"/>
<polygon fill="black" stroke="black" points="217.001,-325.62 213.5,-315.62 210.001,-325.62 217.001,-325.62"/>
<text text-anchor="middle" x="238" y="-336.8" font-family="Times,serif" font-size="14.00">groupBy</text>
</g>
<!-- 8122355866746759194 -->
<g id="node4" class="node"><title>8122355866746759194</title>
<polygon fill="yellow" stroke="black" points="105.745,-549.5 105.745,-681.5 321.256,-681.5 321.256,-549.5 105.745,-549.5"/>
<text text-anchor="middle" x="162.725" y="-666.3" font-family="Times,serif" font-size="14.00">operation:</text>
<polyline fill="none" stroke="black" points="105.745,-659.5 219.704,-659.5 "/>
<text text-anchor="middle" x="162.725" y="-644.3" font-family="Times,serif" font-size="14.00">output type:</text>
<polyline fill="none" stroke="black" points="105.745,-637.5 219.704,-637.5 "/>
<text text-anchor="middle" x="162.725" y="-622.3" font-family="Times,serif" font-size="14.00">elements:</text>
<polyline fill="none" stroke="black" points="105.745,-615.5 219.704,-615.5 "/>
<text text-anchor="middle" x="162.725" y="-600.3" font-family="Times,serif" font-size="14.00">time per element:</text>
<polyline fill="none" stroke="black" points="105.745,-593.5 219.704,-593.5 "/>
<text text-anchor="middle" x="162.725" y="-578.3" font-family="Times,serif" font-size="14.00">element size:</text>
<polyline fill="none" stroke="black" points="105.745,-571.5 219.704,-571.5 "/>
<text text-anchor="middle" x="162.725" y="-556.3" font-family="Times,serif" font-size="14.00">total size:</text>
<polyline fill="none" stroke="black" points="219.704,-549.5 219.704,-681.5 "/>
<text text-anchor="middle" x="270.48" y="-666.3" font-family="Times,serif" font-size="14.00">grp_tile_read</text>
<polyline fill="none" stroke="black" points="219.704,-659.5 321.256,-659.5 "/>
<text text-anchor="middle" x="270.48" y="-644.3" font-family="Times,serif" font-size="14.00">tile_data</text>
<polyline fill="none" stroke="black" points="219.704,-637.5 321.256,-637.5 "/>
<text text-anchor="middle" x="270.48" y="-622.3" font-family="Times,serif" font-size="14.00">81</text>
<polyline fill="none" stroke="black" points="219.704,-615.5 321.256,-615.5 "/>
<text text-anchor="middle" x="270.48" y="-600.3" font-family="Times,serif" font-size="14.00">108.4ms</text>
<polyline fill="none" stroke="black" points="219.704,-593.5 321.256,-593.5 "/>
<text text-anchor="middle" x="270.48" y="-578.3" font-family="Times,serif" font-size="14.00">Mean: 32.0MB</text>
<polyline fill="none" stroke="black" points="219.704,-571.5 321.256,-571.5 "/>
<text text-anchor="middle" x="270.48" y="-556.3" font-family="Times,serif" font-size="14.00">2.6GB</text>
</g>
<!-- 8122355866746759194&#45;&gt;6921657751021181008 -->
<g id="edge12" class="edge"><title>8122355866746759194&#45;&gt;6921657751021181008</title>
<path fill="none" stroke="black" stroke-dasharray="5,2" d="M213.5,-549.411C213.5,-536.246 213.5,-522.301 213.5,-508.819"/>
<polygon fill="black" stroke="black" points="217.001,-508.62 213.5,-498.62 210.001,-508.62 217.001,-508.62"/>
<text text-anchor="middle" x="225.552" y="-519.8" font-family="Times,serif" font-size="14.00">map</text>
</g>
<!-- &#45;3832496912857374279 -->
<g id="node5" class="node"><title>&#45;3832496912857374279</title>
<polygon fill="orange" stroke="black" points="19.0278,-732.5 19.0278,-864.5 407.973,-864.5 407.973,-732.5 19.0278,-732.5"/>
<text text-anchor="middle" x="76.0073" y="-849.3" font-family="Times,serif" font-size="14.00">operation:</text>
<polyline fill="none" stroke="black" points="19.0278,-842.5 132.987,-842.5 "/>
<text text-anchor="middle" x="76.0073" y="-827.3" font-family="Times,serif" font-size="14.00">output type:</text>
<polyline fill="none" stroke="black" points="19.0278,-820.5 132.987,-820.5 "/>
<text text-anchor="middle" x="76.0073" y="-805.3" font-family="Times,serif" font-size="14.00">elements:</text>
<polyline fill="none" stroke="black" points="19.0278,-798.5 132.987,-798.5 "/>
<text text-anchor="middle" x="76.0073" y="-783.3" font-family="Times,serif" font-size="14.00">time per element:</text>
<polyline fill="none" stroke="black" points="19.0278,-776.5 132.987,-776.5 "/>
<text text-anchor="middle" x="76.0073" y="-761.3" font-family="Times,serif" font-size="14.00">element size:</text>
<polyline fill="none" stroke="black" points="19.0278,-754.5 132.987,-754.5 "/>
<text text-anchor="middle" x="76.0073" y="-739.3" font-family="Times,serif" font-size="14.00">total size:</text>
<polyline fill="none" stroke="black" points="132.987,-732.5 132.987,-864.5 "/>
<text text-anchor="middle" x="270.48" y="-849.3" font-family="Times,serif" font-size="14.00">Select Field: source_tile_id</text>
<polyline fill="none" stroke="black" points="132.987,-842.5 407.973,-842.5 "/>
<text text-anchor="middle" x="270.48" y="-827.3" font-family="Times,serif" font-size="14.00">(target_tile_position, List[tile_data])</text>
<polyline fill="none" stroke="black" points="132.987,-820.5 407.973,-820.5 "/>
<text text-anchor="middle" x="270.48" y="-805.3" font-family="Times,serif" font-size="14.00">16</text>
<polyline fill="none" stroke="black" points="132.987,-798.5 407.973,-798.5 "/>
<text text-anchor="middle" x="270.48" y="-783.3" font-family="Times,serif" font-size="14.00">40.7ns</text>
<polyline fill="none" stroke="black" points="132.987,-776.5 407.973,-776.5 "/>
<text text-anchor="middle" x="270.48" y="-761.3" font-family="Times,serif" font-size="14.00">Min: 370 bytes, Mean: 871 bytes, Max: 1.3kB</text>
<polyline fill="none" stroke="black" points="132.987,-754.5 407.973,-754.5 "/>
<text text-anchor="middle" x="270.48" y="-739.3" font-family="Times,serif" font-size="14.00">13.9kB</text>
</g>
<!-- &#45;3832496912857374279&#45;&gt;8122355866746759194 -->
<g id="edge9" class="edge"><title>&#45;3832496912857374279&#45;&gt;8122355866746759194</title>
<path fill="none" stroke="black" stroke-dasharray="5,2" d="M155.408,-732.446C152.052,-726.478 149.152,-720.299 146.949,-714 144.297,-706.419 144.017,-698.874 145.444,-691.533"/>
<polygon fill="black" stroke="black" points="148.884,-692.245 148.386,-681.662 142.175,-690.246 148.884,-692.245"/>
<text text-anchor="middle" x="169.276" y="-702.8" font-family="Times,serif" font-size="14.00">flatMap</text>
</g>
<!-- &#45;3832496912857374279&#45;&gt;8122355866746759194 -->
<g id="edge10" class="edge"><title>&#45;3832496912857374279&#45;&gt;8122355866746759194</title>
<path fill="none" stroke="black" stroke-dasharray="5,2" d="M206.993,-732.411C206.736,-719.246 206.683,-705.301 206.836,-691.819"/>
<polygon fill="black" stroke="black" points="210.338,-691.672 206.992,-681.62 203.339,-691.565 210.338,-691.672"/>
</g>
<!-- &#45;3832496912857374279&#45;&gt;8122355866746759194 -->
<g id="edge11" class="edge"><title>&#45;3832496912857374279&#45;&gt;8122355866746759194</title>
<path fill="none" stroke="black" stroke-dasharray="5,2" d="M220.008,-732.411C220.265,-719.246 220.318,-705.301 220.165,-691.819"/>
<polygon fill="black" stroke="black" points="223.662,-691.565 220.009,-681.62 216.663,-691.672 223.662,-691.565"/>
</g>
<!-- &#45;2110603705462173037 -->
<g id="node6" class="node"><title>&#45;2110603705462173037</title>
<polygon fill="lightgreen" stroke="black" points="96.7764,-915.5 96.7764,-1047.5 330.225,-1047.5 330.225,-915.5 96.7764,-915.5"/>
<text text-anchor="middle" x="153.756" y="-1032.3" font-family="Times,serif" font-size="14.00">operation:</text>
<polyline fill="none" stroke="black" points="96.7764,-1025.5 210.735,-1025.5 "/>
<text text-anchor="middle" x="153.756" y="-1010.3" font-family="Times,serif" font-size="14.00">output type:</text>
<polyline fill="none" stroke="black" points="96.7764,-1003.5 210.735,-1003.5 "/>
<text text-anchor="middle" x="153.756" y="-988.3" font-family="Times,serif" font-size="14.00">elements:</text>
<polyline fill="none" stroke="black" points="96.7764,-981.5 210.735,-981.5 "/>
<text text-anchor="middle" x="153.756" y="-966.3" font-family="Times,serif" font-size="14.00">time per element:</text>
<polyline fill="none" stroke="black" points="96.7764,-959.5 210.735,-959.5 "/>
<text text-anchor="middle" x="153.756" y="-944.3" font-family="Times,serif" font-size="14.00">element size:</text>
<polyline fill="none" stroke="black" points="96.7764,-937.5 210.735,-937.5 "/>
<text text-anchor="middle" x="153.756" y="-922.3" font-family="Times,serif" font-size="14.00">total size:</text>
<polyline fill="none" stroke="black" points="210.735,-915.5 210.735,-1047.5 "/>
<text text-anchor="middle" x="270.48" y="-1032.3" font-family="Times,serif" font-size="14.00">Shuffle Tile Fields</text>
<polyline fill="none" stroke="black" points="210.735,-1025.5 330.225,-1025.5 "/>
<text text-anchor="middle" x="270.48" y="-1010.3" font-family="Times,serif" font-size="14.00">tile_data</text>
<polyline fill="none" stroke="black" points="210.735,-1003.5 330.225,-1003.5 "/>
<text text-anchor="middle" x="270.48" y="-988.3" font-family="Times,serif" font-size="14.00">81</text>
<polyline fill="none" stroke="black" points="210.735,-981.5 330.225,-981.5 "/>
<text text-anchor="middle" x="270.48" y="-966.3" font-family="Times,serif" font-size="14.00">3.2ns</text>
<polyline fill="none" stroke="black" points="210.735,-959.5 330.225,-959.5 "/>
<text text-anchor="middle" x="270.48" y="-944.3" font-family="Times,serif" font-size="14.00">Mean: 361 bytes</text>
<polyline fill="none" stroke="black" points="210.735,-937.5 330.225,-937.5 "/>
<text text-anchor="middle" x="270.48" y="-922.3" font-family="Times,serif" font-size="14.00">29.2kB</text>
</g>
<!-- &#45;2110603705462173037&#45;&gt;&#45;3832496912857374279 -->
<g id="edge8" class="edge"><title>&#45;2110603705462173037&#45;&gt;&#45;3832496912857374279</title>
<path fill="none" stroke="black" stroke-dasharray="5,2" d="M213.5,-915.411C213.5,-902.246 213.5,-888.301 213.5,-874.819"/>
<polygon fill="black" stroke="black" points="217.001,-874.62 213.5,-864.62 210.001,-874.62 217.001,-874.62"/>
<text text-anchor="middle" x="238" y="-885.8" font-family="Times,serif" font-size="14.00">groupBy</text>
</g>
<!-- &#45;6749987438976313386 -->
<g id="node7" class="node"><title>&#45;6749987438976313386</title>
<polygon fill="yellow" stroke="black" points="13.3403,-1098.5 13.3403,-1230.5 413.661,-1230.5 413.661,-1098.5 13.3403,-1098.5"/>
<text text-anchor="middle" x="70.3198" y="-1215.3" font-family="Times,serif" font-size="14.00">operation:</text>
<polyline fill="none" stroke="black" points="13.3403,-1208.5 127.299,-1208.5 "/>
<text text-anchor="middle" x="70.3198" y="-1193.3" font-family="Times,serif" font-size="14.00">output type:</text>
<polyline fill="none" stroke="black" points="13.3403,-1186.5 127.299,-1186.5 "/>
<text text-anchor="middle" x="70.3198" y="-1171.3" font-family="Times,serif" font-size="14.00">elements:</text>
<polyline fill="none" stroke="black" points="13.3403,-1164.5 127.299,-1164.5 "/>
<text text-anchor="middle" x="70.3198" y="-1149.3" font-family="Times,serif" font-size="14.00">time per element:</text>
<polyline fill="none" stroke="black" points="13.3403,-1142.5 127.299,-1142.5 "/>
<text text-anchor="middle" x="70.3198" y="-1127.3" font-family="Times,serif" font-size="14.00">element size:</text>
<polyline fill="none" stroke="black" points="13.3403,-1120.5 127.299,-1120.5 "/>
<text text-anchor="middle" x="70.3198" y="-1105.3" font-family="Times,serif" font-size="14.00">total size:</text>
<polyline fill="none" stroke="black" points="127.299,-1098.5 127.299,-1230.5 "/>
<text text-anchor="middle" x="270.48" y="-1215.3" font-family="Times,serif" font-size="14.00">calc_input_tiles</text>
<polyline fill="none" stroke="black" points="127.299,-1208.5 413.661,-1208.5 "/>
<text text-anchor="middle" x="270.48" y="-1193.3" font-family="Times,serif" font-size="14.00">(url, (source_tile_position, target_tile_position))</text>
<polyline fill="none" stroke="black" points="127.299,-1186.5 413.661,-1186.5 "/>
<text text-anchor="middle" x="270.48" y="-1171.3" font-family="Times,serif" font-size="14.00">81</text>
<polyline fill="none" stroke="black" points="127.299,-1164.5 413.661,-1164.5 "/>
<text text-anchor="middle" x="270.48" y="-1149.3" font-family="Times,serif" font-size="14.00">8.9ns</text>
<polyline fill="none" stroke="black" points="127.299,-1142.5 413.661,-1142.5 "/>
<text text-anchor="middle" x="270.48" y="-1127.3" font-family="Times,serif" font-size="14.00">Mean: 336 bytes</text>
<polyline fill="none" stroke="black" points="127.299,-1120.5 413.661,-1120.5 "/>
<text text-anchor="middle" x="270.48" y="-1105.3" font-family="Times,serif" font-size="14.00">27.2kB</text>
</g>
<!-- &#45;6749987438976313386&#45;&gt;&#45;2110603705462173037 -->
<g id="edge7" class="edge"><title>&#45;6749987438976313386&#45;&gt;&#45;2110603705462173037</title>
<path fill="none" stroke="black" stroke-dasharray="5,2" d="M213.5,-1098.41C213.5,-1085.25 213.5,-1071.3 213.5,-1057.82"/>
<polygon fill="black" stroke="black" points="217.001,-1057.62 213.5,-1047.62 210.001,-1057.62 217.001,-1057.62"/>
<text text-anchor="middle" x="225.552" y="-1068.8" font-family="Times,serif" font-size="14.00">map</text>
</g>
<!-- 8718512285516414291 -->
<g id="node8" class="node"><title>8718512285516414291</title>
<polygon fill="yellow" stroke="black" points="75.814,-1281.5 75.814,-1413.5 351.187,-1413.5 351.187,-1281.5 75.814,-1281.5"/>
<text text-anchor="middle" x="132.793" y="-1398.3" font-family="Times,serif" font-size="14.00">operation:</text>
<polyline fill="none" stroke="black" points="75.814,-1391.5 189.773,-1391.5 "/>
<text text-anchor="middle" x="132.793" y="-1376.3" font-family="Times,serif" font-size="14.00">output type:</text>
<polyline fill="none" stroke="black" points="75.814,-1369.5 189.773,-1369.5 "/>
<text text-anchor="middle" x="132.793" y="-1354.3" font-family="Times,serif" font-size="14.00">elements:</text>
<polyline fill="none" stroke="black" points="75.814,-1347.5 189.773,-1347.5 "/>
<text text-anchor="middle" x="132.793" y="-1332.3" font-family="Times,serif" font-size="14.00">time per element:</text>
<polyline fill="none" stroke="black" points="75.814,-1325.5 189.773,-1325.5 "/>
<text text-anchor="middle" x="132.793" y="-1310.3" font-family="Times,serif" font-size="14.00">element size:</text>
<polyline fill="none" stroke="black" points="75.814,-1303.5 189.773,-1303.5 "/>
<text text-anchor="middle" x="132.793" y="-1288.3" font-family="Times,serif" font-size="14.00">total size:</text>
<polyline fill="none" stroke="black" points="189.773,-1281.5 189.773,-1413.5 "/>
<text text-anchor="middle" x="270.48" y="-1398.3" font-family="Times,serif" font-size="14.00">get_output_tiles</text>
<polyline fill="none" stroke="black" points="189.773,-1391.5 351.187,-1391.5 "/>
<text text-anchor="middle" x="270.48" y="-1376.3" font-family="Times,serif" font-size="14.00">(url, source_tile_position)</text>
<polyline fill="none" stroke="black" points="189.773,-1369.5 351.187,-1369.5 "/>
<text text-anchor="middle" x="270.48" y="-1354.3" font-family="Times,serif" font-size="14.00">16</text>
<polyline fill="none" stroke="black" points="189.773,-1347.5 351.187,-1347.5 "/>
<text text-anchor="middle" x="270.48" y="-1332.3" font-family="Times,serif" font-size="14.00">5.8ns</text>
<polyline fill="none" stroke="black" points="189.773,-1325.5 351.187,-1325.5 "/>
<text text-anchor="middle" x="270.48" y="-1310.3" font-family="Times,serif" font-size="14.00">Mean: 233 bytes</text>
<polyline fill="none" stroke="black" points="189.773,-1303.5 351.187,-1303.5 "/>
<text text-anchor="middle" x="270.48" y="-1288.3" font-family="Times,serif" font-size="14.00">3.7kB</text>
</g>
<!-- 8718512285516414291&#45;&gt;&#45;6749987438976313386 -->
<g id="edge4" class="edge"><title>8718512285516414291&#45;&gt;&#45;6749987438976313386</title>
<path fill="none" stroke="black" stroke-dasharray="5,2" d="M121.008,-1281.37C116.596,-1275.59 112.724,-1269.47 109.625,-1263 105.84,-1255.1 105.09,-1247.52 106.606,-1240.33"/>
<polygon fill="black" stroke="black" points="109.956,-1241.35 110.007,-1230.76 103.36,-1239.01 109.956,-1241.35"/>
<text text-anchor="middle" x="150.938" y="-1251.8" font-family="Times,serif" font-size="14.00">flatMapValues</text>
</g>
<!-- 8718512285516414291&#45;&gt;&#45;6749987438976313386 -->
<g id="edge5" class="edge"><title>8718512285516414291&#45;&gt;&#45;6749987438976313386</title>
<path fill="none" stroke="black" stroke-dasharray="5,2" d="M206.993,-1281.41C206.736,-1268.25 206.683,-1254.3 206.836,-1240.82"/>
<polygon fill="black" stroke="black" points="210.338,-1240.67 206.992,-1230.62 203.339,-1240.56 210.338,-1240.67"/>
</g>
<!-- 8718512285516414291&#45;&gt;&#45;6749987438976313386 -->
<g id="edge6" class="edge"><title>8718512285516414291&#45;&gt;&#45;6749987438976313386</title>
<path fill="none" stroke="black" stroke-dasharray="5,2" d="M220.008,-1281.41C220.265,-1268.25 220.318,-1254.3 220.165,-1240.82"/>
<polygon fill="black" stroke="black" points="223.662,-1240.56 220.009,-1230.62 216.663,-1240.67 223.662,-1240.56"/>
</g>
<!-- &#45;5209093605907626360 -->
<g id="node9" class="node"><title>&#45;5209093605907626360</title>
<polygon fill="turquoise" stroke="black" points="92.1484,-1464.5 92.1484,-1596.5 334.853,-1596.5 334.853,-1464.5 92.1484,-1464.5"/>
<text text-anchor="middle" x="149.128" y="-1581.3" font-family="Times,serif" font-size="14.00">operation:</text>
<polyline fill="none" stroke="black" points="92.1484,-1574.5 206.107,-1574.5 "/>
<text text-anchor="middle" x="149.128" y="-1559.3" font-family="Times,serif" font-size="14.00">output type:</text>
<polyline fill="none" stroke="black" points="92.1484,-1552.5 206.107,-1552.5 "/>
<text text-anchor="middle" x="149.128" y="-1537.3" font-family="Times,serif" font-size="14.00">elements:</text>
<polyline fill="none" stroke="black" points="92.1484,-1530.5 206.107,-1530.5 "/>
<text text-anchor="middle" x="149.128" y="-1515.3" font-family="Times,serif" font-size="14.00">time per element:</text>
<polyline fill="none" stroke="black" points="92.1484,-1508.5 206.107,-1508.5 "/>
<text text-anchor="middle" x="149.128" y="-1493.3" font-family="Times,serif" font-size="14.00">element size:</text>
<polyline fill="none" stroke="black" points="92.1484,-1486.5 206.107,-1486.5 "/>
<text text-anchor="middle" x="149.128" y="-1471.3" font-family="Times,serif" font-size="14.00">total size:</text>
<polyline fill="none" stroke="black" points="206.107,-1464.5 206.107,-1596.5 "/>
<text text-anchor="middle" x="270.48" y="-1581.3" font-family="Times,serif" font-size="14.00">parallelize : Custom</text>
<polyline fill="none" stroke="black" points="206.107,-1574.5 334.853,-1574.5 "/>
<text text-anchor="middle" x="270.48" y="-1559.3" font-family="Times,serif" font-size="14.00">url</text>
<polyline fill="none" stroke="black" points="206.107,-1552.5 334.853,-1552.5 "/>
<text text-anchor="middle" x="270.48" y="-1537.3" font-family="Times,serif" font-size="14.00">1</text>
<polyline fill="none" stroke="black" points="206.107,-1530.5 334.853,-1530.5 "/>
<text text-anchor="middle" x="270.48" y="-1515.3" font-family="Times,serif" font-size="14.00">None</text>
<polyline fill="none" stroke="black" points="206.107,-1508.5 334.853,-1508.5 "/>
<text text-anchor="middle" x="270.48" y="-1493.3" font-family="Times,serif" font-size="14.00">Mean: 37 bytes</text>
<polyline fill="none" stroke="black" points="206.107,-1486.5 334.853,-1486.5 "/>
<text text-anchor="middle" x="270.48" y="-1471.3" font-family="Times,serif" font-size="14.00">37 bytes</text>
</g>
<!-- &#45;5209093605907626360&#45;&gt;8718512285516414291 -->
<g id="edge1" class="edge"><title>&#45;5209093605907626360&#45;&gt;8718512285516414291</title>
<path fill="none" stroke="black" stroke-dasharray="5,2" d="M155.408,-1464.45C152.052,-1458.48 149.152,-1452.3 146.949,-1446 144.297,-1438.42 144.017,-1430.87 145.444,-1423.53"/>
<polygon fill="black" stroke="black" points="148.884,-1424.25 148.386,-1413.66 142.175,-1422.25 148.884,-1424.25"/>
<text text-anchor="middle" x="169.276" y="-1434.8" font-family="Times,serif" font-size="14.00">flatMap</text>
</g>
<!-- &#45;5209093605907626360&#45;&gt;8718512285516414291 -->
<g id="edge2" class="edge"><title>&#45;5209093605907626360&#45;&gt;8718512285516414291</title>
<path fill="none" stroke="black" stroke-dasharray="5,2" d="M206.993,-1464.41C206.736,-1451.25 206.683,-1437.3 206.836,-1423.82"/>
<polygon fill="black" stroke="black" points="210.338,-1423.67 206.992,-1413.62 203.339,-1423.56 210.338,-1423.67"/>
</g>
<!-- &#45;5209093605907626360&#45;&gt;8718512285516414291 -->
<g id="edge3" class="edge"><title>&#45;5209093605907626360&#45;&gt;8718512285516414291</title>
<path fill="none" stroke="black" stroke-dasharray="5,2" d="M220.008,-1464.41C220.265,-1451.25 220.318,-1437.3 220.165,-1423.82"/>
<polygon fill="black" stroke="black" points="223.662,-1423.56 220.009,-1413.62 216.663,-1423.67 223.662,-1423.56"/>
</g>
</g>
</svg>
