<?xml version="1.0" encoding="UTF-8" standalone="no"?>
<!DOCTYPE svg PUBLIC "-//W3C//DTD SVG 1.1//EN"
 "http://www.w3.org/Graphics/SVG/1.1/DTD/svg11.dtd">
<!-- Generated by graphviz version 2.38.0 (20140413.2041)
 -->
<!-- Title: G Pages: 1 -->
<svg width="408pt" height="1605pt"
 viewBox="0.00 0.00 408.32 1605.00" xmlns="http://www.w3.org/2000/svg" xmlns:xlink="http://www.w3.org/1999/xlink">
<g id="graph0" class="graph" transform="scale(1 1) rotate(0) translate(4 1601)">
<title>G</title>
<polygon fill="white" stroke="#000000" points="-4,4 -4,-1601 404.32,-1601 404.32,4 -4,4"/>
<!-- 7115091259651730222 -->
<g id="node1" class="node"><title>7115091259651730222</title>
<polygon fill="lightgreen" stroke="black" points="0.659668,-0.5 0.659668,-132.5 399.661,-132.5 399.661,-0.5 0.659668,-0.5"/>
<text text-anchor="middle" x="57.6392" y="-117.3" font-family="Times,serif" font-size="14.00">operation:</text>
<polyline fill="none" stroke="black" points="0.659668,-110.5 114.619,-110.5 "/>
<text text-anchor="middle" x="57.6392" y="-95.3" font-family="Times,serif" font-size="14.00">output type:</text>
<polyline fill="none" stroke="black" points="0.659668,-88.5 114.619,-88.5 "/>
<text text-anchor="middle" x="57.6392" y="-73.3" font-family="Times,serif" font-size="14.00">elements:</text>
<polyline fill="none" stroke="black" points="0.659668,-66.5 114.619,-66.5 "/>
<text text-anchor="middle" x="57.6392" y="-51.3" font-family="Times,serif" font-size="14.00">time per element:</text>
<polyline fill="none" stroke="black" points="0.659668,-44.5 114.619,-44.5 "/>
<text text-anchor="middle" x="57.6392" y="-29.3" font-family="Times,serif" font-size="14.00">element size:</text>
<polyline fill="none" stroke="black" points="0.659668,-22.5 114.619,-22.5 "/>
<text text-anchor="middle" x="57.6392" y="-7.3" font-family="Times,serif" font-size="14.00">total size:</text>
<polyline fill="none" stroke="black" points="114.619,-0.5 114.619,-132.5 "/>
<text text-anchor="middle" x="257.14" y="-117.3" font-family="Times,serif" font-size="14.00">ti_partial_collect</text>
<polyline fill="none" stroke="black" points="114.619,-110.5 399.661,-110.5 "/>
<text text-anchor="middle" x="257.14" y="-95.3" font-family="Times,serif" font-size="14.00">(source_tile_position, ndarray[int64](120, 120))</text>
<polyline fill="none" stroke="black" points="114.619,-88.5 399.661,-88.5 "/>
<text text-anchor="middle" x="257.14" y="-73.3" font-family="Times,serif" font-size="14.00">100</text>
<polyline fill="none" stroke="black" points="114.619,-66.5 399.661,-66.5 "/>
<text text-anchor="middle" x="257.14" y="-51.3" font-family="Times,serif" font-size="14.00">27.5ms</text>
<polyline fill="none" stroke="black" points="114.619,-44.5 399.661,-44.5 "/>
<text text-anchor="middle" x="257.14" y="-29.3" font-family="Times,serif" font-size="14.00">Mean: 115.5kB</text>
<polyline fill="none" stroke="black" points="114.619,-22.5 399.661,-22.5 "/>
<text text-anchor="middle" x="257.14" y="-7.3" font-family="Times,serif" font-size="14.00">11.6MB</text>
</g>
<!-- 8388497848434058245 -->
<g id="node2" class="node"><title>8388497848434058245</title>
<polygon fill="orange" stroke="black" points="8.40137,-183.5 8.40137,-315.5 391.919,-315.5 391.919,-183.5 8.40137,-183.5"/>
<text text-anchor="middle" x="65.3809" y="-300.3" font-family="Times,serif" font-size="14.00">operation:</text>
<polyline fill="none" stroke="black" points="8.40137,-293.5 122.36,-293.5 "/>
<text text-anchor="middle" x="65.3809" y="-278.3" font-family="Times,serif" font-size="14.00">output type:</text>
<polyline fill="none" stroke="black" points="8.40137,-271.5 122.36,-271.5 "/>
<text text-anchor="middle" x="65.3809" y="-256.3" font-family="Times,serif" font-size="14.00">elements:</text>
<polyline fill="none" stroke="black" points="8.40137,-249.5 122.36,-249.5 "/>
<text text-anchor="middle" x="65.3809" y="-234.3" font-family="Times,serif" font-size="14.00">time per element:</text>
<polyline fill="none" stroke="black" points="8.40137,-227.5 122.36,-227.5 "/>
<text text-anchor="middle" x="65.3809" y="-212.3" font-family="Times,serif" font-size="14.00">element size:</text>
<polyline fill="none" stroke="black" points="8.40137,-205.5 122.36,-205.5 "/>
<text text-anchor="middle" x="65.3809" y="-190.3" font-family="Times,serif" font-size="14.00">total size:</text>
<polyline fill="none" stroke="black" points="122.36,-183.5 122.36,-315.5 "/>
<text text-anchor="middle" x="257.14" y="-300.3" font-family="Times,serif" font-size="14.00">Select Field: target_tile_id</text>
<polyline fill="none" stroke="black" points="122.36,-293.5 391.919,-293.5 "/>
<text text-anchor="middle" x="257.14" y="-278.3" font-family="Times,serif" font-size="14.00">(source_tile_position, List[tile_data])</text>
<polyline fill="none" stroke="black" points="122.36,-271.5 391.919,-271.5 "/>
<text text-anchor="middle" x="257.14" y="-256.3" font-family="Times,serif" font-size="14.00">100</text>
<polyline fill="none" stroke="black" points="122.36,-249.5 391.919,-249.5 "/>
<text text-anchor="middle" x="257.14" y="-234.3" font-family="Times,serif" font-size="14.00">3.5ms</text>
<polyline fill="none" stroke="black" points="122.36,-227.5 391.919,-227.5 "/>
<text text-anchor="middle" x="257.14" y="-212.3" font-family="Times,serif" font-size="14.00">Min: 14.9kB, Mean: 106.1kB, Max: 130.9kB</text>
<polyline fill="none" stroke="black" points="122.36,-205.5 391.919,-205.5 "/>
<text text-anchor="middle" x="257.14" y="-190.3" font-family="Times,serif" font-size="14.00">10.6MB</text>
</g>
<!-- 8388497848434058245&#45;&gt;7115091259651730222 -->
<g id="edge14" class="edge"><title>8388497848434058245&#45;&gt;7115091259651730222</title>
<path fill="none" stroke="black" stroke-dasharray="5,2" d="M200.16,-183.411C200.16,-170.246 200.16,-156.301 200.16,-142.819"/>
<polygon fill="black" stroke="black" points="203.66,-142.62 200.16,-132.62 196.66,-142.62 203.66,-142.62"/>
<text text-anchor="middle" x="212.212" y="-153.8" font-family="Times,serif" font-size="14.00">map</text>
</g>
<!-- &#45;2668024805616712961 -->
<g id="node3" class="node"><title>&#45;2668024805616712961</title>
<polygon fill="lightgreen" stroke="black" points="66.3701,-366.5 66.3701,-498.5 333.95,-498.5 333.95,-366.5 66.3701,-366.5"/>
<text text-anchor="middle" x="123.35" y="-483.3" font-family="Times,serif" font-size="14.00">operation:</text>
<polyline fill="none" stroke="black" points="66.3701,-476.5 180.329,-476.5 "/>
<text text-anchor="middle" x="123.35" y="-461.3" font-family="Times,serif" font-size="14.00">output type:</text>
<polyline fill="none" stroke="black" points="66.3701,-454.5 180.329,-454.5 "/>
<text text-anchor="middle" x="123.35" y="-439.3" font-family="Times,serif" font-size="14.00">elements:</text>
<polyline fill="none" stroke="black" points="66.3701,-432.5 180.329,-432.5 "/>
<text text-anchor="middle" x="123.35" y="-417.3" font-family="Times,serif" font-size="14.00">time per element:</text>
<polyline fill="none" stroke="black" points="66.3701,-410.5 180.329,-410.5 "/>
<text text-anchor="middle" x="123.35" y="-395.3" font-family="Times,serif" font-size="14.00">element size:</text>
<polyline fill="none" stroke="black" points="66.3701,-388.5 180.329,-388.5 "/>
<text text-anchor="middle" x="123.35" y="-373.3" font-family="Times,serif" font-size="14.00">total size:</text>
<polyline fill="none" stroke="black" points="180.329,-366.5 180.329,-498.5 "/>
<text text-anchor="middle" x="257.14" y="-483.3" font-family="Times,serif" font-size="14.00">ti_partial_reconstruction</text>
<polyline fill="none" stroke="black" points="180.329,-476.5 333.95,-476.5 "/>
<text text-anchor="middle" x="257.14" y="-461.3" font-family="Times,serif" font-size="14.00">tile_data</text>
<polyline fill="none" stroke="black" points="180.329,-454.5 333.95,-454.5 "/>
<text text-anchor="middle" x="257.14" y="-439.3" font-family="Times,serif" font-size="14.00">729</text>
<polyline fill="none" stroke="black" points="180.329,-432.5 333.95,-432.5 "/>
<text text-anchor="middle" x="257.14" y="-417.3" font-family="Times,serif" font-size="14.00">111.1ms</text>
<polyline fill="none" stroke="black" points="180.329,-410.5 333.95,-410.5 "/>
<text text-anchor="middle" x="257.14" y="-395.3" font-family="Times,serif" font-size="14.00">Mean: 14.9kB</text>
<polyline fill="none" stroke="black" points="180.329,-388.5 333.95,-388.5 "/>
<text text-anchor="middle" x="257.14" y="-373.3" font-family="Times,serif" font-size="14.00">10.9MB</text>
</g>
<!-- &#45;2668024805616712961&#45;&gt;8388497848434058245 -->
<g id="edge13" class="edge"><title>&#45;2668024805616712961&#45;&gt;8388497848434058245</title>
<path fill="none" stroke="black" stroke-dasharray="5,2" d="M200.16,-366.411C200.16,-353.246 200.16,-339.301 200.16,-325.819"/>
<polygon fill="black" stroke="black" points="203.66,-325.62 200.16,-315.62 196.66,-325.62 203.66,-325.62"/>
<text text-anchor="middle" x="224.66" y="-336.8" font-family="Times,serif" font-size="14.00">groupBy</text>
</g>
<!-- 3752534053002384272 -->
<g id="node4" class="node"><title>3752534053002384272</title>
<polygon fill="yellow" stroke="black" points="95.1289,-549.5 95.1289,-681.5 305.191,-681.5 305.191,-549.5 95.1289,-549.5"/>
<text text-anchor="middle" x="152.108" y="-666.3" font-family="Times,serif" font-size="14.00">operation:</text>
<polyline fill="none" stroke="black" points="95.1289,-659.5 209.088,-659.5 "/>
<text text-anchor="middle" x="152.108" y="-644.3" font-family="Times,serif" font-size="14.00">output type:</text>
<polyline fill="none" stroke="black" points="95.1289,-637.5 209.088,-637.5 "/>
<text text-anchor="middle" x="152.108" y="-622.3" font-family="Times,serif" font-size="14.00">elements:</text>
<polyline fill="none" stroke="black" points="95.1289,-615.5 209.088,-615.5 "/>
<text text-anchor="middle" x="152.108" y="-600.3" font-family="Times,serif" font-size="14.00">time per element:</text>
<polyline fill="none" stroke="black" points="95.1289,-593.5 209.088,-593.5 "/>
<text text-anchor="middle" x="152.108" y="-578.3" font-family="Times,serif" font-size="14.00">element size:</text>
<polyline fill="none" stroke="black" points="95.1289,-571.5 209.088,-571.5 "/>
<text text-anchor="middle" x="152.108" y="-556.3" font-family="Times,serif" font-size="14.00">total size:</text>
<polyline fill="none" stroke="black" points="209.088,-549.5 209.088,-681.5 "/>
<text text-anchor="middle" x="257.14" y="-666.3" font-family="Times,serif" font-size="14.00">grp_tile_read</text>
<polyline fill="none" stroke="black" points="209.088,-659.5 305.191,-659.5 "/>
<text text-anchor="middle" x="257.14" y="-644.3" font-family="Times,serif" font-size="14.00">tile_data</text>
<polyline fill="none" stroke="black" points="209.088,-637.5 305.191,-637.5 "/>
<text text-anchor="middle" x="257.14" y="-622.3" font-family="Times,serif" font-size="14.00">729</text>
<polyline fill="none" stroke="black" points="209.088,-615.5 305.191,-615.5 "/>
<text text-anchor="middle" x="257.14" y="-600.3" font-family="Times,serif" font-size="14.00">26.9ms</text>
<polyline fill="none" stroke="black" points="209.088,-593.5 305.191,-593.5 "/>
<text text-anchor="middle" x="257.14" y="-578.3" font-family="Times,serif" font-size="14.00">Mean: 14.9kB</text>
<polyline fill="none" stroke="black" points="209.088,-571.5 305.191,-571.5 "/>
<text text-anchor="middle" x="257.14" y="-556.3" font-family="Times,serif" font-size="14.00">10.9MB</text>
</g>
<!-- 3752534053002384272&#45;&gt;&#45;2668024805616712961 -->
<g id="edge12" class="edge"><title>3752534053002384272&#45;&gt;&#45;2668024805616712961</title>
<path fill="none" stroke="black" stroke-dasharray="5,2" d="M200.16,-549.411C200.16,-536.246 200.16,-522.301 200.16,-508.819"/>
<polygon fill="black" stroke="black" points="203.66,-508.62 200.16,-498.62 196.66,-508.62 203.66,-508.62"/>
<text text-anchor="middle" x="212.212" y="-519.8" font-family="Times,serif" font-size="14.00">map</text>
</g>
<!-- &#45;5541030981367188238 -->
<g id="node5" class="node"><title>&#45;5541030981367188238</title>
<polygon fill="orange" stroke="black" points="15.7944,-732.5 15.7944,-864.5 384.526,-864.5 384.526,-732.5 15.7944,-732.5"/>
<text text-anchor="middle" x="72.7739" y="-849.3" font-family="Times,serif" font-size="14.00">operation:</text>
<polyline fill="none" stroke="black" points="15.7944,-842.5 129.753,-842.5 "/>
<text text-anchor="middle" x="72.7739" y="-827.3" font-family="Times,serif" font-size="14.00">output type:</text>
<polyline fill="none" stroke="black" points="15.7944,-820.5 129.753,-820.5 "/>
<text text-anchor="middle" x="72.7739" y="-805.3" font-family="Times,serif" font-size="14.00">elements:</text>
<polyline fill="none" stroke="black" points="15.7944,-798.5 129.753,-798.5 "/>
<text text-anchor="middle" x="72.7739" y="-783.3" font-family="Times,serif" font-size="14.00">time per element:</text>
<polyline fill="none" stroke="black" points="15.7944,-776.5 129.753,-776.5 "/>
<text text-anchor="middle" x="72.7739" y="-761.3" font-family="Times,serif" font-size="14.00">element size:</text>
<polyline fill="none" stroke="black" points="15.7944,-754.5 129.753,-754.5 "/>
<text text-anchor="middle" x="72.7739" y="-739.3" font-family="Times,serif" font-size="14.00">total size:</text>
<polyline fill="none" stroke="black" points="129.753,-732.5 129.753,-864.5 "/>
<text text-anchor="middle" x="257.14" y="-849.3" font-family="Times,serif" font-size="14.00">Select Field: source_tile_id</text>
<polyline fill="none" stroke="black" points="129.753,-842.5 384.526,-842.5 "/>
<text text-anchor="middle" x="257.14" y="-827.3" font-family="Times,serif" font-size="14.00">(target_tile_position, List[tile_data])</text>
<polyline fill="none" stroke="black" points="129.753,-820.5 384.526,-820.5 "/>
<text text-anchor="middle" x="257.14" y="-805.3" font-family="Times,serif" font-size="14.00">100</text>
<polyline fill="none" stroke="black" points="129.753,-798.5 384.526,-798.5 "/>
<text text-anchor="middle" x="257.14" y="-783.3" font-family="Times,serif" font-size="14.00">4.2ms</text>
<polyline fill="none" stroke="black" points="129.753,-776.5 384.526,-776.5 "/>
<text text-anchor="middle" x="257.14" y="-761.3" font-family="Times,serif" font-size="14.00">Min: 370 bytes, Mean: 1.1kB, Max: 1.3kB</text>
<polyline fill="none" stroke="black" points="129.753,-754.5 384.526,-754.5 "/>
<text text-anchor="middle" x="257.14" y="-739.3" font-family="Times,serif" font-size="14.00">114.1kB</text>
</g>
<!-- &#45;5541030981367188238&#45;&gt;3752534053002384272 -->
<g id="edge9" class="edge"><title>&#45;5541030981367188238&#45;&gt;3752534053002384272</title>
<path fill="none" stroke="black" stroke-dasharray="5,2" d="M142.068,-732.446C138.711,-726.478 135.812,-720.299 133.608,-714 130.957,-706.419 130.677,-698.874 132.104,-691.533"/>
<polygon fill="black" stroke="black" points="135.543,-692.245 135.046,-681.662 128.835,-690.246 135.543,-692.245"/>
<text text-anchor="middle" x="155.936" y="-702.8" font-family="Times,serif" font-size="14.00">flatMap</text>
</g>
<!-- &#45;5541030981367188238&#45;&gt;3752534053002384272 -->
<g id="edge10" class="edge"><title>&#45;5541030981367188238&#45;&gt;3752534053002384272</title>
<path fill="none" stroke="black" stroke-dasharray="5,2" d="M193.652,-732.411C193.395,-719.246 193.343,-705.301 193.495,-691.819"/>
<polygon fill="black" stroke="black" points="196.998,-691.672 193.652,-681.62 189.999,-691.565 196.998,-691.672"/>
</g>
<!-- &#45;5541030981367188238&#45;&gt;3752534053002384272 -->
<g id="edge11" class="edge"><title>&#45;5541030981367188238&#45;&gt;3752534053002384272</title>
<path fill="none" stroke="black" stroke-dasharray="5,2" d="M206.668,-732.411C206.925,-719.246 206.978,-705.301 206.825,-691.819"/>
<polygon fill="black" stroke="black" points="210.322,-691.565 206.668,-681.62 203.322,-691.672 210.322,-691.565"/>
</g>
<!-- 5246544797007210129 -->
<g id="node6" class="node"><title>5246544797007210129</title>
<polygon fill="lightgreen" stroke="black" points="83.436,-915.5 83.436,-1047.5 316.884,-1047.5 316.884,-915.5 83.436,-915.5"/>
<text text-anchor="middle" x="140.416" y="-1032.3" font-family="Times,serif" font-size="14.00">operation:</text>
<polyline fill="none" stroke="black" points="83.436,-1025.5 197.395,-1025.5 "/>
<text text-anchor="middle" x="140.416" y="-1010.3" font-family="Times,serif" font-size="14.00">output type:</text>
<polyline fill="none" stroke="black" points="83.436,-1003.5 197.395,-1003.5 "/>
<text text-anchor="middle" x="140.416" y="-988.3" font-family="Times,serif" font-size="14.00">elements:</text>
<polyline fill="none" stroke="black" points="83.436,-981.5 197.395,-981.5 "/>
<text text-anchor="middle" x="140.416" y="-966.3" font-family="Times,serif" font-size="14.00">time per element:</text>
<polyline fill="none" stroke="black" points="83.436,-959.5 197.395,-959.5 "/>
<text text-anchor="middle" x="140.416" y="-944.3" font-family="Times,serif" font-size="14.00">element size:</text>
<polyline fill="none" stroke="black" points="83.436,-937.5 197.395,-937.5 "/>
<text text-anchor="middle" x="140.416" y="-922.3" font-family="Times,serif" font-size="14.00">total size:</text>
<polyline fill="none" stroke="black" points="197.395,-915.5 197.395,-1047.5 "/>
<text text-anchor="middle" x="257.14" y="-1032.3" font-family="Times,serif" font-size="14.00">Shuffle Tile Fields</text>
<polyline fill="none" stroke="black" points="197.395,-1025.5 316.884,-1025.5 "/>
<text text-anchor="middle" x="257.14" y="-1010.3" font-family="Times,serif" font-size="14.00">tile_data</text>
<polyline fill="none" stroke="black" points="197.395,-1003.5 316.884,-1003.5 "/>
<text text-anchor="middle" x="257.14" y="-988.3" font-family="Times,serif" font-size="14.00">729</text>
<polyline fill="none" stroke="black" points="197.395,-981.5 316.884,-981.5 "/>
<text text-anchor="middle" x="257.14" y="-966.3" font-family="Times,serif" font-size="14.00">1.8ms</text>
<polyline fill="none" stroke="black" points="197.395,-959.5 316.884,-959.5 "/>
<text text-anchor="middle" x="257.14" y="-944.3" font-family="Times,serif" font-size="14.00">Mean: 361 bytes</text>
<polyline fill="none" stroke="black" points="197.395,-937.5 316.884,-937.5 "/>
<text text-anchor="middle" x="257.14" y="-922.3" font-family="Times,serif" font-size="14.00">263.2kB</text>
</g>
<!-- 5246544797007210129&#45;&gt;&#45;5541030981367188238 -->
<g id="edge8" class="edge"><title>5246544797007210129&#45;&gt;&#45;5541030981367188238</title>
<path fill="none" stroke="black" stroke-dasharray="5,2" d="M200.16,-915.411C200.16,-902.246 200.16,-888.301 200.16,-874.819"/>
<polygon fill="black" stroke="black" points="203.66,-874.62 200.16,-864.62 196.66,-874.62 203.66,-874.62"/>
<text text-anchor="middle" x="224.66" y="-885.8" font-family="Times,serif" font-size="14.00">groupBy</text>
</g>
<!-- &#45;8376814567844531766 -->
<g id="node7" class="node"><title>&#45;8376814567844531766</title>
<polygon fill="yellow" stroke="black" points="0,-1098.5 0,-1230.5 400.32,-1230.5 400.32,-1098.5 0,-1098.5"/>
<text text-anchor="middle" x="56.9795" y="-1215.3" font-family="Times,serif" font-size="14.00">operation:</text>
<polyline fill="none" stroke="black" points="0,-1208.5 113.959,-1208.5 "/>
<text text-anchor="middle" x="56.9795" y="-1193.3" font-family="Times,serif" font-size="14.00">output type:</text>
<polyline fill="none" stroke="black" points="0,-1186.5 113.959,-1186.5 "/>
<text text-anchor="middle" x="56.9795" y="-1171.3" font-family="Times,serif" font-size="14.00">elements:</text>
<polyline fill="none" stroke="black" points="0,-1164.5 113.959,-1164.5 "/>
<text text-anchor="middle" x="56.9795" y="-1149.3" font-family="Times,serif" font-size="14.00">time per element:</text>
<polyline fill="none" stroke="black" points="0,-1142.5 113.959,-1142.5 "/>
<text text-anchor="middle" x="56.9795" y="-1127.3" font-family="Times,serif" font-size="14.00">element size:</text>
<polyline fill="none" stroke="black" points="0,-1120.5 113.959,-1120.5 "/>
<text text-anchor="middle" x="56.9795" y="-1105.3" font-family="Times,serif" font-size="14.00">total size:</text>
<polyline fill="none" stroke="black" points="113.959,-1098.5 113.959,-1230.5 "/>
<text text-anchor="middle" x="257.14" y="-1215.3" font-family="Times,serif" font-size="14.00">calc_input_tiles</text>
<polyline fill="none" stroke="black" points="113.959,-1208.5 400.32,-1208.5 "/>
<text text-anchor="middle" x="257.14" y="-1193.3" font-family="Times,serif" font-size="14.00">(url, (source_tile_position, target_tile_position))</text>
<polyline fill="none" stroke="black" points="113.959,-1186.5 400.32,-1186.5 "/>
<text text-anchor="middle" x="257.14" y="-1171.3" font-family="Times,serif" font-size="14.00">729</text>
<polyline fill="none" stroke="black" points="113.959,-1164.5 400.32,-1164.5 "/>
<text text-anchor="middle" x="257.14" y="-1149.3" font-family="Times,serif" font-size="14.00">7.6ms</text>
<polyline fill="none" stroke="black" points="113.959,-1142.5 400.32,-1142.5 "/>
<text text-anchor="middle" x="257.14" y="-1127.3" font-family="Times,serif" font-size="14.00">Mean: 336 bytes</text>
<polyline fill="none" stroke="black" points="113.959,-1120.5 400.32,-1120.5 "/>
<text text-anchor="middle" x="257.14" y="-1105.3" font-family="Times,serif" font-size="14.00">244.9kB</text>
</g>
<!-- &#45;8376814567844531766&#45;&gt;5246544797007210129 -->
<g id="edge7" class="edge"><title>&#45;8376814567844531766&#45;&gt;5246544797007210129</title>
<path fill="none" stroke="black" stroke-dasharray="5,2" d="M200.16,-1098.41C200.16,-1085.25 200.16,-1071.3 200.16,-1057.82"/>
<polygon fill="black" stroke="black" points="203.66,-1057.62 200.16,-1047.62 196.66,-1057.62 203.66,-1057.62"/>
<text text-anchor="middle" x="212.212" y="-1068.8" font-family="Times,serif" font-size="14.00">map</text>
</g>
<!-- &#45;228873129864180806 -->
<g id="node8" class="node"><title>&#45;228873129864180806</title>
<polygon fill="yellow" stroke="black" points="62.4736,-1281.5 62.4736,-1413.5 337.847,-1413.5 337.847,-1281.5 62.4736,-1281.5"/>
<text text-anchor="middle" x="119.453" y="-1398.3" font-family="Times,serif" font-size="14.00">operation:</text>
<polyline fill="none" stroke="black" points="62.4736,-1391.5 176.433,-1391.5 "/>
<text text-anchor="middle" x="119.453" y="-1376.3" font-family="Times,serif" font-size="14.00">output type:</text>
<polyline fill="none" stroke="black" points="62.4736,-1369.5 176.433,-1369.5 "/>
<text text-anchor="middle" x="119.453" y="-1354.3" font-family="Times,serif" font-size="14.00">elements:</text>
<polyline fill="none" stroke="black" points="62.4736,-1347.5 176.433,-1347.5 "/>
<text text-anchor="middle" x="119.453" y="-1332.3" font-family="Times,serif" font-size="14.00">time per element:</text>
<polyline fill="none" stroke="black" points="62.4736,-1325.5 176.433,-1325.5 "/>
<text text-anchor="middle" x="119.453" y="-1310.3" font-family="Times,serif" font-size="14.00">element size:</text>
<polyline fill="none" stroke="black" points="62.4736,-1303.5 176.433,-1303.5 "/>
<text text-anchor="middle" x="119.453" y="-1288.3" font-family="Times,serif" font-size="14.00">total size:</text>
<polyline fill="none" stroke="black" points="176.433,-1281.5 176.433,-1413.5 "/>
<text text-anchor="middle" x="257.14" y="-1398.3" font-family="Times,serif" font-size="14.00">get_output_tiles</text>
<polyline fill="none" stroke="black" points="176.433,-1391.5 337.847,-1391.5 "/>
<text text-anchor="middle" x="257.14" y="-1376.3" font-family="Times,serif" font-size="14.00">(url, source_tile_position)</text>
<polyline fill="none" stroke="black" points="176.433,-1369.5 337.847,-1369.5 "/>
<text text-anchor="middle" x="257.14" y="-1354.3" font-family="Times,serif" font-size="14.00">100</text>
<polyline fill="none" stroke="black" points="176.433,-1347.5 337.847,-1347.5 "/>
<text text-anchor="middle" x="257.14" y="-1332.3" font-family="Times,serif" font-size="14.00">184.1ns</text>
<polyline fill="none" stroke="black" points="176.433,-1325.5 337.847,-1325.5 "/>
<text text-anchor="middle" x="257.14" y="-1310.3" font-family="Times,serif" font-size="14.00">Mean: 233 bytes</text>
<polyline fill="none" stroke="black" points="176.433,-1303.5 337.847,-1303.5 "/>
<text text-anchor="middle" x="257.14" y="-1288.3" font-family="Times,serif" font-size="14.00">23.3kB</text>
</g>
<!-- &#45;228873129864180806&#45;&gt;&#45;8376814567844531766 -->
<g id="edge4" class="edge"><title>&#45;228873129864180806&#45;&gt;&#45;8376814567844531766</title>
<path fill="none" stroke="black" stroke-dasharray="5,2" d="M107.668,-1281.37C103.256,-1275.59 99.3838,-1269.47 96.2842,-1263 92.4999,-1255.1 91.7493,-1247.52 93.2658,-1240.33"/>
<polygon fill="black" stroke="black" points="96.6159,-1241.35 96.6668,-1230.76 90.02,-1239.01 96.6159,-1241.35"/>
<text text-anchor="middle" x="137.598" y="-1251.8" font-family="Times,serif" font-size="14.00">flatMapValues</text>
</g>
<!-- &#45;228873129864180806&#45;&gt;&#45;8376814567844531766 -->
<g id="edge5" class="edge"><title>&#45;228873129864180806&#45;&gt;&#45;8376814567844531766</title>
<path fill="none" stroke="black" stroke-dasharray="5,2" d="M193.652,-1281.41C193.395,-1268.25 193.343,-1254.3 193.495,-1240.82"/>
<polygon fill="black" stroke="black" points="196.998,-1240.67 193.652,-1230.62 189.999,-1240.56 196.998,-1240.67"/>
</g>
<!-- &#45;228873129864180806&#45;&gt;&#45;8376814567844531766 -->
<g id="edge6" class="edge"><title>&#45;228873129864180806&#45;&gt;&#45;8376814567844531766</title>
<path fill="none" stroke="black" stroke-dasharray="5,2" d="M206.668,-1281.41C206.925,-1268.25 206.978,-1254.3 206.825,-1240.82"/>
<polygon fill="black" stroke="black" points="210.322,-1240.56 206.668,-1230.62 203.322,-1240.67 210.322,-1240.56"/>
</g>
<!-- &#45;1577528891301281453 -->
<g id="node9" class="node"><title>&#45;1577528891301281453</title>
<polygon fill="turquoise" stroke="black" points="78.8081,-1464.5 78.8081,-1596.5 321.512,-1596.5 321.512,-1464.5 78.8081,-1464.5"/>
<text text-anchor="middle" x="135.788" y="-1581.3" font-family="Times,serif" font-size="14.00">operation:</text>
<polyline fill="none" stroke="black" points="78.8081,-1574.5 192.767,-1574.5 "/>
<text text-anchor="middle" x="135.788" y="-1559.3" font-family="Times,serif" font-size="14.00">output type:</text>
<polyline fill="none" stroke="black" points="78.8081,-1552.5 192.767,-1552.5 "/>
<text text-anchor="middle" x="135.788" y="-1537.3" font-family="Times,serif" font-size="14.00">elements:</text>
<polyline fill="none" stroke="black" points="78.8081,-1530.5 192.767,-1530.5 "/>
<text text-anchor="middle" x="135.788" y="-1515.3" font-family="Times,serif" font-size="14.00">time per element:</text>
<polyline fill="none" stroke="black" points="78.8081,-1508.5 192.767,-1508.5 "/>
<text text-anchor="middle" x="135.788" y="-1493.3" font-family="Times,serif" font-size="14.00">element size:</text>
<polyline fill="none" stroke="black" points="78.8081,-1486.5 192.767,-1486.5 "/>
<text text-anchor="middle" x="135.788" y="-1471.3" font-family="Times,serif" font-size="14.00">total size:</text>
<polyline fill="none" stroke="black" points="192.767,-1464.5 192.767,-1596.5 "/>
<text text-anchor="middle" x="257.14" y="-1581.3" font-family="Times,serif" font-size="14.00">parallelize : Custom</text>
<polyline fill="none" stroke="black" points="192.767,-1574.5 321.512,-1574.5 "/>
<text text-anchor="middle" x="257.14" y="-1559.3" font-family="Times,serif" font-size="14.00">url</text>
<polyline fill="none" stroke="black" points="192.767,-1552.5 321.512,-1552.5 "/>
<text text-anchor="middle" x="257.14" y="-1537.3" font-family="Times,serif" font-size="14.00">1</text>
<polyline fill="none" stroke="black" points="192.767,-1530.5 321.512,-1530.5 "/>
<text text-anchor="middle" x="257.14" y="-1515.3" font-family="Times,serif" font-size="14.00">1.9ns</text>
<polyline fill="none" stroke="black" points="192.767,-1508.5 321.512,-1508.5 "/>
<text text-anchor="middle" x="257.14" y="-1493.3" font-family="Times,serif" font-size="14.00">Mean: 37 bytes</text>
<polyline fill="none" stroke="black" points="192.767,-1486.5 321.512,-1486.5 "/>
<text text-anchor="middle" x="257.14" y="-1471.3" font-family="Times,serif" font-size="14.00">37 bytes</text>
</g>
<!-- &#45;1577528891301281453&#45;&gt;&#45;228873129864180806 -->
<g id="edge1" class="edge"><title>&#45;1577528891301281453&#45;&gt;&#45;228873129864180806</title>
<path fill="none" stroke="black" stroke-dasharray="5,2" d="M142.068,-1464.45C138.711,-1458.48 135.812,-1452.3 133.608,-1446 130.957,-1438.42 130.677,-1430.87 132.104,-1423.53"/>
<polygon fill="black" stroke="black" points="135.543,-1424.25 135.046,-1413.66 128.835,-1422.25 135.543,-1424.25"/>
<text text-anchor="middle" x="155.936" y="-1434.8" font-family="Times,serif" font-size="14.00">flatMap</text>
</g>
<!-- &#45;1577528891301281453&#45;&gt;&#45;228873129864180806 -->
<g id="edge2" class="edge"><title>&#45;1577528891301281453&#45;&gt;&#45;228873129864180806</title>
<path fill="none" stroke="black" stroke-dasharray="5,2" d="M193.652,-1464.41C193.395,-1451.25 193.343,-1437.3 193.495,-1423.82"/>
<polygon fill="black" stroke="black" points="196.998,-1423.67 193.652,-1413.62 189.999,-1423.56 196.998,-1423.67"/>
</g>
<!-- &#45;1577528891301281453&#45;&gt;&#45;228873129864180806 -->
<g id="edge3" class="edge"><title>&#45;1577528891301281453&#45;&gt;&#45;228873129864180806</title>
<path fill="none" stroke="black" stroke-dasharray="5,2" d="M206.668,-1464.41C206.925,-1451.25 206.978,-1437.3 206.825,-1423.82"/>
<polygon fill="black" stroke="black" points="210.322,-1423.56 206.668,-1413.62 203.322,-1423.67 210.322,-1423.56"/>
</g>
</g>
</svg>
